<svg width="70" height="70" viewBox="0 0 70 70" fill="none" xmlns="http://www.w3.org/2000/svg">
<rect width="70" height="70" fill="url(#paint0_linear_36_44)"/>
<g transform="translate(12, 20.5)">
<mask id="path-1-outside-1_256_1075" maskUnits="userSpaceOnUse" x="-0.5" y="-0.500488" width="47" height="30" fill="black">
<rect fill="white" x="-0.5" y="-0.500488" width="47" height="30"/>
<path d="M7.90543 0.987438C7.97699 1.01565 8.04855 1.04387 8.12227 1.07294C8.27202 1.13219 8.42162 1.19181 8.57108 1.25178C8.79874 1.343 9.02695 1.43273 9.25525 1.52232C9.4016 1.58044 9.54793 1.63865 9.69421 1.69695C9.76171 1.72345 9.82921 1.74996 9.89876 1.77726C10.5054 2.02244 11.023 2.28189 11.3225 2.8939C11.3495 3.16088 11.3438 3.4187 11.3225 3.68591C11.5059 3.74718 11.6893 3.80822 11.873 3.8684C12.0309 3.92211 12.1877 3.97926 12.343 4.04002C13.0536 4.30711 13.696 4.35296 14.4501 4.35692C14.6913 4.36118 14.9325 4.36681 15.1737 4.37239C15.2339 4.37364 15.2941 4.3749 15.3561 4.37619C15.9369 4.38897 16.5155 4.41943 17.0949 4.46142C17.1879 4.46775 17.281 4.47408 17.3769 4.4806C17.8954 4.52232 18.3685 4.6103 18.8681 4.75337C19.3457 4.89279 19.3457 4.89279 19.8384 4.91792C20.1764 4.72113 20.3934 4.50468 20.6474 4.21254C21.0565 3.74294 21.6906 3.45613 22.2966 3.3339C23.18 3.28 24.0281 3.38363 24.8975 3.53191C25.0158 3.55018 25.1341 3.5684 25.2524 3.58656C25.3646 3.60528 25.4767 3.624 25.5923 3.64328C25.6929 3.65987 25.7936 3.67646 25.8973 3.69356C26.1933 3.78427 26.3186 3.88613 26.5107 4.12591C26.5795 4.36976 26.566 4.58349 26.5107 4.82992C26.3515 5.05543 26.3515 5.05543 26.0717 5.18193C25.5429 5.21132 25.0111 5.07837 24.4912 4.99239C23.1909 4.72639 23.1909 4.72639 21.9478 5.04752C21.6371 5.28217 21.3734 5.56104 21.1045 5.84194C20.878 6.07635 20.6402 6.28707 20.3929 6.49885C20.1748 6.69095 19.9632 6.889 19.7516 7.08826C19.1843 7.62206 18.6064 8.13118 17.9947 8.61397C17.9359 8.66085 17.877 8.70773 17.8163 8.75603C17.0818 9.34017 16.353 9.91266 15.553 10.4049C15.3513 10.5573 15.275 10.6683 15.1854 10.902C15.62 11.4428 16.2203 11.6477 16.8973 11.7325C18.4916 11.5328 19.7615 10.6645 20.9467 9.63402C21.4019 9.24272 21.7314 9.19779 22.3161 9.20626C22.9418 9.26712 23.2762 9.67635 23.6889 10.1035C24.7854 11.1685 26.5146 12.0486 28.0632 12.0453C28.1806 12.0415 28.298 12.0372 28.4153 12.0323C28.475 12.0298 28.5346 12.0273 28.596 12.0248C28.6866 12.0209 28.6866 12.0209 28.779 12.017C29.9948 11.9661 30.8302 12.007 31.771 12.8576C31.829 12.9125 31.887 12.9675 31.9467 13.024C32.2674 13.3155 32.6228 13.5594 32.9744 13.8115C33.1137 13.9141 33.2529 14.017 33.3918 14.1202C33.4593 14.1704 33.5269 14.2206 33.5965 14.2723C33.8549 14.4648 34.1122 14.6587 34.3693 14.8529C34.5962 15.024 34.8239 15.1941 35.0515 15.3643C35.1918 15.4703 35.3305 15.5784 35.4689 15.6867C35.5457 15.7449 35.6224 15.8031 35.7015 15.8631C35.7652 15.9127 35.8289 15.9624 35.8945 16.0136C36.0798 16.1181 36.0798 16.1181 36.2787 16.031C36.7042 15.8311 37.0905 15.5675 37.4851 15.3129C37.6388 15.2138 37.7931 15.1156 37.9474 15.0174C38.0441 14.9553 38.1409 14.8931 38.2406 14.829C38.3293 14.7721 38.418 14.7152 38.5094 14.6565C38.7217 14.5285 38.7217 14.5285 38.8016 14.334C38.7381 14.1113 38.7381 14.1113 38.6322 13.8531C38.5921 13.7501 38.552 13.6471 38.5107 13.541C38.465 13.4258 38.4193 13.3107 38.3737 13.1955C38.3263 13.0748 38.2791 12.9541 38.2318 12.8334C38.1001 12.4971 37.9675 12.1611 37.8347 11.8252C37.7148 11.5216 37.5954 11.2177 37.4761 10.9138C36.9629 9.60769 36.4491 8.30184 35.9261 6.9997C35.901 6.93707 35.8758 6.87444 35.8499 6.80991C35.734 6.52099 35.6177 6.2322 35.5008 5.94367C35.461 5.84464 35.4212 5.74562 35.3801 5.64359C35.3455 5.55799 35.3109 5.4724 35.2752 5.38421C35.2021 5.18193 35.2021 5.18193 35.2021 5.00593C35.1023 5.04631 35.0025 5.08669 34.8997 5.1283C34.4757 5.2982 34.0495 5.46152 33.6219 5.62193C33.5173 5.6613 33.4127 5.70066 33.305 5.74122C32.0723 6.15064 30.8072 6.02763 29.545 5.82544C29.4592 5.81239 29.3734 5.79935 29.2851 5.7859C28.7939 5.69753 28.4838 5.60867 28.1787 5.18193C28.1659 4.81681 28.2125 4.63805 28.4311 4.34592C28.9215 4.10997 29.4179 4.25791 29.9383 4.34832C31.5279 4.61949 32.6123 4.41086 34.1132 3.84853C34.2996 3.7826 34.4828 3.73001 34.6754 3.68591C34.6713 3.63486 34.6672 3.58381 34.663 3.53122C34.6401 3.03398 34.6789 2.74923 35.0266 2.36589C35.4711 2.04127 35.9467 1.81617 36.458 1.6196C36.5251 1.5933 36.5921 1.56699 36.6612 1.53989C36.802 1.4849 36.9429 1.43027 37.084 1.37599C37.2975 1.29366 37.5103 1.20982 37.7231 1.1258C39.594 0.394629 39.594 0.394629 40.3041 0.666371C40.7798 0.998074 41.0025 1.46362 41.2019 1.98879C41.24 2.08552 41.24 2.08552 41.2789 2.18421C41.3594 2.38925 41.4386 2.59479 41.5177 2.8004C41.5704 2.93524 41.6232 3.07005 41.676 3.20483C41.7544 3.40489 41.8326 3.60504 41.9099 3.80557C42.0332 4.1255 42.1592 4.44348 42.2939 4.75881C42.3308 4.8466 42.3308 4.8466 42.3684 4.93616C42.4351 5.09392 42.5031 5.25114 42.5711 5.40831C42.684 5.77279 42.6903 6.03379 42.6645 6.41394C42.5328 6.63395 42.5328 6.63395 42.3134 6.76595C42.058 6.81076 41.876 6.79546 41.611 6.76595C41.3681 6.58002 41.2754 6.36941 41.1646 6.08841C41.1312 6.00471 41.0979 5.92102 41.0635 5.83478C41.0283 5.74458 40.9932 5.65437 40.957 5.56143C40.9204 5.46868 40.8837 5.37592 40.846 5.28035C40.7687 5.0843 40.6917 4.88812 40.6151 4.69182C40.4975 4.39077 40.3787 4.09023 40.2597 3.78972C40.1848 3.59931 40.1099 3.40887 40.0352 3.2184C39.9817 3.0831 39.9817 3.0831 39.9271 2.94505C39.8783 2.81951 39.8783 2.81951 39.8285 2.69143C39.7997 2.61777 39.7708 2.54411 39.7411 2.46822C39.6796 2.27789 39.6796 2.27789 39.6796 2.01389C39.3032 2.1593 38.9268 2.30486 38.5505 2.45056C38.4228 2.50002 38.295 2.54943 38.1671 2.59881C37.9825 2.67014 37.7979 2.74161 37.6134 2.81312C37.557 2.83485 37.5006 2.85659 37.4426 2.87898C37.1673 2.98578 36.8956 3.09719 36.6262 3.21795C36.3434 3.3339 36.3434 3.3339 36.0801 3.3339C36.1044 3.39344 36.1288 3.45297 36.1539 3.51431C36.7336 4.93184 37.3022 6.35307 37.8591 7.77978C38.0244 8.20327 38.1901 8.6266 38.3559 9.04993C38.4817 9.37146 38.6075 9.693 38.7333 10.0146C38.8146 10.2224 38.8959 10.4302 38.9772 10.638C39.0158 10.7366 39.0544 10.8353 39.0942 10.9369C39.3077 11.4827 39.5216 12.0283 39.7359 12.5737C39.8004 12.7379 39.8648 12.9022 39.929 13.0666C40.017 13.2917 40.1055 13.5168 40.194 13.7418C40.2196 13.8075 40.2452 13.8733 40.2716 13.941C40.3782 14.211 40.4839 14.4434 40.6453 14.686C41.7462 14.2504 42.8471 13.8148 43.9814 13.366C43.8232 12.8375 43.6754 12.3521 43.4711 11.8473C43.4487 11.7916 43.4264 11.736 43.4033 11.6786C43.333 11.5039 43.2622 11.3294 43.1913 11.155C43.0151 10.7189 42.8394 10.2826 42.6645 9.84599C42.6191 9.73292 42.6191 9.73292 42.5728 9.61756C42.4259 9.24132 42.3556 9.00618 42.4889 8.61397C42.6778 8.34759 42.7751 8.27306 43.098 8.21797C43.4479 8.27523 43.5546 8.35981 43.8058 8.61397C43.9682 8.91055 44.0902 9.22068 44.2136 9.53523C44.25 9.62599 44.2864 9.71674 44.3239 9.81025C44.4005 10.0023 44.4764 10.1946 44.5516 10.3872C44.6663 10.6794 44.7842 10.9701 44.9024 11.2609C44.9766 11.4483 45.0506 11.6357 45.1244 11.8233C45.1771 11.952 45.1771 11.952 45.2308 12.0834C45.4637 12.6903 45.5479 13.2442 45.4739 13.894C45.1586 14.6021 44.4065 14.8305 43.7276 15.0941C43.6551 15.1227 43.5825 15.1513 43.5078 15.1807C43.2781 15.2711 43.0481 15.3608 42.8182 15.4506C42.6625 15.5118 42.5068 15.573 42.3511 15.6343C40.7417 16.2667 40.7417 16.2667 40.1185 16.1821C39.9419 16.0663 39.7661 15.9492 39.5918 15.8301C39.1564 15.9413 38.7829 16.2336 38.4121 16.4791C38.3149 16.5427 38.3149 16.5427 38.2157 16.6076C37.8537 16.8451 37.4932 17.085 37.1336 17.3261C37.1475 17.4019 37.1614 17.4776 37.1758 17.5557C37.316 18.4732 37.2651 19.2632 36.7574 20.0538C36.3315 20.6067 35.7141 20.9399 35.0379 21.0864C34.6835 21.1314 34.3294 21.1233 33.973 21.1101C33.9581 21.1675 33.9432 21.2249 33.9278 21.2841C33.6911 22.1397 33.2767 22.7822 32.4895 23.2287C31.9528 23.4695 31.4774 23.496 30.9003 23.4862C30.8811 23.5606 30.8618 23.635 30.842 23.7117C30.6037 24.5663 30.3556 25.1414 29.5999 25.6312C28.8623 26.0361 28.2149 26.0904 27.3886 25.9502C27.3306 25.9212 27.2727 25.8921 27.213 25.8622C27.2076 26.0119 27.2076 26.0119 27.202 26.1647C27.1173 26.8312 26.6606 27.3758 26.1434 27.779C25.4731 28.2298 24.6601 28.2707 23.8769 28.1502C23.1602 27.9141 22.545 27.4556 21.9454 27.0062C21.9193 27.06 21.8931 27.1137 21.8662 27.1691C21.5635 27.763 21.049 28.1641 20.4324 28.4018C19.6716 28.6019 18.9726 28.4892 18.2869 28.1131C17.7104 27.7214 17.3923 27.2301 17.2046 26.5662C17.2046 26.45 17.2046 26.3339 17.2046 26.2142C17.1068 26.2215 17.0091 26.2287 16.9083 26.2362C16.2383 26.2338 15.6232 25.9392 15.1387 25.4834C14.7354 25.0167 14.6139 24.5305 14.5708 23.9262C14.5176 23.9313 14.4644 23.9364 14.4096 23.9416C13.781 23.9756 13.3312 23.8511 12.815 23.4862C12.423 23.1228 12.1041 22.769 11.937 22.2541C11.9261 21.9626 11.9261 21.9626 11.937 21.7261C11.8775 21.7249 11.818 21.7236 11.7567 21.7224C10.9905 21.683 10.3363 21.4907 9.7971 20.9176C9.31772 20.287 9.12191 19.6069 9.21547 18.8221C9.25635 18.6652 9.30107 18.5093 9.34956 18.3546C9.37366 18.2769 9.39775 18.1992 9.42258 18.1191C9.44115 18.0607 9.45972 18.0023 9.47885 17.9421C9.37368 17.8754 9.26851 17.8087 9.16334 17.742C9.06118 17.6772 9.06118 17.6772 8.95695 17.6111C8.80646 17.5158 8.65581 17.4208 8.505 17.326C8.13519 17.0934 7.76769 16.8587 7.40577 16.6138C7.34341 16.5725 7.28106 16.5311 7.21681 16.4885C7.09936 16.4104 6.98281 16.331 6.86735 16.25C6.68929 16.1275 6.68929 16.1275 6.4061 16.0061C6.14552 16.0673 6.14552 16.0673 5.87934 16.1821C5.29544 16.252 4.82481 16.1231 4.28775 15.9057C4.21454 15.8772 4.14133 15.8488 4.06589 15.8194C3.83401 15.7289 3.60291 15.6365 3.37176 15.5441C3.21639 15.4833 3.06098 15.4227 2.90553 15.3622C2.75534 15.3033 2.60519 15.2443 2.45508 15.1852C2.38629 15.1581 2.3175 15.1311 2.24662 15.1032C0.847776 14.5432 0.847776 14.5432 0.523979 13.894C0.425985 13.0565 0.639026 12.4208 0.96843 11.661C1.01662 11.5458 1.06458 11.4304 1.11234 11.315C1.21433 11.0687 1.31706 10.8226 1.42021 10.5768C1.65628 10.0113 1.87901 9.44056 2.10234 8.86992C2.18189 8.66687 2.26176 8.46395 2.34171 8.26106C2.67202 7.4226 3.00005 6.58327 3.32704 5.7435C3.45776 5.40791 3.5887 5.07241 3.71964 4.73691C3.8275 4.46048 3.93519 4.18399 4.0425 3.90736C4.16355 3.59552 4.2851 3.28388 4.40675 2.97228C4.46046 2.83332 4.46046 2.83332 4.51525 2.69155C5.1955 0.954526 5.1955 0.954526 5.9397 0.57287C6.60665 0.446731 7.29145 0.740509 7.90543 0.987438ZM6.3183 2.01389C6.27825 2.1167 6.23819 2.21951 6.19693 2.32544C5.48991 4.13982 4.7821 5.95388 4.06719 7.76516C3.97547 7.99763 3.88386 8.23014 3.79227 8.46265C3.51445 9.16753 3.23562 9.87196 2.95331 10.575C2.82772 10.888 2.70273 11.2012 2.57779 11.5145C2.51862 11.6624 2.45914 11.8101 2.39934 11.9578C2.31738 12.1601 2.23643 12.3629 2.15569 12.5658C2.13118 12.6255 2.10666 12.6853 2.0814 12.7469C1.94106 13.0929 1.94106 13.0929 2.01646 13.454C2.25979 13.5725 2.4969 13.6745 2.74864 13.7717C2.82214 13.8008 2.89565 13.8299 2.97139 13.8599C3.127 13.9214 3.2828 13.9823 3.43878 14.0428C3.67822 14.1357 3.9169 14.2305 4.15555 14.3254C4.30657 14.3848 4.45764 14.444 4.60875 14.5032C4.68054 14.5317 4.75233 14.5602 4.8263 14.5895C4.99981 14.6563 5.17602 14.7159 5.35258 14.774C5.60581 14.6471 5.61819 14.4931 5.71713 14.2292C5.75544 14.1283 5.79376 14.0274 5.83324 13.9235C5.85397 13.8681 5.8747 13.8127 5.89606 13.7556C6.01231 13.4453 6.13082 13.1359 6.24903 12.8263C6.27502 12.7581 6.30102 12.6899 6.3278 12.6197C6.63606 11.8124 6.954 11.009 7.27201 10.2055C7.37776 9.93833 7.48339 9.6711 7.58899 9.40385C7.92802 8.54607 8.26767 7.68853 8.6081 6.8313C8.76404 6.43852 8.91975 6.04566 9.07544 5.65278C9.15027 5.46414 9.22521 5.27554 9.30026 5.08699C9.4043 4.82563 9.50797 4.56414 9.61156 4.3026C9.64275 4.22453 9.67394 4.14646 9.70608 4.06602C9.73416 3.99493 9.76223 3.92385 9.79116 3.85061C9.82806 3.75775 9.82806 3.75775 9.86571 3.66301C9.92726 3.5091 9.92726 3.5091 9.91781 3.3339C9.44774 3.14534 8.97745 2.95736 8.50693 2.76993C8.34686 2.70607 8.18684 2.64205 8.0269 2.57786C7.79716 2.4857 7.5672 2.39411 7.33718 2.30264C7.26557 2.27377 7.19395 2.24489 7.12017 2.21515C7.02001 2.1755 7.02001 2.1755 6.91783 2.13506C6.85915 2.11161 6.80047 2.08816 6.74001 2.064C6.5675 2.00064 6.5675 2.00064 6.3183 2.01389ZM10.7957 5.00593C10.1986 6.46066 9.61419 7.9201 9.04055 9.3843C8.98432 9.52777 8.92808 9.67124 8.87184 9.8147C8.84347 9.88708 8.8151 9.95945 8.78587 10.034C8.59284 10.5255 8.39745 11.016 8.20079 11.506C8.06058 11.8555 7.92097 12.2052 7.78138 12.555C7.71341 12.7248 7.64515 12.8945 7.57659 13.0641C7.48107 13.3004 7.38656 13.5372 7.29226 13.7741C7.26334 13.8449 7.23442 13.9156 7.20463 13.9886C7.04108 14.3734 7.04108 14.3734 7.10844 14.774C7.24164 14.8838 7.24164 14.8838 7.41023 14.9776C7.47365 15.0155 7.53706 15.0534 7.6024 15.0924C7.67117 15.1326 7.73993 15.1727 7.81078 15.2141C7.9547 15.2998 8.09851 15.3857 8.2422 15.4719C8.35292 15.5382 8.35293 15.5382 8.46589 15.6058C8.88437 15.8617 9.29247 16.1339 9.6997 16.4072C9.75787 16.4457 9.81604 16.4841 9.87597 16.5238C9.9266 16.5577 9.97723 16.5916 10.0294 16.6266C10.195 16.7176 10.348 16.76 10.5324 16.7981C10.5867 16.7369 10.5867 16.7369 10.6421 16.6744C10.8093 16.4873 10.9781 16.3017 11.1469 16.1161C11.2038 16.0519 11.2608 15.9877 11.3194 15.9215C11.8816 15.3077 12.4321 14.994 13.2704 14.9281C14.0242 14.9776 14.5564 15.192 15.1051 15.7197C15.4654 16.145 15.6138 16.6087 15.7121 17.1501C15.814 17.163 15.814 17.163 15.9179 17.1762C16.7448 17.2952 17.3551 17.455 17.885 18.1305C18.1631 18.5451 18.2717 18.9515 18.3459 19.4381C18.4222 19.4478 18.4985 19.4574 18.5771 19.4673C19.518 19.5971 20.0464 19.7908 20.6395 20.5601C20.8041 20.8461 20.8041 20.8461 20.8412 21.0465C20.8862 21.2867 20.9236 21.439 21.0675 21.6381C21.3723 21.7425 21.6688 21.7888 21.9869 21.8379C22.5264 21.9498 22.8288 22.2549 23.202 22.6391C23.6122 23.2788 23.7018 23.8803 23.6135 24.6302C23.49 25.0786 23.3493 25.4593 22.9989 25.7742C23.1642 26.2711 23.6935 26.5111 24.1402 26.7422C24.5846 26.8469 24.9007 26.7946 25.3145 26.6102C25.6566 26.2835 25.867 25.975 25.9153 25.4954C25.8721 25.0582 25.6848 24.8314 25.3563 24.5468C25.0829 24.3239 24.8003 24.113 24.517 23.903C24.1559 23.6226 24.1559 23.6226 24.0795 23.3865C24.0958 23.1349 24.1145 22.9188 24.2335 22.6941C24.512 22.5501 24.7074 22.5714 25.0182 22.6061C25.2802 22.751 25.5022 22.9371 25.7315 23.1287C25.863 23.2337 25.9947 23.3385 26.1266 23.4432C26.1913 23.4952 26.256 23.5472 26.3227 23.6008C26.5887 23.8122 26.8597 24.0148 27.1362 24.2122C27.2215 24.2743 27.3068 24.3365 27.3948 24.4005C27.6941 24.5654 27.9269 24.61 28.2665 24.6302C28.7829 24.4785 29.0149 24.261 29.32 23.8382C29.4549 23.5678 29.4277 23.3451 29.4078 23.0462C29.2182 22.5058 28.8552 22.2584 28.4092 21.9351C28.2768 21.8369 28.1444 21.7385 28.012 21.6402C27.9497 21.5946 27.8874 21.5489 27.8232 21.5019C27.6776 21.3932 27.5363 21.2787 27.3961 21.1631C27.2283 21.0043 27.2283 21.0043 27.0374 21.0221C26.9065 20.6285 26.9065 20.2717 27.0374 19.8781C27.5088 19.8273 27.8838 19.811 28.2813 20.0943C28.4005 20.1908 28.5181 20.2893 28.6341 20.3896C28.7634 20.4943 28.8927 20.5989 29.022 20.7035C29.0862 20.7566 29.1504 20.8097 29.2166 20.8644C29.51 21.1064 29.8081 21.3411 30.1102 21.5721C30.1605 21.6131 30.2109 21.654 30.2628 21.6962C30.6545 21.9952 31.0217 22.0907 31.5148 22.0781C31.9684 21.9295 32.2159 21.6802 32.4806 21.2861C32.5924 20.9008 32.6081 20.5852 32.4254 20.2181C32.1375 19.826 31.7253 19.5505 31.3393 19.2621C31.2795 19.2174 31.2198 19.1726 31.1582 19.1265C31.0949 19.0791 31.0317 19.0318 30.9665 18.983C30.9029 18.9354 30.8393 18.8877 30.7738 18.8387C30.6472 18.7442 30.5202 18.6503 30.3928 18.5568C30.3346 18.5138 30.2764 18.4708 30.2165 18.4264C30.1642 18.3882 30.112 18.3499 30.0582 18.3104C29.9346 18.2061 29.9346 18.2061 29.8468 18.0301C29.8076 17.4902 29.8076 17.4902 29.9346 17.2436C30.222 17.0905 30.5 17.091 30.8125 17.1501C31.0896 17.2999 31.3196 17.496 31.5587 17.7001C31.6974 17.813 31.8362 17.9259 31.9751 18.0387C32.0445 18.096 32.114 18.1533 32.1855 18.2123C32.5021 18.4717 32.8248 18.7223 33.15 18.9706C33.2324 19.0356 33.2324 19.0356 33.3165 19.1018C33.7119 19.4041 34.1753 19.7227 34.6936 19.6898C35.1929 19.5987 35.4682 19.3338 35.7563 18.9211C35.8771 18.5469 35.8518 18.2238 35.7289 17.8541C35.3231 17.2439 34.6634 16.8223 34.0773 16.3966C33.9297 16.2885 33.7821 16.1805 33.6346 16.0724C33.5597 16.0177 33.4849 15.9631 33.4077 15.9068C33.1196 15.6957 32.8329 15.4828 32.5465 15.2695C32.4072 15.1664 32.2673 15.0641 32.1269 14.9625C31.7912 14.7196 31.4684 14.4734 31.1585 14.1979C30.1466 13.3336 29.2859 13.3795 27.9967 13.4476C26.0899 13.4954 24.1461 12.373 22.7356 11.166C22.6296 11.0595 22.5249 10.9517 22.4228 10.8415C22.3169 10.7408 22.3169 10.7408 22.2088 10.638C21.8497 10.652 21.6374 10.8984 21.3803 11.1275C20.1153 12.219 18.4268 13.201 16.7019 13.1271C15.949 13.0325 15.2911 12.819 14.6586 12.398C14.608 12.3656 14.5574 12.3331 14.5053 12.2997C14.1025 12.0077 13.9223 11.6302 13.7807 11.166C13.7226 10.6917 13.8065 10.2605 14.0441 9.84599C14.3681 9.47982 14.7322 9.22218 15.136 8.95498C16.0689 8.32386 16.9395 7.6277 17.7972 6.89795C17.8758 6.83134 17.8758 6.83134 17.956 6.76339C18.1815 6.56921 18.3556 6.39945 18.5215 6.14994C17.9465 5.93906 17.3795 5.87838 16.7711 5.84194C16.6799 5.83639 16.6799 5.83638 16.5867 5.83072C16.1255 5.80502 15.6643 5.79192 15.2025 5.78212C15.0786 5.77922 14.9547 5.7763 14.8308 5.77336C14.5853 5.76756 14.3399 5.76334 14.0943 5.75995C13.1149 5.73741 12.2592 5.5487 11.3444 5.20943C11.2399 5.17097 11.1353 5.13252 11.0276 5.0929C10.9511 5.0642 10.8746 5.0355 10.7957 5.00593ZM12.3884 16.7699C12.3028 16.8627 12.2182 16.9565 12.1346 17.0511C12.0897 17.1011 12.0448 17.1512 11.9985 17.2027C11.6858 17.5555 11.3808 17.9147 11.0866 18.2831C11.0156 18.3718 10.9446 18.4605 10.8715 18.5519C10.6854 18.8594 10.6382 19.0808 10.6202 19.4381C10.7294 19.7873 10.8683 19.9825 11.1689 20.1806C11.5068 20.3514 11.7467 20.3388 12.1126 20.2301C12.4381 19.9977 12.6783 19.7409 12.9247 19.4271C13.2575 19.0097 13.6058 18.6133 13.9697 18.2229C14.2583 17.8798 14.353 17.6105 14.3411 17.1528C14.2789 16.8223 14.1121 16.6739 13.8685 16.4461C13.2711 16.1324 12.862 16.3249 12.3884 16.7699ZM13.8685 20.4061C13.8143 20.4721 13.7601 20.5382 13.7042 20.6062C13.439 20.9389 13.2443 21.1941 13.2539 21.6381C13.4002 22.0454 13.5807 22.3006 13.9563 22.5181C14.3803 22.5721 14.6904 22.5767 15.0437 22.3047C15.3074 22.0468 15.5329 21.7588 15.7605 21.469C15.909 21.2819 16.0581 21.101 16.2152 20.9218C16.2747 20.8532 16.2747 20.8532 16.3353 20.7832C16.4471 20.6548 16.5595 20.527 16.672 20.3992C16.8766 20.1093 16.9619 19.8738 17.029 19.5261C16.9249 19.1414 16.8196 18.9569 16.5187 18.6956C15.3576 18.1251 14.4893 19.6224 13.8685 20.4061ZM17.446 21.5556C17.1165 21.9727 16.7718 22.3678 16.4097 22.7567C16.0802 23.1454 15.928 23.4258 15.9508 23.9327C15.9888 24.1935 16.0681 24.3425 16.2389 24.5422C16.6003 24.7949 16.8671 24.8313 17.29 24.7897C17.5602 24.6811 17.7107 24.4908 17.907 24.2782C18.011 24.1674 18.011 24.1674 18.1172 24.0544C19.1806 23.0337 19.1806 23.0337 19.6573 21.7316C19.5996 21.3535 19.4339 21.1744 19.1361 20.9341C18.4241 20.5773 17.8724 21.0055 17.446 21.5556ZM20.4529 23.3982C20.2823 23.5738 20.1318 23.741 19.9811 23.9317C19.9201 24.0063 19.9201 24.0063 19.858 24.0825C19.7746 24.1848 19.6917 24.2875 19.6091 24.3905C19.4916 24.5368 19.3725 24.6817 19.2527 24.8261C18.6863 25.4738 18.6863 25.4738 18.6093 26.3022C18.7787 26.6554 18.9159 26.8032 19.2513 27.0062C19.6562 27.1163 19.81 27.0984 20.1896 26.9182C20.6947 26.5086 21.0938 25.9821 21.4962 25.4748C21.6532 25.2817 21.8166 25.1057 21.9893 24.9272C22.2319 24.6454 22.2942 24.3898 22.3117 24.021C22.2827 23.67 22.1194 23.4845 21.8796 23.2442C21.331 22.9387 20.938 23.0486 20.4529 23.3982Z"/>
</mask>
<path d="M7.90543 0.987438C7.97699 1.01565 8.04855 1.04387 8.12227 1.07294C8.27202 1.13219 8.42162 1.19181 8.57108 1.25178C8.79874 1.343 9.02695 1.43273 9.25525 1.52232C9.4016 1.58044 9.54793 1.63865 9.69421 1.69695C9.76171 1.72345 9.82921 1.74996 9.89876 1.77726C10.5054 2.02244 11.023 2.28189 11.3225 2.8939C11.3495 3.16088 11.3438 3.4187 11.3225 3.68591C11.5059 3.74718 11.6893 3.80822 11.873 3.8684C12.0309 3.92211 12.1877 3.97926 12.343 4.04002C13.0536 4.30711 13.696 4.35296 14.4501 4.35692C14.6913 4.36118 14.9325 4.36681 15.1737 4.37239C15.2339 4.37364 15.2941 4.3749 15.3561 4.37619C15.9369 4.38897 16.5155 4.41943 17.0949 4.46142C17.1879 4.46775 17.281 4.47408 17.3769 4.4806C17.8954 4.52232 18.3685 4.6103 18.8681 4.75337C19.3457 4.89279 19.3457 4.89279 19.8384 4.91792C20.1764 4.72113 20.3934 4.50468 20.6474 4.21254C21.0565 3.74294 21.6906 3.45613 22.2966 3.3339C23.18 3.28 24.0281 3.38363 24.8975 3.53191C25.0158 3.55018 25.1341 3.5684 25.2524 3.58656C25.3646 3.60528 25.4767 3.624 25.5923 3.64328C25.6929 3.65987 25.7936 3.67646 25.8973 3.69356C26.1933 3.78427 26.3186 3.88613 26.5107 4.12591C26.5795 4.36976 26.566 4.58349 26.5107 4.82992C26.3515 5.05543 26.3515 5.05543 26.0717 5.18193C25.5429 5.21132 25.0111 5.07837 24.4912 4.99239C23.1909 4.72639 23.1909 4.72639 21.9478 5.04752C21.6371 5.28217 21.3734 5.56104 21.1045 5.84194C20.878 6.07635 20.6402 6.28707 20.3929 6.49885C20.1748 6.69095 19.9632 6.889 19.7516 7.08826C19.1843 7.62206 18.6064 8.13118 17.9947 8.61397C17.9359 8.66085 17.877 8.70773 17.8163 8.75603C17.0818 9.34017 16.353 9.91266 15.553 10.4049C15.3513 10.5573 15.275 10.6683 15.1854 10.902C15.62 11.4428 16.2203 11.6477 16.8973 11.7325C18.4916 11.5328 19.7615 10.6645 20.9467 9.63402C21.4019 9.24272 21.7314 9.19779 22.3161 9.20626C22.9418 9.26712 23.2762 9.67635 23.6889 10.1035C24.7854 11.1685 26.5146 12.0486 28.0632 12.0453C28.1806 12.0415 28.298 12.0372 28.4153 12.0323C28.475 12.0298 28.5346 12.0273 28.596 12.0248C28.6866 12.0209 28.6866 12.0209 28.779 12.017C29.9948 11.9661 30.8302 12.007 31.771 12.8576C31.829 12.9125 31.887 12.9675 31.9467 13.024C32.2674 13.3155 32.6228 13.5594 32.9744 13.8115C33.1137 13.9141 33.2529 14.017 33.3918 14.1202C33.4593 14.1704 33.5269 14.2206 33.5965 14.2723C33.8549 14.4648 34.1122 14.6587 34.3693 14.8529C34.5962 15.024 34.8239 15.1941 35.0515 15.3643C35.1918 15.4703 35.3305 15.5784 35.4689 15.6867C35.5457 15.7449 35.6224 15.8031 35.7015 15.8631C35.7652 15.9127 35.8289 15.9624 35.8945 16.0136C36.0798 16.1181 36.0798 16.1181 36.2787 16.031C36.7042 15.8311 37.0905 15.5675 37.4851 15.3129C37.6388 15.2138 37.7931 15.1156 37.9474 15.0174C38.0441 14.9553 38.1409 14.8931 38.2406 14.829C38.3293 14.7721 38.418 14.7152 38.5094 14.6565C38.7217 14.5285 38.7217 14.5285 38.8016 14.334C38.7381 14.1113 38.7381 14.1113 38.6322 13.8531C38.5921 13.7501 38.552 13.6471 38.5107 13.541C38.465 13.4258 38.4193 13.3107 38.3737 13.1955C38.3263 13.0748 38.2791 12.9541 38.2318 12.8334C38.1001 12.4971 37.9675 12.1611 37.8347 11.8252C37.7148 11.5216 37.5954 11.2177 37.4761 10.9138C36.9629 9.60769 36.4491 8.30184 35.9261 6.9997C35.901 6.93707 35.8758 6.87444 35.8499 6.80991C35.734 6.52099 35.6177 6.2322 35.5008 5.94367C35.461 5.84464 35.4212 5.74562 35.3801 5.64359C35.3455 5.55799 35.3109 5.4724 35.2752 5.38421C35.2021 5.18193 35.2021 5.18193 35.2021 5.00593C35.1023 5.04631 35.0025 5.08669 34.8997 5.1283C34.4757 5.2982 34.0495 5.46152 33.6219 5.62193C33.5173 5.6613 33.4127 5.70066 33.305 5.74122C32.0723 6.15064 30.8072 6.02763 29.545 5.82544C29.4592 5.81239 29.3734 5.79935 29.2851 5.7859C28.7939 5.69753 28.4838 5.60867 28.1787 5.18193C28.1659 4.81681 28.2125 4.63805 28.4311 4.34592C28.9215 4.10997 29.4179 4.25791 29.9383 4.34832C31.5279 4.61949 32.6123 4.41086 34.1132 3.84853C34.2996 3.7826 34.4828 3.73001 34.6754 3.68591C34.6713 3.63486 34.6672 3.58381 34.663 3.53122C34.6401 3.03398 34.6789 2.74923 35.0266 2.36589C35.4711 2.04127 35.9467 1.81617 36.458 1.6196C36.5251 1.5933 36.5921 1.56699 36.6612 1.53989C36.802 1.4849 36.9429 1.43027 37.084 1.37599C37.2975 1.29366 37.5103 1.20982 37.7231 1.1258C39.594 0.394629 39.594 0.394629 40.3041 0.666371C40.7798 0.998074 41.0025 1.46362 41.2019 1.98879C41.24 2.08552 41.24 2.08552 41.2789 2.18421C41.3594 2.38925 41.4386 2.59479 41.5177 2.8004C41.5704 2.93524 41.6232 3.07005 41.676 3.20483C41.7544 3.40489 41.8326 3.60504 41.9099 3.80557C42.0332 4.1255 42.1592 4.44348 42.2939 4.75881C42.3308 4.8466 42.3308 4.8466 42.3684 4.93616C42.4351 5.09392 42.5031 5.25114 42.5711 5.40831C42.684 5.77279 42.6903 6.03379 42.6645 6.41394C42.5328 6.63395 42.5328 6.63395 42.3134 6.76595C42.058 6.81076 41.876 6.79546 41.611 6.76595C41.3681 6.58002 41.2754 6.36941 41.1646 6.08841C41.1312 6.00471 41.0979 5.92102 41.0635 5.83478C41.0283 5.74458 40.9932 5.65437 40.957 5.56143C40.9204 5.46868 40.8837 5.37592 40.846 5.28035C40.7687 5.0843 40.6917 4.88812 40.6151 4.69182C40.4975 4.39077 40.3787 4.09023 40.2597 3.78972C40.1848 3.59931 40.1099 3.40887 40.0352 3.2184C39.9817 3.0831 39.9817 3.0831 39.9271 2.94505C39.8783 2.81951 39.8783 2.81951 39.8285 2.69143C39.7997 2.61777 39.7708 2.54411 39.7411 2.46822C39.6796 2.27789 39.6796 2.27789 39.6796 2.01389C39.3032 2.1593 38.9268 2.30486 38.5505 2.45056C38.4228 2.50002 38.295 2.54943 38.1671 2.59881C37.9825 2.67014 37.7979 2.74161 37.6134 2.81312C37.557 2.83485 37.5006 2.85659 37.4426 2.87898C37.1673 2.98578 36.8956 3.09719 36.6262 3.21795C36.3434 3.3339 36.3434 3.3339 36.0801 3.3339C36.1044 3.39344 36.1288 3.45297 36.1539 3.51431C36.7336 4.93184 37.3022 6.35307 37.8591 7.77978C38.0244 8.20327 38.1901 8.6266 38.3559 9.04993C38.4817 9.37146 38.6075 9.693 38.7333 10.0146C38.8146 10.2224 38.8959 10.4302 38.9772 10.638C39.0158 10.7366 39.0544 10.8353 39.0942 10.9369C39.3077 11.4827 39.5216 12.0283 39.7359 12.5737C39.8004 12.7379 39.8648 12.9022 39.929 13.0666C40.017 13.2917 40.1055 13.5168 40.194 13.7418C40.2196 13.8075 40.2452 13.8733 40.2716 13.941C40.3782 14.211 40.4839 14.4434 40.6453 14.686C41.7462 14.2504 42.8471 13.8148 43.9814 13.366C43.8232 12.8375 43.6754 12.3521 43.4711 11.8473C43.4487 11.7916 43.4264 11.736 43.4033 11.6786C43.333 11.5039 43.2622 11.3294 43.1913 11.155C43.0151 10.7189 42.8394 10.2826 42.6645 9.84599C42.6191 9.73292 42.6191 9.73292 42.5728 9.61756C42.4259 9.24132 42.3556 9.00618 42.4889 8.61397C42.6778 8.34759 42.7751 8.27306 43.098 8.21797C43.4479 8.27523 43.5546 8.35981 43.8058 8.61397C43.9682 8.91055 44.0902 9.22068 44.2136 9.53523C44.25 9.62599 44.2864 9.71674 44.3239 9.81025C44.4005 10.0023 44.4764 10.1946 44.5516 10.3872C44.6663 10.6794 44.7842 10.9701 44.9024 11.2609C44.9766 11.4483 45.0506 11.6357 45.1244 11.8233C45.1771 11.952 45.1771 11.952 45.2308 12.0834C45.4637 12.6903 45.5479 13.2442 45.4739 13.894C45.1586 14.6021 44.4065 14.8305 43.7276 15.0941C43.6551 15.1227 43.5825 15.1513 43.5078 15.1807C43.2781 15.2711 43.0481 15.3608 42.8182 15.4506C42.6625 15.5118 42.5068 15.573 42.3511 15.6343C40.7417 16.2667 40.7417 16.2667 40.1185 16.1821C39.9419 16.0663 39.7661 15.9492 39.5918 15.8301C39.1564 15.9413 38.7829 16.2336 38.4121 16.4791C38.3149 16.5427 38.3149 16.5427 38.2157 16.6076C37.8537 16.8451 37.4932 17.085 37.1336 17.3261C37.1475 17.4019 37.1614 17.4776 37.1758 17.5557C37.316 18.4732 37.2651 19.2632 36.7574 20.0538C36.3315 20.6067 35.7141 20.9399 35.0379 21.0864C34.6835 21.1314 34.3294 21.1233 33.973 21.1101C33.9581 21.1675 33.9432 21.2249 33.9278 21.2841C33.6911 22.1397 33.2767 22.7822 32.4895 23.2287C31.9528 23.4695 31.4774 23.496 30.9003 23.4862C30.8811 23.5606 30.8618 23.635 30.842 23.7117C30.6037 24.5663 30.3556 25.1414 29.5999 25.6312C28.8623 26.0361 28.2149 26.0904 27.3886 25.9502C27.3306 25.9212 27.2727 25.8921 27.213 25.8622C27.2076 26.0119 27.2076 26.0119 27.202 26.1647C27.1173 26.8312 26.6606 27.3758 26.1434 27.779C25.4731 28.2298 24.6601 28.2707 23.8769 28.1502C23.1602 27.9141 22.545 27.4556 21.9454 27.0062C21.9193 27.06 21.8931 27.1137 21.8662 27.1691C21.5635 27.763 21.049 28.1641 20.4324 28.4018C19.6716 28.6019 18.9726 28.4892 18.2869 28.1131C17.7104 27.7214 17.3923 27.2301 17.2046 26.5662C17.2046 26.45 17.2046 26.3339 17.2046 26.2142C17.1068 26.2215 17.0091 26.2287 16.9083 26.2362C16.2383 26.2338 15.6232 25.9392 15.1387 25.4834C14.7354 25.0167 14.6139 24.5305 14.5708 23.9262C14.5176 23.9313 14.4644 23.9364 14.4096 23.9416C13.781 23.9756 13.3312 23.8511 12.815 23.4862C12.423 23.1228 12.1041 22.769 11.937 22.2541C11.9261 21.9626 11.9261 21.9626 11.937 21.7261C11.8775 21.7249 11.818 21.7236 11.7567 21.7224C10.9905 21.683 10.3363 21.4907 9.7971 20.9176C9.31772 20.287 9.12191 19.6069 9.21547 18.8221C9.25635 18.6652 9.30107 18.5093 9.34956 18.3546C9.37366 18.2769 9.39775 18.1992 9.42258 18.1191C9.44115 18.0607 9.45972 18.0023 9.47885 17.9421C9.37368 17.8754 9.26851 17.8087 9.16334 17.742C9.06118 17.6772 9.06118 17.6772 8.95695 17.6111C8.80646 17.5158 8.65581 17.4208 8.505 17.326C8.13519 17.0934 7.76769 16.8587 7.40577 16.6138C7.34341 16.5725 7.28106 16.5311 7.21681 16.4885C7.09936 16.4104 6.98281 16.331 6.86735 16.25C6.68929 16.1275 6.68929 16.1275 6.4061 16.0061C6.14552 16.0673 6.14552 16.0673 5.87934 16.1821C5.29544 16.252 4.82481 16.1231 4.28775 15.9057C4.21454 15.8772 4.14133 15.8488 4.06589 15.8194C3.83401 15.7289 3.60291 15.6365 3.37176 15.5441C3.21639 15.4833 3.06098 15.4227 2.90553 15.3622C2.75534 15.3033 2.60519 15.2443 2.45508 15.1852C2.38629 15.1581 2.3175 15.1311 2.24662 15.1032C0.847776 14.5432 0.847776 14.5432 0.523979 13.894C0.425985 13.0565 0.639026 12.4208 0.96843 11.661C1.01662 11.5458 1.06458 11.4304 1.11234 11.315C1.21433 11.0687 1.31706 10.8226 1.42021 10.5768C1.65628 10.0113 1.87901 9.44056 2.10234 8.86992C2.18189 8.66687 2.26176 8.46395 2.34171 8.26106C2.67202 7.4226 3.00005 6.58327 3.32704 5.7435C3.45776 5.40791 3.5887 5.07241 3.71964 4.73691C3.8275 4.46048 3.93519 4.18399 4.0425 3.90736C4.16355 3.59552 4.2851 3.28388 4.40675 2.97228C4.46046 2.83332 4.46046 2.83332 4.51525 2.69155C5.1955 0.954526 5.1955 0.954526 5.9397 0.57287C6.60665 0.446731 7.29145 0.740509 7.90543 0.987438ZM6.3183 2.01389C6.27825 2.1167 6.23819 2.21951 6.19693 2.32544C5.48991 4.13982 4.7821 5.95388 4.06719 7.76516C3.97547 7.99763 3.88386 8.23014 3.79227 8.46265C3.51445 9.16753 3.23562 9.87196 2.95331 10.575C2.82772 10.888 2.70273 11.2012 2.57779 11.5145C2.51862 11.6624 2.45914 11.8101 2.39934 11.9578C2.31738 12.1601 2.23643 12.3629 2.15569 12.5658C2.13118 12.6255 2.10666 12.6853 2.0814 12.7469C1.94106 13.0929 1.94106 13.0929 2.01646 13.454C2.25979 13.5725 2.4969 13.6745 2.74864 13.7717C2.82214 13.8008 2.89565 13.8299 2.97139 13.8599C3.127 13.9214 3.2828 13.9823 3.43878 14.0428C3.67822 14.1357 3.9169 14.2305 4.15555 14.3254C4.30657 14.3848 4.45764 14.444 4.60875 14.5032C4.68054 14.5317 4.75233 14.5602 4.8263 14.5895C4.99981 14.6563 5.17602 14.7159 5.35258 14.774C5.60581 14.6471 5.61819 14.4931 5.71713 14.2292C5.75544 14.1283 5.79376 14.0274 5.83324 13.9235C5.85397 13.8681 5.8747 13.8127 5.89606 13.7556C6.01231 13.4453 6.13082 13.1359 6.24903 12.8263C6.27502 12.7581 6.30102 12.6899 6.3278 12.6197C6.63606 11.8124 6.954 11.009 7.27201 10.2055C7.37776 9.93833 7.48339 9.6711 7.58899 9.40385C7.92802 8.54607 8.26767 7.68853 8.6081 6.8313C8.76404 6.43852 8.91975 6.04566 9.07544 5.65278C9.15027 5.46414 9.22521 5.27554 9.30026 5.08699C9.4043 4.82563 9.50797 4.56414 9.61156 4.3026C9.64275 4.22453 9.67394 4.14646 9.70608 4.06602C9.73416 3.99493 9.76223 3.92385 9.79116 3.85061C9.82806 3.75775 9.82806 3.75775 9.86571 3.66301C9.92726 3.5091 9.92726 3.5091 9.91781 3.3339C9.44774 3.14534 8.97745 2.95736 8.50693 2.76993C8.34686 2.70607 8.18684 2.64205 8.0269 2.57786C7.79716 2.4857 7.5672 2.39411 7.33718 2.30264C7.26557 2.27377 7.19395 2.24489 7.12017 2.21515C7.02001 2.1755 7.02001 2.1755 6.91783 2.13506C6.85915 2.11161 6.80047 2.08816 6.74001 2.064C6.5675 2.00064 6.5675 2.00064 6.3183 2.01389ZM10.7957 5.00593C10.1986 6.46066 9.61419 7.9201 9.04055 9.3843C8.98432 9.52777 8.92808 9.67124 8.87184 9.8147C8.84347 9.88708 8.8151 9.95945 8.78587 10.034C8.59284 10.5255 8.39745 11.016 8.20079 11.506C8.06058 11.8555 7.92097 12.2052 7.78138 12.555C7.71341 12.7248 7.64515 12.8945 7.57659 13.0641C7.48107 13.3004 7.38656 13.5372 7.29226 13.7741C7.26334 13.8449 7.23442 13.9156 7.20463 13.9886C7.04108 14.3734 7.04108 14.3734 7.10844 14.774C7.24164 14.8838 7.24164 14.8838 7.41023 14.9776C7.47365 15.0155 7.53706 15.0534 7.6024 15.0924C7.67117 15.1326 7.73993 15.1727 7.81078 15.2141C7.9547 15.2998 8.09851 15.3857 8.2422 15.4719C8.35292 15.5382 8.35293 15.5382 8.46589 15.6058C8.88437 15.8617 9.29247 16.1339 9.6997 16.4072C9.75787 16.4457 9.81604 16.4841 9.87597 16.5238C9.9266 16.5577 9.97723 16.5916 10.0294 16.6266C10.195 16.7176 10.348 16.76 10.5324 16.7981C10.5867 16.7369 10.5867 16.7369 10.6421 16.6744C10.8093 16.4873 10.9781 16.3017 11.1469 16.1161C11.2038 16.0519 11.2608 15.9877 11.3194 15.9215C11.8816 15.3077 12.4321 14.994 13.2704 14.9281C14.0242 14.9776 14.5564 15.192 15.1051 15.7197C15.4654 16.145 15.6138 16.6087 15.7121 17.1501C15.814 17.163 15.814 17.163 15.9179 17.1762C16.7448 17.2952 17.3551 17.455 17.885 18.1305C18.1631 18.5451 18.2717 18.9515 18.3459 19.4381C18.4222 19.4478 18.4985 19.4574 18.5771 19.4673C19.518 19.5971 20.0464 19.7908 20.6395 20.5601C20.8041 20.8461 20.8041 20.8461 20.8412 21.0465C20.8862 21.2867 20.9236 21.439 21.0675 21.6381C21.3723 21.7425 21.6688 21.7888 21.9869 21.8379C22.5264 21.9498 22.8288 22.2549 23.202 22.6391C23.6122 23.2788 23.7018 23.8803 23.6135 24.6302C23.49 25.0786 23.3493 25.4593 22.9989 25.7742C23.1642 26.2711 23.6935 26.5111 24.1402 26.7422C24.5846 26.8469 24.9007 26.7946 25.3145 26.6102C25.6566 26.2835 25.867 25.975 25.9153 25.4954C25.8721 25.0582 25.6848 24.8314 25.3563 24.5468C25.0829 24.3239 24.8003 24.113 24.517 23.903C24.1559 23.6226 24.1559 23.6226 24.0795 23.3865C24.0958 23.1349 24.1145 22.9188 24.2335 22.6941C24.512 22.5501 24.7074 22.5714 25.0182 22.6061C25.2802 22.751 25.5022 22.9371 25.7315 23.1287C25.863 23.2337 25.9947 23.3385 26.1266 23.4432C26.1913 23.4952 26.256 23.5472 26.3227 23.6008C26.5887 23.8122 26.8597 24.0148 27.1362 24.2122C27.2215 24.2743 27.3068 24.3365 27.3948 24.4005C27.6941 24.5654 27.9269 24.61 28.2665 24.6302C28.7829 24.4785 29.0149 24.261 29.32 23.8382C29.4549 23.5678 29.4277 23.3451 29.4078 23.0462C29.2182 22.5058 28.8552 22.2584 28.4092 21.9351C28.2768 21.8369 28.1444 21.7385 28.012 21.6402C27.9497 21.5946 27.8874 21.5489 27.8232 21.5019C27.6776 21.3932 27.5363 21.2787 27.3961 21.1631C27.2283 21.0043 27.2283 21.0043 27.0374 21.0221C26.9065 20.6285 26.9065 20.2717 27.0374 19.8781C27.5088 19.8273 27.8838 19.811 28.2813 20.0943C28.4005 20.1908 28.5181 20.2893 28.6341 20.3896C28.7634 20.4943 28.8927 20.5989 29.022 20.7035C29.0862 20.7566 29.1504 20.8097 29.2166 20.8644C29.51 21.1064 29.8081 21.3411 30.1102 21.5721C30.1605 21.6131 30.2109 21.654 30.2628 21.6962C30.6545 21.9952 31.0217 22.0907 31.5148 22.0781C31.9684 21.9295 32.2159 21.6802 32.4806 21.2861C32.5924 20.9008 32.6081 20.5852 32.4254 20.2181C32.1375 19.826 31.7253 19.5505 31.3393 19.2621C31.2795 19.2174 31.2198 19.1726 31.1582 19.1265C31.0949 19.0791 31.0317 19.0318 30.9665 18.983C30.9029 18.9354 30.8393 18.8877 30.7738 18.8387C30.6472 18.7442 30.5202 18.6503 30.3928 18.5568C30.3346 18.5138 30.2764 18.4708 30.2165 18.4264C30.1642 18.3882 30.112 18.3499 30.0582 18.3104C29.9346 18.2061 29.9346 18.2061 29.8468 18.0301C29.8076 17.4902 29.8076 17.4902 29.9346 17.2436C30.222 17.0905 30.5 17.091 30.8125 17.1501C31.0896 17.2999 31.3196 17.496 31.5587 17.7001C31.6974 17.813 31.8362 17.9259 31.9751 18.0387C32.0445 18.096 32.114 18.1533 32.1855 18.2123C32.5021 18.4717 32.8248 18.7223 33.15 18.9706C33.2324 19.0356 33.2324 19.0356 33.3165 19.1018C33.7119 19.4041 34.1753 19.7227 34.6936 19.6898C35.1929 19.5987 35.4682 19.3338 35.7563 18.9211C35.8771 18.5469 35.8518 18.2238 35.7289 17.8541C35.3231 17.2439 34.6634 16.8223 34.0773 16.3966C33.9297 16.2885 33.7821 16.1805 33.6346 16.0724C33.5597 16.0177 33.4849 15.9631 33.4077 15.9068C33.1196 15.6957 32.8329 15.4828 32.5465 15.2695C32.4072 15.1664 32.2673 15.0641 32.1269 14.9625C31.7912 14.7196 31.4684 14.4734 31.1585 14.1979C30.1466 13.3336 29.2859 13.3795 27.9967 13.4476C26.0899 13.4954 24.1461 12.373 22.7356 11.166C22.6296 11.0595 22.5249 10.9517 22.4228 10.8415C22.3169 10.7408 22.3169 10.7408 22.2088 10.638C21.8497 10.652 21.6374 10.8984 21.3803 11.1275C20.1153 12.219 18.4268 13.201 16.7019 13.1271C15.949 13.0325 15.2911 12.819 14.6586 12.398C14.608 12.3656 14.5574 12.3331 14.5053 12.2997C14.1025 12.0077 13.9223 11.6302 13.7807 11.166C13.7226 10.6917 13.8065 10.2605 14.0441 9.84599C14.3681 9.47982 14.7322 9.22218 15.136 8.95498C16.0689 8.32386 16.9395 7.6277 17.7972 6.89795C17.8758 6.83134 17.8758 6.83134 17.956 6.76339C18.1815 6.56921 18.3556 6.39945 18.5215 6.14994C17.9465 5.93906 17.3795 5.87838 16.7711 5.84194C16.6799 5.83639 16.6799 5.83638 16.5867 5.83072C16.1255 5.80502 15.6643 5.79192 15.2025 5.78212C15.0786 5.77922 14.9547 5.7763 14.8308 5.77336C14.5853 5.76756 14.3399 5.76334 14.0943 5.75995C13.1149 5.73741 12.2592 5.5487 11.3444 5.20943C11.2399 5.17097 11.1353 5.13252 11.0276 5.0929C10.9511 5.0642 10.8746 5.0355 10.7957 5.00593ZM12.3884 16.7699C12.3028 16.8627 12.2182 16.9565 12.1346 17.0511C12.0897 17.1011 12.0448 17.1512 11.9985 17.2027C11.6858 17.5555 11.3808 17.9147 11.0866 18.2831C11.0156 18.3718 10.9446 18.4605 10.8715 18.5519C10.6854 18.8594 10.6382 19.0808 10.6202 19.4381C10.7294 19.7873 10.8683 19.9825 11.1689 20.1806C11.5068 20.3514 11.7467 20.3388 12.1126 20.2301C12.4381 19.9977 12.6783 19.7409 12.9247 19.4271C13.2575 19.0097 13.6058 18.6133 13.9697 18.2229C14.2583 17.8798 14.353 17.6105 14.3411 17.1528C14.2789 16.8223 14.1121 16.6739 13.8685 16.4461C13.2711 16.1324 12.862 16.3249 12.3884 16.7699ZM13.8685 20.4061C13.8143 20.4721 13.7601 20.5382 13.7042 20.6062C13.439 20.9389 13.2443 21.1941 13.2539 21.6381C13.4002 22.0454 13.5807 22.3006 13.9563 22.5181C14.3803 22.5721 14.6904 22.5767 15.0437 22.3047C15.3074 22.0468 15.5329 21.7588 15.7605 21.469C15.909 21.2819 16.0581 21.101 16.2152 20.9218C16.2747 20.8532 16.2747 20.8532 16.3353 20.7832C16.4471 20.6548 16.5595 20.527 16.672 20.3992C16.8766 20.1093 16.9619 19.8738 17.029 19.5261C16.9249 19.1414 16.8196 18.9569 16.5187 18.6956C15.3576 18.1251 14.4893 19.6224 13.8685 20.4061ZM17.446 21.5556C17.1165 21.9727 16.7718 22.3678 16.4097 22.7567C16.0802 23.1454 15.928 23.4258 15.9508 23.9327C15.9888 24.1935 16.0681 24.3425 16.2389 24.5422C16.6003 24.7949 16.8671 24.8313 17.29 24.7897C17.5602 24.6811 17.7107 24.4908 17.907 24.2782C18.011 24.1674 18.011 24.1674 18.1172 24.0544C19.1806 23.0337 19.1806 23.0337 19.6573 21.7316C19.5996 21.3535 19.4339 21.1744 19.1361 20.9341C18.4241 20.5773 17.8724 21.0055 17.446 21.5556ZM20.4529 23.3982C20.2823 23.5738 20.1318 23.741 19.9811 23.9317C19.9201 24.0063 19.9201 24.0063 19.858 24.0825C19.7746 24.1848 19.6917 24.2875 19.6091 24.3905C19.4916 24.5368 19.3725 24.6817 19.2527 24.8261C18.6863 25.4738 18.6863 25.4738 18.6093 26.3022C18.7787 26.6554 18.9159 26.8032 19.2513 27.0062C19.6562 27.1163 19.81 27.0984 20.1896 26.9182C20.6947 26.5086 21.0938 25.9821 21.4962 25.4748C21.6532 25.2817 21.8166 25.1057 21.9893 24.9272C22.2319 24.6454 22.2942 24.3898 22.3117 24.021C22.2827 23.67 22.1194 23.4845 21.8796 23.2442C21.331 22.9387 20.938 23.0486 20.4529 23.3982Z" fill="#F0EDE6"/>
<path d="M7.90543 0.987438C7.97699 1.01565 8.04855 1.04387 8.12227 1.07294C8.27202 1.13219 8.42162 1.19181 8.57108 1.25178C8.79874 1.343 9.02695 1.43273 9.25525 1.52232C9.4016 1.58044 9.54793 1.63865 9.69421 1.69695C9.76171 1.72345 9.82921 1.74996 9.89876 1.77726C10.5054 2.02244 11.023 2.28189 11.3225 2.8939C11.3495 3.16088 11.3438 3.4187 11.3225 3.68591C11.5059 3.74718 11.6893 3.80822 11.873 3.8684C12.0309 3.92211 12.1877 3.97926 12.343 4.04002C13.0536 4.30711 13.696 4.35296 14.4501 4.35692C14.6913 4.36118 14.9325 4.36681 15.1737 4.37239C15.2339 4.37364 15.2941 4.3749 15.3561 4.37619C15.9369 4.38897 16.5155 4.41943 17.0949 4.46142C17.1879 4.46775 17.281 4.47408 17.3769 4.4806C17.8954 4.52232 18.3685 4.6103 18.8681 4.75337C19.3457 4.89279 19.3457 4.89279 19.8384 4.91792C20.1764 4.72113 20.3934 4.50468 20.6474 4.21254C21.0565 3.74294 21.6906 3.45613 22.2966 3.3339C23.18 3.28 24.0281 3.38363 24.8975 3.53191C25.0158 3.55018 25.1341 3.5684 25.2524 3.58656C25.3646 3.60528 25.4767 3.624 25.5923 3.64328C25.6929 3.65987 25.7936 3.67646 25.8973 3.69356C26.1933 3.78427 26.3186 3.88613 26.5107 4.12591C26.5795 4.36976 26.566 4.58349 26.5107 4.82992C26.3515 5.05543 26.3515 5.05543 26.0717 5.18193C25.5429 5.21132 25.0111 5.07837 24.4912 4.99239C23.1909 4.72639 23.1909 4.72639 21.9478 5.04752C21.6371 5.28217 21.3734 5.56104 21.1045 5.84194C20.878 6.07635 20.6402 6.28707 20.3929 6.49885C20.1748 6.69095 19.9632 6.889 19.7516 7.08826C19.1843 7.62206 18.6064 8.13118 17.9947 8.61397C17.9359 8.66085 17.877 8.70773 17.8163 8.75603C17.0818 9.34017 16.353 9.91266 15.553 10.4049C15.3513 10.5573 15.275 10.6683 15.1854 10.902C15.62 11.4428 16.2203 11.6477 16.8973 11.7325C18.4916 11.5328 19.7615 10.6645 20.9467 9.63402C21.4019 9.24272 21.7314 9.19779 22.3161 9.20626C22.9418 9.26712 23.2762 9.67635 23.6889 10.1035C24.7854 11.1685 26.5146 12.0486 28.0632 12.0453C28.1806 12.0415 28.298 12.0372 28.4153 12.0323C28.475 12.0298 28.5346 12.0273 28.596 12.0248C28.6866 12.0209 28.6866 12.0209 28.779 12.017C29.9948 11.9661 30.8302 12.007 31.771 12.8576C31.829 12.9125 31.887 12.9675 31.9467 13.024C32.2674 13.3155 32.6228 13.5594 32.9744 13.8115C33.1137 13.9141 33.2529 14.017 33.3918 14.1202C33.4593 14.1704 33.5269 14.2206 33.5965 14.2723C33.8549 14.4648 34.1122 14.6587 34.3693 14.8529C34.5962 15.024 34.8239 15.1941 35.0515 15.3643C35.1918 15.4703 35.3305 15.5784 35.4689 15.6867C35.5457 15.7449 35.6224 15.8031 35.7015 15.8631C35.7652 15.9127 35.8289 15.9624 35.8945 16.0136C36.0798 16.1181 36.0798 16.1181 36.2787 16.031C36.7042 15.8311 37.0905 15.5675 37.4851 15.3129C37.6388 15.2138 37.7931 15.1156 37.9474 15.0174C38.0441 14.9553 38.1409 14.8931 38.2406 14.829C38.3293 14.7721 38.418 14.7152 38.5094 14.6565C38.7217 14.5285 38.7217 14.5285 38.8016 14.334C38.7381 14.1113 38.7381 14.1113 38.6322 13.8531C38.5921 13.7501 38.552 13.6471 38.5107 13.541C38.465 13.4258 38.4193 13.3107 38.3737 13.1955C38.3263 13.0748 38.2791 12.9541 38.2318 12.8334C38.1001 12.4971 37.9675 12.1611 37.8347 11.8252C37.7148 11.5216 37.5954 11.2177 37.4761 10.9138C36.9629 9.60769 36.4491 8.30184 35.9261 6.9997C35.901 6.93707 35.8758 6.87444 35.8499 6.80991C35.734 6.52099 35.6177 6.2322 35.5008 5.94367C35.461 5.84464 35.4212 5.74562 35.3801 5.64359C35.3455 5.55799 35.3109 5.4724 35.2752 5.38421C35.2021 5.18193 35.2021 5.18193 35.2021 5.00593C35.1023 5.04631 35.0025 5.08669 34.8997 5.1283C34.4757 5.2982 34.0495 5.46152 33.6219 5.62193C33.5173 5.6613 33.4127 5.70066 33.305 5.74122C32.0723 6.15064 30.8072 6.02763 29.545 5.82544C29.4592 5.81239 29.3734 5.79935 29.2851 5.7859C28.7939 5.69753 28.4838 5.60867 28.1787 5.18193C28.1659 4.81681 28.2125 4.63805 28.4311 4.34592C28.9215 4.10997 29.4179 4.25791 29.9383 4.34832C31.5279 4.61949 32.6123 4.41086 34.1132 3.84853C34.2996 3.7826 34.4828 3.73001 34.6754 3.68591C34.6713 3.63486 34.6672 3.58381 34.663 3.53122C34.6401 3.03398 34.6789 2.74923 35.0266 2.36589C35.4711 2.04127 35.9467 1.81617 36.458 1.6196C36.5251 1.5933 36.5921 1.56699 36.6612 1.53989C36.802 1.4849 36.9429 1.43027 37.084 1.37599C37.2975 1.29366 37.5103 1.20982 37.7231 1.1258C39.594 0.394629 39.594 0.394629 40.3041 0.666371C40.7798 0.998074 41.0025 1.46362 41.2019 1.98879C41.24 2.08552 41.24 2.08552 41.2789 2.18421C41.3594 2.38925 41.4386 2.59479 41.5177 2.8004C41.5704 2.93524 41.6232 3.07005 41.676 3.20483C41.7544 3.40489 41.8326 3.60504 41.9099 3.80557C42.0332 4.1255 42.1592 4.44348 42.2939 4.75881C42.3308 4.8466 42.3308 4.8466 42.3684 4.93616C42.4351 5.09392 42.5031 5.25114 42.5711 5.40831C42.684 5.77279 42.6903 6.03379 42.6645 6.41394C42.5328 6.63395 42.5328 6.63395 42.3134 6.76595C42.058 6.81076 41.876 6.79546 41.611 6.76595C41.3681 6.58002 41.2754 6.36941 41.1646 6.08841C41.1312 6.00471 41.0979 5.92102 41.0635 5.83478C41.0283 5.74458 40.9932 5.65437 40.957 5.56143C40.9204 5.46868 40.8837 5.37592 40.846 5.28035C40.7687 5.0843 40.6917 4.88812 40.6151 4.69182C40.4975 4.39077 40.3787 4.09023 40.2597 3.78972C40.1848 3.59931 40.1099 3.40887 40.0352 3.2184C39.9817 3.0831 39.9817 3.0831 39.9271 2.94505C39.8783 2.81951 39.8783 2.81951 39.8285 2.69143C39.7997 2.61777 39.7708 2.54411 39.7411 2.46822C39.6796 2.27789 39.6796 2.27789 39.6796 2.01389C39.3032 2.1593 38.9268 2.30486 38.5505 2.45056C38.4228 2.50002 38.295 2.54943 38.1671 2.59881C37.9825 2.67014 37.7979 2.74161 37.6134 2.81312C37.557 2.83485 37.5006 2.85659 37.4426 2.87898C37.1673 2.98578 36.8956 3.09719 36.6262 3.21795C36.3434 3.3339 36.3434 3.3339 36.0801 3.3339C36.1044 3.39344 36.1288 3.45297 36.1539 3.51431C36.7336 4.93184 37.3022 6.35307 37.8591 7.77978C38.0244 8.20327 38.1901 8.6266 38.3559 9.04993C38.4817 9.37146 38.6075 9.693 38.7333 10.0146C38.8146 10.2224 38.8959 10.4302 38.9772 10.638C39.0158 10.7366 39.0544 10.8353 39.0942 10.9369C39.3077 11.4827 39.5216 12.0283 39.7359 12.5737C39.8004 12.7379 39.8648 12.9022 39.929 13.0666C40.017 13.2917 40.1055 13.5168 40.194 13.7418C40.2196 13.8075 40.2452 13.8733 40.2716 13.941C40.3782 14.211 40.4839 14.4434 40.6453 14.686C41.7462 14.2504 42.8471 13.8148 43.9814 13.366C43.8232 12.8375 43.6754 12.3521 43.4711 11.8473C43.4487 11.7916 43.4264 11.736 43.4033 11.6786C43.333 11.5039 43.2622 11.3294 43.1913 11.155C43.0151 10.7189 42.8394 10.2826 42.6645 9.84599C42.6191 9.73292 42.6191 9.73292 42.5728 9.61756C42.4259 9.24132 42.3556 9.00618 42.4889 8.61397C42.6778 8.34759 42.7751 8.27306 43.098 8.21797C43.4479 8.27523 43.5546 8.35981 43.8058 8.61397C43.9682 8.91055 44.0902 9.22068 44.2136 9.53523C44.25 9.62599 44.2864 9.71674 44.3239 9.81025C44.4005 10.0023 44.4764 10.1946 44.5516 10.3872C44.6663 10.6794 44.7842 10.9701 44.9024 11.2609C44.9766 11.4483 45.0506 11.6357 45.1244 11.8233C45.1771 11.952 45.1771 11.952 45.2308 12.0834C45.4637 12.6903 45.5479 13.2442 45.4739 13.894C45.1586 14.6021 44.4065 14.8305 43.7276 15.0941C43.6551 15.1227 43.5825 15.1513 43.5078 15.1807C43.2781 15.2711 43.0481 15.3608 42.8182 15.4506C42.6625 15.5118 42.5068 15.573 42.3511 15.6343C40.7417 16.2667 40.7417 16.2667 40.1185 16.1821C39.9419 16.0663 39.7661 15.9492 39.5918 15.8301C39.1564 15.9413 38.7829 16.2336 38.4121 16.4791C38.3149 16.5427 38.3149 16.5427 38.2157 16.6076C37.8537 16.8451 37.4932 17.085 37.1336 17.3261C37.1475 17.4019 37.1614 17.4776 37.1758 17.5557C37.316 18.4732 37.2651 19.2632 36.7574 20.0538C36.3315 20.6067 35.7141 20.9399 35.0379 21.0864C34.6835 21.1314 34.3294 21.1233 33.973 21.1101C33.9581 21.1675 33.9432 21.2249 33.9278 21.2841C33.6911 22.1397 33.2767 22.7822 32.4895 23.2287C31.9528 23.4695 31.4774 23.496 30.9003 23.4862C30.8811 23.5606 30.8618 23.635 30.842 23.7117C30.6037 24.5663 30.3556 25.1414 29.5999 25.6312C28.8623 26.0361 28.2149 26.0904 27.3886 25.9502C27.3306 25.9212 27.2727 25.8921 27.213 25.8622C27.2076 26.0119 27.2076 26.0119 27.202 26.1647C27.1173 26.8312 26.6606 27.3758 26.1434 27.779C25.4731 28.2298 24.6601 28.2707 23.8769 28.1502C23.1602 27.9141 22.545 27.4556 21.9454 27.0062C21.9193 27.06 21.8931 27.1137 21.8662 27.1691C21.5635 27.763 21.049 28.1641 20.4324 28.4018C19.6716 28.6019 18.9726 28.4892 18.2869 28.1131C17.7104 27.7214 17.3923 27.2301 17.2046 26.5662C17.2046 26.45 17.2046 26.3339 17.2046 26.2142C17.1068 26.2215 17.0091 26.2287 16.9083 26.2362C16.2383 26.2338 15.6232 25.9392 15.1387 25.4834C14.7354 25.0167 14.6139 24.5305 14.5708 23.9262C14.5176 23.9313 14.4644 23.9364 14.4096 23.9416C13.781 23.9756 13.3312 23.8511 12.815 23.4862C12.423 23.1228 12.1041 22.769 11.937 22.2541C11.9261 21.9626 11.9261 21.9626 11.937 21.7261C11.8775 21.7249 11.818 21.7236 11.7567 21.7224C10.9905 21.683 10.3363 21.4907 9.7971 20.9176C9.31772 20.287 9.12191 19.6069 9.21547 18.8221C9.25635 18.6652 9.30107 18.5093 9.34956 18.3546C9.37366 18.2769 9.39775 18.1992 9.42258 18.1191C9.44115 18.0607 9.45972 18.0023 9.47885 17.9421C9.37368 17.8754 9.26851 17.8087 9.16334 17.742C9.06118 17.6772 9.06118 17.6772 8.95695 17.6111C8.80646 17.5158 8.65581 17.4208 8.505 17.326C8.13519 17.0934 7.76769 16.8587 7.40577 16.6138C7.34341 16.5725 7.28106 16.5311 7.21681 16.4885C7.09936 16.4104 6.98281 16.331 6.86735 16.25C6.68929 16.1275 6.68929 16.1275 6.4061 16.0061C6.14552 16.0673 6.14552 16.0673 5.87934 16.1821C5.29544 16.252 4.82481 16.1231 4.28775 15.9057C4.21454 15.8772 4.14133 15.8488 4.06589 15.8194C3.83401 15.7289 3.60291 15.6365 3.37176 15.5441C3.21639 15.4833 3.06098 15.4227 2.90553 15.3622C2.75534 15.3033 2.60519 15.2443 2.45508 15.1852C2.38629 15.1581 2.3175 15.1311 2.24662 15.1032C0.847776 14.5432 0.847776 14.5432 0.523979 13.894C0.425985 13.0565 0.639026 12.4208 0.96843 11.661C1.01662 11.5458 1.06458 11.4304 1.11234 11.315C1.21433 11.0687 1.31706 10.8226 1.42021 10.5768C1.65628 10.0113 1.87901 9.44056 2.10234 8.86992C2.18189 8.66687 2.26176 8.46395 2.34171 8.26106C2.67202 7.4226 3.00005 6.58327 3.32704 5.7435C3.45776 5.40791 3.5887 5.07241 3.71964 4.73691C3.8275 4.46048 3.93519 4.18399 4.0425 3.90736C4.16355 3.59552 4.2851 3.28388 4.40675 2.97228C4.46046 2.83332 4.46046 2.83332 4.51525 2.69155C5.1955 0.954526 5.1955 0.954526 5.9397 0.57287C6.60665 0.446731 7.29145 0.740509 7.90543 0.987438ZM6.3183 2.01389C6.27825 2.1167 6.23819 2.21951 6.19693 2.32544C5.48991 4.13982 4.7821 5.95388 4.06719 7.76516C3.97547 7.99763 3.88386 8.23014 3.79227 8.46265C3.51445 9.16753 3.23562 9.87196 2.95331 10.575C2.82772 10.888 2.70273 11.2012 2.57779 11.5145C2.51862 11.6624 2.45914 11.8101 2.39934 11.9578C2.31738 12.1601 2.23643 12.3629 2.15569 12.5658C2.13118 12.6255 2.10666 12.6853 2.0814 12.7469C1.94106 13.0929 1.94106 13.0929 2.01646 13.454C2.25979 13.5725 2.4969 13.6745 2.74864 13.7717C2.82214 13.8008 2.89565 13.8299 2.97139 13.8599C3.127 13.9214 3.2828 13.9823 3.43878 14.0428C3.67822 14.1357 3.9169 14.2305 4.15555 14.3254C4.30657 14.3848 4.45764 14.444 4.60875 14.5032C4.68054 14.5317 4.75233 14.5602 4.8263 14.5895C4.99981 14.6563 5.17602 14.7159 5.35258 14.774C5.60581 14.6471 5.61819 14.4931 5.71713 14.2292C5.75544 14.1283 5.79376 14.0274 5.83324 13.9235C5.85397 13.8681 5.8747 13.8127 5.89606 13.7556C6.01231 13.4453 6.13082 13.1359 6.24903 12.8263C6.27502 12.7581 6.30102 12.6899 6.3278 12.6197C6.63606 11.8124 6.954 11.009 7.27201 10.2055C7.37776 9.93833 7.48339 9.6711 7.58899 9.40385C7.92802 8.54607 8.26767 7.68853 8.6081 6.8313C8.76404 6.43852 8.91975 6.04566 9.07544 5.65278C9.15027 5.46414 9.22521 5.27554 9.30026 5.08699C9.4043 4.82563 9.50797 4.56414 9.61156 4.3026C9.64275 4.22453 9.67394 4.14646 9.70608 4.06602C9.73416 3.99493 9.76223 3.92385 9.79116 3.85061C9.82806 3.75775 9.82806 3.75775 9.86571 3.66301C9.92726 3.5091 9.92726 3.5091 9.91781 3.3339C9.44774 3.14534 8.97745 2.95736 8.50693 2.76993C8.34686 2.70607 8.18684 2.64205 8.0269 2.57786C7.79716 2.4857 7.5672 2.39411 7.33718 2.30264C7.26557 2.27377 7.19395 2.24489 7.12017 2.21515C7.02001 2.1755 7.02001 2.1755 6.91783 2.13506C6.85915 2.11161 6.80047 2.08816 6.74001 2.064C6.5675 2.00064 6.5675 2.00064 6.3183 2.01389ZM10.7957 5.00593C10.1986 6.46066 9.61419 7.9201 9.04055 9.3843C8.98432 9.52777 8.92808 9.67124 8.87184 9.8147C8.84347 9.88708 8.8151 9.95945 8.78587 10.034C8.59284 10.5255 8.39745 11.016 8.20079 11.506C8.06058 11.8555 7.92097 12.2052 7.78138 12.555C7.71341 12.7248 7.64515 12.8945 7.57659 13.0641C7.48107 13.3004 7.38656 13.5372 7.29226 13.7741C7.26334 13.8449 7.23442 13.9156 7.20463 13.9886C7.04108 14.3734 7.04108 14.3734 7.10844 14.774C7.24164 14.8838 7.24164 14.8838 7.41023 14.9776C7.47365 15.0155 7.53706 15.0534 7.6024 15.0924C7.67117 15.1326 7.73993 15.1727 7.81078 15.2141C7.9547 15.2998 8.09851 15.3857 8.2422 15.4719C8.35292 15.5382 8.35293 15.5382 8.46589 15.6058C8.88437 15.8617 9.29247 16.1339 9.6997 16.4072C9.75787 16.4457 9.81604 16.4841 9.87597 16.5238C9.9266 16.5577 9.97723 16.5916 10.0294 16.6266C10.195 16.7176 10.348 16.76 10.5324 16.7981C10.5867 16.7369 10.5867 16.7369 10.6421 16.6744C10.8093 16.4873 10.9781 16.3017 11.1469 16.1161C11.2038 16.0519 11.2608 15.9877 11.3194 15.9215C11.8816 15.3077 12.4321 14.994 13.2704 14.9281C14.0242 14.9776 14.5564 15.192 15.1051 15.7197C15.4654 16.145 15.6138 16.6087 15.7121 17.1501C15.814 17.163 15.814 17.163 15.9179 17.1762C16.7448 17.2952 17.3551 17.455 17.885 18.1305C18.1631 18.5451 18.2717 18.9515 18.3459 19.4381C18.4222 19.4478 18.4985 19.4574 18.5771 19.4673C19.518 19.5971 20.0464 19.7908 20.6395 20.5601C20.8041 20.8461 20.8041 20.8461 20.8412 21.0465C20.8862 21.2867 20.9236 21.439 21.0675 21.6381C21.3723 21.7425 21.6688 21.7888 21.9869 21.8379C22.5264 21.9498 22.8288 22.2549 23.202 22.6391C23.6122 23.2788 23.7018 23.8803 23.6135 24.6302C23.49 25.0786 23.3493 25.4593 22.9989 25.7742C23.1642 26.2711 23.6935 26.5111 24.1402 26.7422C24.5846 26.8469 24.9007 26.7946 25.3145 26.6102C25.6566 26.2835 25.867 25.975 25.9153 25.4954C25.8721 25.0582 25.6848 24.8314 25.3563 24.5468C25.0829 24.3239 24.8003 24.113 24.517 23.903C24.1559 23.6226 24.1559 23.6226 24.0795 23.3865C24.0958 23.1349 24.1145 22.9188 24.2335 22.6941C24.512 22.5501 24.7074 22.5714 25.0182 22.6061C25.2802 22.751 25.5022 22.9371 25.7315 23.1287C25.863 23.2337 25.9947 23.3385 26.1266 23.4432C26.1913 23.4952 26.256 23.5472 26.3227 23.6008C26.5887 23.8122 26.8597 24.0148 27.1362 24.2122C27.2215 24.2743 27.3068 24.3365 27.3948 24.4005C27.6941 24.5654 27.9269 24.61 28.2665 24.6302C28.7829 24.4785 29.0149 24.261 29.32 23.8382C29.4549 23.5678 29.4277 23.3451 29.4078 23.0462C29.2182 22.5058 28.8552 22.2584 28.4092 21.9351C28.2768 21.8369 28.1444 21.7385 28.012 21.6402C27.9497 21.5946 27.8874 21.5489 27.8232 21.5019C27.6776 21.3932 27.5363 21.2787 27.3961 21.1631C27.2283 21.0043 27.2283 21.0043 27.0374 21.0221C26.9065 20.6285 26.9065 20.2717 27.0374 19.8781C27.5088 19.8273 27.8838 19.811 28.2813 20.0943C28.4005 20.1908 28.5181 20.2893 28.6341 20.3896C28.7634 20.4943 28.8927 20.5989 29.022 20.7035C29.0862 20.7566 29.1504 20.8097 29.2166 20.8644C29.51 21.1064 29.8081 21.3411 30.1102 21.5721C30.1605 21.6131 30.2109 21.654 30.2628 21.6962C30.6545 21.9952 31.0217 22.0907 31.5148 22.0781C31.9684 21.9295 32.2159 21.6802 32.4806 21.2861C32.5924 20.9008 32.6081 20.5852 32.4254 20.2181C32.1375 19.826 31.7253 19.5505 31.3393 19.2621C31.2795 19.2174 31.2198 19.1726 31.1582 19.1265C31.0949 19.0791 31.0317 19.0318 30.9665 18.983C30.9029 18.9354 30.8393 18.8877 30.7738 18.8387C30.6472 18.7442 30.5202 18.6503 30.3928 18.5568C30.3346 18.5138 30.2764 18.4708 30.2165 18.4264C30.1642 18.3882 30.112 18.3499 30.0582 18.3104C29.9346 18.2061 29.9346 18.2061 29.8468 18.0301C29.8076 17.4902 29.8076 17.4902 29.9346 17.2436C30.222 17.0905 30.5 17.091 30.8125 17.1501C31.0896 17.2999 31.3196 17.496 31.5587 17.7001C31.6974 17.813 31.8362 17.9259 31.9751 18.0387C32.0445 18.096 32.114 18.1533 32.1855 18.2123C32.5021 18.4717 32.8248 18.7223 33.15 18.9706C33.2324 19.0356 33.2324 19.0356 33.3165 19.1018C33.7119 19.4041 34.1753 19.7227 34.6936 19.6898C35.1929 19.5987 35.4682 19.3338 35.7563 18.9211C35.8771 18.5469 35.8518 18.2238 35.7289 17.8541C35.3231 17.2439 34.6634 16.8223 34.0773 16.3966C33.9297 16.2885 33.7821 16.1805 33.6346 16.0724C33.5597 16.0177 33.4849 15.9631 33.4077 15.9068C33.1196 15.6957 32.8329 15.4828 32.5465 15.2695C32.4072 15.1664 32.2673 15.0641 32.1269 14.9625C31.7912 14.7196 31.4684 14.4734 31.1585 14.1979C30.1466 13.3336 29.2859 13.3795 27.9967 13.4476C26.0899 13.4954 24.1461 12.373 22.7356 11.166C22.6296 11.0595 22.5249 10.9517 22.4228 10.8415C22.3169 10.7408 22.3169 10.7408 22.2088 10.638C21.8497 10.652 21.6374 10.8984 21.3803 11.1275C20.1153 12.219 18.4268 13.201 16.7019 13.1271C15.949 13.0325 15.2911 12.819 14.6586 12.398C14.608 12.3656 14.5574 12.3331 14.5053 12.2997C14.1025 12.0077 13.9223 11.6302 13.7807 11.166C13.7226 10.6917 13.8065 10.2605 14.0441 9.84599C14.3681 9.47982 14.7322 9.22218 15.136 8.95498C16.0689 8.32386 16.9395 7.6277 17.7972 6.89795C17.8758 6.83134 17.8758 6.83134 17.956 6.76339C18.1815 6.56921 18.3556 6.39945 18.5215 6.14994C17.9465 5.93906 17.3795 5.87838 16.7711 5.84194C16.6799 5.83639 16.6799 5.83638 16.5867 5.83072C16.1255 5.80502 15.6643 5.79192 15.2025 5.78212C15.0786 5.77922 14.9547 5.7763 14.8308 5.77336C14.5853 5.76756 14.3399 5.76334 14.0943 5.75995C13.1149 5.73741 12.2592 5.5487 11.3444 5.20943C11.2399 5.17097 11.1353 5.13252 11.0276 5.0929C10.9511 5.0642 10.8746 5.0355 10.7957 5.00593ZM12.3884 16.7699C12.3028 16.8627 12.2182 16.9565 12.1346 17.0511C12.0897 17.1011 12.0448 17.1512 11.9985 17.2027C11.6858 17.5555 11.3808 17.9147 11.0866 18.2831C11.0156 18.3718 10.9446 18.4605 10.8715 18.5519C10.6854 18.8594 10.6382 19.0808 10.6202 19.4381C10.7294 19.7873 10.8683 19.9825 11.1689 20.1806C11.5068 20.3514 11.7467 20.3388 12.1126 20.2301C12.4381 19.9977 12.6783 19.7409 12.9247 19.4271C13.2575 19.0097 13.6058 18.6133 13.9697 18.2229C14.2583 17.8798 14.353 17.6105 14.3411 17.1528C14.2789 16.8223 14.1121 16.6739 13.8685 16.4461C13.2711 16.1324 12.862 16.3249 12.3884 16.7699ZM13.8685 20.4061C13.8143 20.4721 13.7601 20.5382 13.7042 20.6062C13.439 20.9389 13.2443 21.1941 13.2539 21.6381C13.4002 22.0454 13.5807 22.3006 13.9563 22.5181C14.3803 22.5721 14.6904 22.5767 15.0437 22.3047C15.3074 22.0468 15.5329 21.7588 15.7605 21.469C15.909 21.2819 16.0581 21.101 16.2152 20.9218C16.2747 20.8532 16.2747 20.8532 16.3353 20.7832C16.4471 20.6548 16.5595 20.527 16.672 20.3992C16.8766 20.1093 16.9619 19.8738 17.029 19.5261C16.9249 19.1414 16.8196 18.9569 16.5187 18.6956C15.3576 18.1251 14.4893 19.6224 13.8685 20.4061ZM17.446 21.5556C17.1165 21.9727 16.7718 22.3678 16.4097 22.7567C16.0802 23.1454 15.928 23.4258 15.9508 23.9327C15.9888 24.1935 16.0681 24.3425 16.2389 24.5422C16.6003 24.7949 16.8671 24.8313 17.29 24.7897C17.5602 24.6811 17.7107 24.4908 17.907 24.2782C18.011 24.1674 18.011 24.1674 18.1172 24.0544C19.1806 23.0337 19.1806 23.0337 19.6573 21.7316C19.5996 21.3535 19.4339 21.1744 19.1361 20.9341C18.4241 20.5773 17.8724 21.0055 17.446 21.5556ZM20.4529 23.3982C20.2823 23.5738 20.1318 23.741 19.9811 23.9317C19.9201 24.0063 19.9201 24.0063 19.858 24.0825C19.7746 24.1848 19.6917 24.2875 19.6091 24.3905C19.4916 24.5368 19.3725 24.6817 19.2527 24.8261C18.6863 25.4738 18.6863 25.4738 18.6093 26.3022C18.7787 26.6554 18.9159 26.8032 19.2513 27.0062C19.6562 27.1163 19.81 27.0984 20.1896 26.9182C20.6947 26.5086 21.0938 25.9821 21.4962 25.4748C21.6532 25.2817 21.8166 25.1057 21.9893 24.9272C22.2319 24.6454 22.2942 24.3898 22.3117 24.021C22.2827 23.67 22.1194 23.4845 21.8796 23.2442C21.331 22.9387 20.938 23.0486 20.4529 23.3982Z" stroke="#F0EDE6" mask="url(#path-1-outside-1_256_1075)"/>
</g>
<defs>
<linearGradient id="paint0_linear_36_44" x1="35" y1="0" x2="35" y2="70" gradientUnits="userSpaceOnUse">
<stop stop-color="#1E1E1E"/>
<stop offset="1" stop-color="#1A3FA8"/>
</linearGradient>
</defs>
</svg>
