<svg width="70" height="70" viewBox="0 0 70 70" fill="none" xmlns="http://www.w3.org/2000/svg">
<rect width="70" height="70" fill="url(#paint0_linear_36_44)"/>
<g transform="translate(23, 16.5)">
<path d="M14.5196 15.4731V9.59039C16.459 10.06 18.3548 10.9543 19.906 12.3613L19.9125 12.3525C20.0283 12.4439 20.1689 12.5067 20.3289 12.5067C20.5395 12.5067 20.7201 12.4061 20.8448 12.2577L20.8536 12.2594L23.3606 8.76356L23.3547 8.76065C23.4577 8.64311 23.5259 8.49415 23.5259 8.32657C23.5259 8.12873 23.4359 7.95534 23.2983 7.83256C20.973 5.70815 18.0043 4.43269 14.5196 4.04924V0.670897C14.5196 0.300245 14.2155 0 13.8408 0H11.148C10.7733 0 10.4697 0.300245 10.4697 0.670897V3.9637C4.65224 4.56012 1.20526 8.22649 1.20526 12.5318C1.20526 18.3289 6.03162 19.9913 10.4697 21.0573V27.6639C7.61981 27.1588 5.27752 25.6977 3.68403 24.0621C3.67305 24.0505 3.66128 24.0392 3.64873 24.0284L3.61815 23.9987L3.61344 24.0051C3.49558 23.9048 3.34593 23.8486 3.19051 23.8462C3.06949 23.8473 2.95103 23.8808 2.84767 23.943C2.74432 24.0053 2.65994 24.0941 2.60347 24.2L2.59523 24.1988L0.168819 27.7622L0.17176 27.768C0.0625712 27.8874 0.00145622 28.0423 0 28.2033C0 28.4168 0.107056 28.5984 0.263523 28.7211L0.257053 28.7305C2.62699 31.0748 5.94515 32.7797 10.4697 33.1637V36.3291C10.4697 36.6998 10.7733 37 11.148 37H13.8408C14.2155 37 14.5191 36.6992 14.5191 36.3291L14.5196 33.1631C20.8542 32.5231 24 28.8585 24 24.1261C24 18.287 19.0013 16.581 14.5196 15.4731ZM10.4692 14.4921C8.70273 13.9387 7.4957 13.2987 7.4957 12.0622C7.4957 10.6133 8.57332 9.5904 10.4692 9.33437V14.4921ZM14.5196 27.7494V22.0378C16.4161 22.6342 17.7519 23.3173 17.7519 24.7231C17.7519 26.0876 16.7172 27.3229 14.5196 27.7494Z" fill="#F0EDE6"/>
</g>
<defs>
<linearGradient id="paint0_linear_36_44" x1="35" y1="0" x2="35" y2="70" gradientUnits="userSpaceOnUse">
<stop stop-color="#1E1E1E"/>
<stop offset="1" stop-color="#1A3FA8"/>
</linearGradient>
</defs>
</svg>
