<svg width="70" height="70" viewBox="0 0 70 70" fill="none" xmlns="http://www.w3.org/2000/svg">
<rect width="70" height="70" fill="url(#paint0_linear_36_44)"/>
<g transform="translate(19, 19)">
<path d="M16 0C16.6005 0 17.1925 0.0325336 17.776 0.0976003C17.9849 0.120713 18.1871 0.184736 18.3712 0.286015C18.5553 0.387293 18.7177 0.523844 18.849 0.687869C18.9804 0.851895 19.0781 1.04018 19.1367 1.24198C19.1953 1.44379 19.2135 1.65515 19.1904 1.864C19.1673 2.07286 19.1033 2.27511 19.002 2.45923C18.9007 2.64334 18.7642 2.8057 18.6001 2.93704C18.4361 3.06838 18.2478 3.16612 18.046 3.2247C17.8442 3.28327 17.6329 3.30152 17.424 3.2784C14.7873 2.98344 12.124 3.51511 9.80268 4.79988C7.48132 6.08466 5.61657 8.05904 4.46635 10.4499C3.31612 12.8408 2.93728 15.5301 3.38223 18.1457C3.82717 20.7613 5.0739 23.174 6.94998 25.0501C8.82606 26.9261 11.2388 28.1729 13.8544 28.6178C16.47 29.0628 19.1592 28.6839 21.5501 27.5337C23.941 26.3835 25.9153 24.5187 27.2001 22.1974C28.4849 19.876 29.0166 17.2128 28.7216 14.576C28.6985 14.3672 28.7167 14.1558 28.7753 13.954C28.8339 13.7522 28.9316 13.5639 29.063 13.3999C29.3282 13.0686 29.7142 12.8563 30.136 12.8096C30.5578 12.7629 30.9809 12.8857 31.3121 13.151C31.4762 13.2823 31.6127 13.4447 31.714 13.6288C31.8153 13.8129 31.8793 14.0152 31.9024 14.224C31.9664 14.8075 31.9989 15.3995 32 16C32 24.8368 24.8368 32.0001 16 32.0001C7.1632 32.0001 0 24.8368 0 16C0 7.16321 7.1632 0 16 0ZM15.9488 9.40321C16.0542 9.81397 15.9923 10.2498 15.7766 10.6149C15.5609 10.98 15.2091 11.2446 14.7984 11.3504C13.6702 11.646 12.6881 12.3419 12.0353 13.3084C11.3825 14.2748 11.1036 15.4458 11.2507 16.6027C11.3978 17.7597 11.9609 18.8236 12.8348 19.5959C13.7087 20.3683 14.8337 20.7963 16 20.8C17.0645 20.8005 18.0989 20.4471 18.9406 19.7954C19.7823 19.1437 20.3835 18.2307 20.6496 17.2C20.763 16.7974 21.0296 16.4552 21.3922 16.2467C21.7549 16.0382 22.1848 15.9801 22.5898 16.0847C22.9948 16.1893 23.3427 16.4483 23.5591 16.8063C23.7754 17.1643 23.8429 17.5928 23.7472 18C23.2564 19.8815 22.0973 21.52 20.4866 22.6093C18.876 23.6986 16.9238 24.1642 14.9948 23.9192C13.0659 23.6743 11.2921 22.7354 10.0048 21.278C8.71756 19.8206 8.00491 17.9445 8 16C7.99973 14.2262 8.58896 12.5027 9.67507 11.1003C10.7612 9.69791 12.2825 8.69626 14 8.25281C14.2035 8.20036 14.4153 8.18851 14.6234 8.21794C14.8315 8.24737 15.0317 8.31751 15.2127 8.42433C15.3937 8.53116 15.5518 8.67259 15.6781 8.84055C15.8044 9.00851 15.8964 9.1997 15.9488 9.40321ZM26.4064 0.2032C26.6984 0.324287 26.9481 0.52918 27.1238 0.792016C27.2995 1.05485 27.3934 1.36385 27.3936 1.68V4.60801H30.32C30.6364 4.60808 30.9457 4.70195 31.2087 4.87776C31.4718 5.05358 31.6768 5.30344 31.7979 5.59576C31.919 5.88808 31.9506 6.20974 31.8889 6.52006C31.8272 6.83039 31.6749 7.11545 31.4512 7.33921L25.792 12.992C25.492 13.2921 25.0851 13.4607 24.6608 13.4608H20.8L17.8752 16.3872C17.575 16.6875 17.1678 16.8561 16.7432 16.8561C16.3186 16.8561 15.9114 16.6875 15.6112 16.3872C15.311 16.087 15.1423 15.6798 15.1423 15.2552C15.1423 14.8306 15.311 14.4234 15.6112 14.1232L18.5376 11.2V7.33761C18.5377 6.9133 18.7063 6.5064 19.0064 6.20641L24.6624 0.548801C24.8862 0.324908 25.1713 0.172414 25.4817 0.11061C25.7922 0.0488071 26.114 0.0804723 26.4064 0.2016M24.1936 5.54081L21.7376 8.00001V10.2624H24L26.4576 7.80641H25.7936C25.3693 7.80641 24.9623 7.63784 24.6622 7.33778C24.3622 7.03772 24.1936 6.63076 24.1936 6.20641V5.54081Z" fill="#F0EDE6"/>
</g>
<defs>
<linearGradient id="paint0_linear_36_44" x1="35" y1="0" x2="35" y2="70" gradientUnits="userSpaceOnUse">
<stop stop-color="#1E1E1E"/>
<stop offset="1" stop-color="#1A3FA8"/>
</linearGradient>
</defs>
</svg>
