<svg width="208" height="44" viewBox="0 0 208 44" fill="none" xmlns="http://www.w3.org/2000/svg">
<path d="M47.4059 33.88C48.6837 33.5765 50.2291 33.0065 50.3743 31.701C50.4481 31.0359 50.1045 30.4037 49.7723 29.8226C48.7725 28.074 47.7722 26.3254 46.7724 24.5768C46.5538 24.1947 46.065 24.0653 45.6855 24.2886C40.1468 27.5476 34.538 30.6876 28.864 33.705C25.9823 35.238 23.0836 36.739 20.1687 38.2089C18.1075 39.2475 15.891 39.9643 13.8807 41.108C12.9031 41.6643 11.8349 42.1108 12.9914 42.7986C14.0596 43.4342 16.3299 42.8302 17.439 42.6453C22.6272 41.7812 27.7147 40.1479 32.7228 38.5777C37.593 37.0506 42.4371 35.0617 47.4059 33.88Z" fill="white"/>
<path d="M39.9456 5.82771C39.5917 4.84795 38.0211 3.6526 37.3538 3.01608C35.9886 1.714 32.4456 -1.61334 30.7277 0.935317C28.9932 3.50831 14.22 29.0691 10.8337 35.5752C10.4431 36.3257 11.3477 37.0831 12.0175 36.5661C16.8775 32.8148 21.1935 28.264 25.4225 23.8352C29.7774 19.2737 40.2273 7.31079 40.0019 6.03604C39.99 5.96773 39.9708 5.89815 39.9456 5.82771Z" fill="white"/>
<mask id="mask0_144_1250" style="mask-type:luminance" maskUnits="userSpaceOnUse" x="0" y="1" width="11" height="33">
<path d="M0 1.20171H10.7073V33.7698H0V1.20171Z" fill="white"/>
</mask>
<g mask="url(#mask0_144_1250)">
<path d="M10.1765 1.88604C9.75939 1.53854 9.06395 1.52701 8.17897 1.49115C5.99361 1.40278 3.80826 1.31057 1.6229 1.22007C1.20154 1.20299 0.735783 1.2 0.416028 1.47493C0.0335159 1.80365 0.0224163 2.38126 0.0433348 2.88501C0.442923 12.5836 0.620518 23.7007 3.28785 33.1726C3.49576 33.9099 4.52589 33.9483 4.79101 33.2294C6.85725 27.63 7.8511 21.5205 8.89319 15.6663C9.43237 12.6391 9.93101 9.60031 10.3016 6.54748C10.4288 5.50027 10.5551 4.44751 10.6068 3.39304C10.6461 2.59856 10.4898 2.14731 10.1765 1.88604Z" fill="white"/>
</g>
<path d="M63.1456 22.4179V34.4824H59.8823V7.16525H63.1456V19.1375H62.4865C63.1089 17.2796 63.9948 15.9506 65.1436 15.1502C66.2932 14.3489 67.644 13.948 69.1958 13.948C70.5653 13.948 71.7752 14.2328 72.8262 14.8018C73.8769 15.37 74.6987 16.2256 75.2921 17.3684C75.8851 18.5104 76.1818 19.9495 76.1818 21.6853V34.4824H72.8997V21.9415C72.8997 20.3534 72.4898 19.1166 71.6702 18.2308C70.8514 17.3441 69.7273 16.9005 68.2976 16.9005C67.3195 16.9005 66.4422 17.1084 65.6661 17.5238C64.8908 17.9396 64.2765 18.5569 63.8236 19.3766C63.3715 20.1954 63.1456 21.2089 63.1456 22.4179Z" fill="white"/>
<path d="M89.9864 34.9229C88.1408 34.9229 86.5241 34.4858 85.1367 33.6115C83.7501 32.7372 82.6683 31.5119 81.8922 29.9349C81.1156 28.3583 80.7275 26.5376 80.7275 24.4722C80.7275 22.3696 81.1156 20.5271 81.8922 18.9445C82.6683 17.3624 83.7501 16.1338 85.1367 15.2595C86.5241 14.3851 88.1408 13.948 89.9864 13.948C91.8315 13.948 93.4512 14.3851 94.8446 15.2595C96.238 16.1338 97.3228 17.3624 98.0994 18.9445C98.8755 20.5271 99.264 22.3696 99.264 24.4722C99.264 26.5376 98.8755 28.3583 98.0994 29.9349C97.3228 31.5119 96.238 32.7372 94.8446 33.6115C93.4512 34.4858 91.8315 34.9229 89.9864 34.9229ZM89.9864 32.008C91.3307 32.008 92.4458 31.666 93.3316 30.9817C94.2183 30.2965 94.8788 29.3825 95.3125 28.2392C95.7462 27.0964 95.9631 25.8409 95.9631 24.4722C95.9631 23.0916 95.7462 21.8236 95.3125 20.6693C94.8788 19.514 94.2183 18.5906 93.3316 17.8995C92.4458 17.2087 91.3307 16.8629 89.9864 16.8629C88.6544 16.8629 87.5483 17.2087 86.6684 17.8995C85.7881 18.5906 85.1281 19.5106 84.6876 20.659C84.2478 21.8078 84.0284 23.0787 84.0284 24.4722C84.0284 25.8409 84.2478 27.0964 84.6876 28.2392C85.1281 29.3825 85.7847 30.2965 86.6582 30.9817C87.5325 31.666 88.6416 32.008 89.9864 32.008Z" fill="white"/>
<path d="M107.073 7.16525V34.4824H103.81V7.16525H107.073Z" fill="white"/>
<path d="M118.385 34.9229C117.09 34.9229 115.919 34.6843 114.874 34.2074C113.829 33.7306 112.998 33.0275 112.381 32.0985C111.764 31.1695 111.456 30.0391 111.456 28.7071C111.456 27.5459 111.684 26.605 112.142 25.8844C112.601 25.1629 113.212 24.5913 113.976 24.1699C114.74 23.7477 115.589 23.4331 116.524 23.2256C117.46 23.0173 118.404 22.8525 119.357 22.7304C120.592 22.5711 121.585 22.4486 122.337 22.3632C123.088 22.2779 123.644 22.1344 124.005 21.9329C124.366 21.7314 124.546 21.3805 124.546 20.8793V20.7495C124.546 19.9311 124.384 19.2289 124.06 18.6423C123.736 18.0549 123.256 17.6058 122.62 17.295C121.985 16.9833 121.196 16.8271 120.255 16.8271C119.289 16.8271 118.461 16.9769 117.77 17.2762C117.081 17.5759 116.519 17.9609 116.085 18.4323C115.651 18.9027 115.348 19.4001 115.177 19.9247L112.005 19.0999C112.421 17.8662 113.051 16.8732 113.894 16.1218C114.738 15.3696 115.706 14.8189 116.799 14.4705C117.893 14.1222 119.02 13.948 120.182 13.948C120.964 13.948 121.794 14.0496 122.675 14.252C123.555 14.4535 124.383 14.8048 125.159 15.3056C125.936 15.8068 126.568 16.5188 127.057 17.4418C127.546 18.3639 127.791 19.5525 127.791 21.0074V34.4824H124.582V31.6955H124.399C124.167 32.1728 123.8 32.6616 123.298 33.1624C122.797 33.6636 122.143 34.0824 121.336 34.4192C120.53 34.7547 119.546 34.9229 118.385 34.9229ZM118.916 32.0251C120.151 32.0251 121.184 31.7903 122.016 31.3198C122.846 30.8498 123.476 30.2355 123.904 29.4773C124.332 28.7191 124.546 27.9246 124.546 27.0934V24.3441C124.411 24.491 124.132 24.6254 123.711 24.7471C123.29 24.8692 122.801 24.9789 122.244 25.0767C121.689 25.1749 121.139 25.2573 120.595 25.3243C120.051 25.3917 119.589 25.4498 119.21 25.4985C118.428 25.5967 117.694 25.7649 117.011 26.0039C116.326 26.2422 115.776 26.5871 115.361 27.0388C114.945 27.4909 114.738 28.1022 114.738 28.8728C114.738 29.5571 114.917 30.1347 115.277 30.606C115.638 31.0765 116.13 31.4304 116.753 31.6682C117.376 31.9064 118.097 32.0251 118.916 32.0251Z" fill="white"/>
<path d="M144.896 34.8666C142.525 34.8666 140.416 34.2924 138.571 33.1436C136.726 31.9952 135.281 30.37 134.236 28.2683C133.191 26.1657 132.668 23.6901 132.668 20.8417C132.668 17.9695 133.191 15.4857 134.236 13.3896C135.281 11.2939 136.726 9.66823 138.571 8.51258C140.416 7.35736 142.525 6.77933 144.896 6.77933C146.29 6.77933 147.603 6.98424 148.838 7.39408C150.071 7.80391 151.181 8.39988 152.164 9.18198C153.149 9.96408 153.968 10.9114 154.621 12.0235C155.276 13.136 155.725 14.4005 155.97 15.8179H152.504C152.309 14.865 151.976 14.0283 151.505 13.3076C151.035 12.5862 150.457 11.9748 149.772 11.4736C149.087 10.9729 148.333 10.5972 147.507 10.3466C146.683 10.0964 145.813 9.97091 144.896 9.97091C143.196 9.97091 141.677 10.3991 140.339 11.2551C139.001 12.1102 137.95 13.3478 137.186 14.9675C136.422 16.5863 136.041 18.5445 136.041 20.8417C136.041 23.1279 136.425 25.081 137.195 26.7007C137.965 28.3195 139.02 29.5537 140.357 30.4028C141.696 31.2524 143.209 31.6767 144.896 31.6767C145.813 31.6767 146.683 31.5487 147.507 31.2925C148.333 31.0355 149.084 30.6598 149.763 30.1655C150.442 29.6703 151.019 29.0623 151.496 28.3417C151.973 27.6202 152.315 26.7886 152.523 25.8468H155.97C155.738 27.2403 155.292 28.4903 154.632 29.5968C153.971 30.7025 153.152 31.6494 152.174 32.4383C151.196 33.2264 150.09 33.8279 148.855 34.2433C147.621 34.6587 146.301 34.8666 144.896 34.8666Z" fill="white"/>
<path d="M158.628 34.4824L169.297 19.228V21.7775L159.232 7.16525H163.211L167.171 12.9763C167.721 13.7713 168.182 14.462 168.554 15.0494C168.928 15.636 169.279 16.2132 169.61 16.781C169.94 17.3492 170.3 18.0062 170.691 18.7516H170.105C170.495 18.0186 170.855 17.368 171.186 16.7998C171.516 16.232 171.876 15.6514 172.267 15.058C172.658 14.465 173.123 13.7713 173.662 12.9763L177.695 7.16525H181.599L171.534 21.6307V19.0999L182.094 34.4824H178.134L173.331 27.534C172.855 26.8125 172.436 26.1798 172.076 25.6368C171.714 25.0929 171.375 24.5486 171.058 24.0043C170.74 23.4604 170.392 22.8277 170.013 22.1071H170.764C170.397 22.7914 170.049 23.4083 169.719 23.9582C169.389 24.508 169.04 25.0588 168.674 25.6095C168.307 26.1593 167.874 26.801 167.373 27.534L162.533 34.4824H158.628Z" fill="white"/>
<path d="M195.826 34.8666C193.48 34.8666 191.387 34.2924 189.547 33.1436C187.707 31.9952 186.262 30.37 185.211 28.2683C184.16 26.1658 183.635 23.6901 183.635 20.8418C183.635 17.9823 184.16 15.5015 185.211 13.3999C186.262 11.2973 187.707 9.66824 189.547 8.51259C191.387 7.35737 193.48 6.77934 195.826 6.77934C198.185 6.77934 200.278 7.35737 202.105 8.51259C203.933 9.66824 205.373 11.2973 206.424 13.3999C207.474 15.5015 208 17.9823 208 20.8418C208 23.6901 207.474 26.1658 206.424 28.2683C205.373 30.37 203.933 31.9952 202.105 33.1436C200.278 34.2924 198.185 34.8666 195.826 34.8666ZM195.826 31.6767C197.464 31.6767 198.946 31.2614 200.273 30.4302C201.599 29.5994 202.656 28.3771 203.444 26.7639C204.233 25.151 204.627 23.177 204.627 20.8418C204.627 18.4955 204.233 16.5129 203.444 14.894C202.656 13.2743 201.599 12.0487 200.273 11.2175C198.946 10.3867 197.464 9.97092 195.826 9.97092C194.189 9.97092 192.704 10.3893 191.371 11.226C190.039 12.0628 188.978 13.2884 188.19 14.9026C187.401 16.5159 187.008 18.4955 187.008 20.8418C187.008 23.177 187.401 25.148 188.19 26.7553C188.978 28.3618 190.039 29.584 191.371 30.4216C192.704 31.2584 194.189 31.6767 195.826 31.6767Z" fill="white"/>
</svg>
