<svg width="344" height="65" viewBox="0 0 344 65" fill="none" xmlns="http://www.w3.org/2000/svg">
<mask id="mask0_111_480" style="mask-type:luminance" maskUnits="userSpaceOnUse" x="0" y="0" width="344" height="65">
<path d="M343.537 0H0V65H343.537V0Z" fill="white"/>
</mask>
<g mask="url(#mask0_111_480)">
<path d="M90.6437 29.7292C85.0411 28.6628 82.3336 28.0833 82.3336 25.3222C82.3336 22.7072 84.6077 21.3973 87.6951 21.3973C91.2257 21.3973 93.3975 23.3865 93.6921 26.2426H100.848C100.702 19.7513 95.6765 15.5854 87.7048 15.5854C79.7332 15.5854 75.0876 19.8511 75.0876 25.8603C75.0876 32.7387 80.0669 34.5356 85.8154 35.6484C91.4691 36.7634 94.2277 37.3406 94.2277 40.1991C94.2277 42.8628 91.7613 44.3138 88.4304 44.3138C84.2766 44.3138 81.6665 42.0348 81.4254 38.7429L74.2744 38.648C74.3693 45.5265 79.7356 50.0819 88.3404 50.0819C96.2656 50.0819 101.484 45.726 101.535 39.376C101.535 32.5464 96.4093 30.7982 90.6607 29.7365L90.6412 29.7244V29.7317L90.6437 29.7292Z" fill="white"/>
<path d="M145.651 24.5868C141.79 24.5868 139.262 27.4526 138.13 30.8589H136.338L137.921 27.2993C138.257 26.5419 138.432 25.7239 138.432 24.8961H130.636V49.7848H137.47V37.041C137.47 32.7289 139.506 30.2065 143.041 30.2065C146.577 30.2065 148.079 32.4367 148.079 36.6489V49.7799H154.913V35.8236C154.913 27.3455 150.794 24.5819 145.658 24.5819L145.651 24.5868Z" fill="white"/>
<path d="M201.175 24.5868C197.313 24.5868 194.787 27.4526 193.654 30.8589H191.862L193.444 27.2993C193.78 26.5419 193.956 25.7239 193.956 24.8961H186.157V49.7848H192.992V37.041C192.992 32.7289 195.027 30.2065 198.563 30.2065C202.098 30.2065 203.6 32.4367 203.6 36.6489V49.7799H210.435V35.8236C210.435 27.3455 206.315 24.5819 201.178 24.5819H201.175V24.5868Z" fill="white"/>
<path d="M182.656 24.8937H175.799V49.7825H182.659V24.8937H182.656Z" fill="white"/>
<path d="M247.01 14.9182L240.195 18.3562V49.7849H247.01V14.9182Z" fill="white"/>
<path d="M182.659 16.1574H175.799V23.0164H182.659V16.1574Z" fill="white"/>
<path d="M166.924 24.8935V16.0746L160.107 19.5126V24.8935H156.001V30.6495H160.107V46.1301C160.107 48.1461 161.743 49.7823 163.76 49.7823H172.627V44.0215H166.924V30.6495H172.627V24.8935H166.924Z" fill="white"/>
<path d="M212.563 37.3769C212.563 29.6245 217.649 24.5869 225.353 24.5869C233.057 24.5869 237.853 29.2374 237.902 36.554C237.902 37.2796 237.853 38.1049 237.707 38.8793H219.685V39.2177C219.831 42.7556 222.107 44.8859 225.548 44.8859C228.26 44.8859 230.198 43.6758 230.828 41.3482H237.563C236.79 46.1935 232.477 50.0697 225.791 50.0697C217.506 50.0697 212.563 45.0783 212.563 37.3745V37.3769ZM231.024 34.4211C230.588 31.3679 228.455 29.6733 225.405 29.6733C222.353 29.6733 220.22 31.4652 219.834 34.4211H231.024Z" fill="white"/>
<path d="M303.33 24.5868C299.468 24.5868 296.941 27.4526 295.809 30.8589H294.017L295.6 27.2993C295.935 26.5419 296.111 25.7239 296.111 24.8961H288.312V49.7848H295.146V37.041C295.146 32.7289 297.182 30.2065 300.717 30.2065C304.253 30.2065 305.755 32.4367 305.755 36.6489V49.7799H312.59V35.8236C312.59 27.3455 308.47 24.5819 303.333 24.5819H303.33V24.5868Z" fill="white"/>
<path d="M314.718 37.3769C314.718 29.6245 319.804 24.5869 327.508 24.5869C335.212 24.5869 340.008 29.2374 340.057 36.554C340.057 37.2796 340.008 38.1049 339.862 38.8793H321.839V39.2177C321.985 42.7556 324.263 44.8859 327.703 44.8859C330.415 44.8859 332.353 43.6758 332.984 41.3482H339.719C338.945 46.1935 334.632 50.0697 327.946 50.0697C319.661 50.0697 314.718 45.0783 314.718 37.3745V37.3769ZM333.179 34.4211C332.742 31.3679 330.61 29.6733 327.559 29.6733C324.508 29.6733 322.375 31.4652 321.988 34.4211H333.179Z" fill="white"/>
<path d="M103.239 37.3769C103.239 29.6245 108.326 24.5869 116.029 24.5869C123.733 24.5869 128.53 29.2374 128.579 36.554C128.579 37.2796 128.53 38.1049 128.384 38.8793H110.361V39.2177C110.507 42.7556 112.784 44.8859 116.224 44.8859C118.937 44.8859 120.875 43.6758 121.505 41.3482H128.24C127.466 46.1935 123.154 50.0697 116.468 50.0697C108.182 50.0697 103.239 45.0783 103.239 37.3745V37.3769ZM121.7 34.4211C121.264 31.3679 119.131 29.6733 116.081 29.6733C113.03 29.6733 110.897 31.4652 110.51 34.4211H121.702H121.7Z" fill="white"/>
<path d="M268.717 50.0748C258.742 50.0748 251.518 42.7142 251.518 32.8337C251.518 22.9533 258.742 15.5927 268.717 15.5927C278.693 15.5927 286.024 22.9533 286.024 32.8337C286.024 42.7142 278.693 50.0748 268.717 50.0748ZM268.717 43.9243C274.383 43.9243 278.565 39.2276 278.565 32.8337C278.565 26.4399 274.383 21.7432 268.717 21.7432C263.052 21.7432 258.927 26.4399 258.927 32.8337C258.927 39.2276 263.003 43.9243 268.717 43.9243Z" fill="white"/>
<path d="M340.259 23.2404H341.153C341.636 23.2404 341.959 23.5253 341.959 23.9709C341.959 24.2533 341.813 24.4773 341.584 24.5868L342.018 25.4317H341.497L341.126 24.6964H340.731V25.4317H340.262V23.238L340.259 23.2404ZM340.73 23.6299V24.3044H341.115C341.335 24.3044 341.477 24.173 341.477 23.9684C341.477 23.7639 341.335 23.6299 341.115 23.6299H340.73Z" fill="white"/>
<path d="M341.053 26.5808C339.838 26.5808 338.852 25.5923 338.852 24.3798C338.852 23.1672 339.841 22.1787 341.053 22.1787C342.265 22.1787 343.253 23.1672 343.253 24.3798C343.253 25.5923 342.265 26.5808 341.053 26.5808ZM341.053 22.6486C340.098 22.6486 339.321 23.4253 339.321 24.3798C339.321 25.3342 340.098 26.1109 341.053 26.1109C342.008 26.1109 342.784 25.3342 342.784 24.3798C342.784 23.4253 342.008 22.6486 341.053 22.6486Z" fill="white"/>
<path d="M26.4326 13.0287L52.4341 26.0283V13.002L26.4326 0V13.0287Z" fill="url(#paint0_linear_111_480)"/>
<path d="M26.4326 51.9714L52.4341 38.9694V51.9981L26.4326 65.0001V51.9714Z" fill="url(#paint1_linear_111_480)"/>
<path d="M26.4326 13.0287L0.431152 26.0283V13.002L26.4326 0V13.0287Z" fill="url(#paint2_linear_111_480)"/>
<path d="M26.4326 51.9714L0.431152 38.9694V51.9981L26.4326 65.0001V51.9714Z" fill="url(#paint3_linear_111_480)"/>
<path d="M6.92725 29.2595L32.9093 42.2516L45.9307 35.7361L19.9608 22.7512L6.92725 29.2595Z" fill="url(#paint4_linear_111_480)"/>
</g>
<defs>
<linearGradient id="paint0_linear_111_480" x1="52.2515" y1="19.4323" x2="26.4205" y2="6.50097" gradientUnits="userSpaceOnUse">
<stop stop-color="white"/>
</linearGradient>
<linearGradient id="paint1_linear_111_480" x1="52.2515" y1="45.5677" x2="26.4205" y2="58.4991" gradientUnits="userSpaceOnUse">
<stop stop-color="white"/>
</linearGradient>
<linearGradient id="paint2_linear_111_480" x1="0.613764" y1="19.4323" x2="26.4448" y2="6.50097" gradientUnits="userSpaceOnUse">
<stop stop-color="white"/>
</linearGradient>
<linearGradient id="paint3_linear_111_480" x1="0.613763" y1="45.5677" x2="26.4448" y2="58.4991" gradientUnits="userSpaceOnUse">
<stop stop-color="white"/>
</linearGradient>
<linearGradient id="paint4_linear_111_480" x1="40.3013" y1="39.4419" x2="12.3472" y2="25.4465" gradientUnits="userSpaceOnUse">
<stop stop-color="white"/>
</linearGradient>
</defs>
</svg>
