<svg width="242" height="80" viewBox="0 0 242 80" fill="none" xmlns="http://www.w3.org/2000/svg">
<path fill-rule="evenodd" clip-rule="evenodd" d="M43.8941 0.568091L42.2579 20.8311C41.4834 20.737 40.6989 20.6866 39.8975 20.6866C38.9017 20.6866 37.9226 20.7605 36.9671 20.9085L36.035 11.0828C36.0047 10.7769 36.2496 10.508 36.558 10.5114H38.2311L37.4231 0.568091C37.3962 0.262196 37.6376 0 37.9427 0H43.3677C43.6729 0 43.9109 0.262196 43.8874 0.568091H43.8941ZM30.201 1.57318C30.1205 1.27736 29.8054 1.11601 29.517 1.22022L24.4172 3.08249C24.1289 3.18669 23.9947 3.51611 24.1221 3.79511L28.2697 12.861L26.6939 13.4325C26.4055 13.5368 26.2646 13.8695 26.3987 14.1519L30.6234 23.0665C32.1557 22.2194 33.8154 21.5841 35.5689 21.1807L30.201 1.57318ZM17.6812 7.21711L29.4164 23.7926C27.9277 24.7641 26.5832 25.9339 25.4164 27.2684L18.3987 20.337C18.1775 20.1185 18.1942 19.7588 18.429 19.5605L19.7131 18.4847L12.7257 11.3887C12.5111 11.1702 12.5279 10.8173 12.7626 10.6189L16.9169 7.11963C17.1515 6.9213 17.5036 6.96836 17.6812 7.21711ZM7.83722 16.8141C7.58575 16.6427 7.2404 16.72 7.08617 16.9823L4.37369 21.695C4.21946 21.9606 4.32675 22.3001 4.60169 22.4312L13.5907 26.7036L12.7492 28.1557C12.595 28.4247 12.7022 28.7676 12.9839 28.8954L21.9395 32.9997C22.5899 31.329 23.455 29.7726 24.5145 28.3676L7.83722 16.8141ZM1.21527 29.6214C1.26891 29.3189 1.56397 29.1273 1.86237 29.2046L21.4767 34.341C20.9705 36.0015 20.6855 37.7596 20.6452 39.5781L10.8246 38.7881C10.5162 38.7646 10.2982 38.4789 10.3519 38.173L10.6469 36.5225L0.745868 35.5914C0.440756 35.5611 0.226171 35.2788 0.279817 34.9763L1.21862 29.618L1.21527 29.6214ZM0.474285 42.9026C0.169172 42.9329 -0.045412 43.2153 0.00823407 43.5178L0.950395 48.876C1.00404 49.1785 1.30245 49.3701 1.5975 49.2929L11.2203 46.7718L11.5086 48.4223C11.5623 48.7281 11.8674 48.9198 12.1624 48.8356L21.6545 46.207C21.0945 44.5565 20.7491 42.8119 20.6586 40.9966L0.474285 42.9026ZM3.61259 56.9839C3.45835 56.7184 3.56565 56.3789 3.84057 56.2477L22.154 47.5415C22.8514 49.1886 23.7735 50.7181 24.8766 52.0896L16.8497 57.8142C16.5982 57.9957 16.2462 57.915 16.0954 57.6495L15.2605 56.194L7.07946 61.8647C6.828 62.0396 6.48265 61.9622 6.32842 61.6967L3.61259 56.9839ZM25.802 53.1652L11.5556 67.6331C11.341 67.8516 11.3577 68.2045 11.5924 68.4029L15.75 71.8989C15.9847 72.0971 16.3367 72.0501 16.5145 71.8014L22.268 63.6665L23.5489 64.7489C23.7835 64.9472 24.1422 64.9003 24.3166 64.6448L29.9025 56.52C28.387 55.5922 27.009 54.4594 25.802 53.1652ZM22.9889 76.3931C22.7005 76.2889 22.5665 75.9595 22.6939 75.6805L31.1431 57.199C32.6989 57.9958 34.3752 58.5907 36.1389 58.9402L33.6611 68.4936C33.584 68.7927 33.2655 68.9609 32.9771 68.8532L31.4046 68.2751L28.7692 77.8924C28.6887 78.1881 28.3736 78.3495 28.0852 78.2452L22.9855 76.3864L22.9889 76.3931ZM37.5404 59.1655L35.9042 79.4319C35.8807 79.7378 36.1187 80 36.4239 80H41.8489C42.154 80 42.3954 79.7378 42.3686 79.4319L41.5605 69.492H43.2336C43.5421 69.4954 43.7835 69.2297 43.7566 68.9205L42.8246 59.0949C41.869 59.2395 40.89 59.3167 39.8941 59.3167C39.0961 59.3167 38.3116 59.263 37.5371 59.1689L37.5404 59.1655ZM57.1045 4.31615C57.2319 4.03715 57.0945 3.71108 56.8095 3.60351L51.7097 1.74461C51.4247 1.6404 51.1062 1.80175 51.0257 2.09756L48.3904 11.7148L46.8179 11.1366C46.5295 11.029 46.211 11.1971 46.1339 11.4963L43.6561 21.0496C45.4197 21.3993 47.0961 21.9943 48.6519 22.7909L57.1045 4.31279V4.31615ZM68.2393 12.3703L53.993 26.8381C52.7894 25.5406 51.4112 24.4078 49.8925 23.48L55.4784 15.3552C55.6527 15.1031 56.0115 15.0527 56.2461 15.2544L57.527 16.3369L63.2805 8.20203C63.4582 7.95328 63.8102 7.90621 64.045 8.10454L68.2025 11.6005C68.4372 11.7988 68.454 12.1551 68.2393 12.3703ZM75.9543 23.7556C76.2327 23.6245 76.3366 23.285 76.1823 23.0195L73.4666 18.3066C73.3123 18.0411 72.967 17.9637 72.7155 18.1386L64.5345 23.8094L63.6996 22.3539C63.5454 22.085 63.1934 22.0076 62.9452 22.1891L54.9184 27.9137C56.0215 29.2886 56.9435 30.8147 57.641 32.4619L75.9543 23.7556ZM78.8446 31.1308L79.7867 36.4889C79.8403 36.7949 79.6225 37.0771 79.3207 37.1041L59.1364 39.0034C59.0459 37.1881 58.7005 35.4435 58.1405 33.793L67.6325 31.1678C67.9276 31.0836 68.2327 31.2786 68.2863 31.5811L68.5714 33.2316L78.1941 30.7105C78.4892 30.6332 78.7876 30.8249 78.8412 31.1274L78.8446 31.1308ZM77.9326 50.7987C78.2276 50.8761 78.5261 50.6845 78.5797 50.382L79.5185 45.0238C79.5721 44.7213 79.3542 44.4389 79.0525 44.4086L69.1513 43.4775L69.4465 41.827C69.5001 41.5211 69.2821 41.2388 68.9737 41.2119L59.1531 40.4219C59.1129 42.2438 58.8279 43.9985 58.3216 45.6624L77.936 50.7954L77.9326 50.7987ZM72.7088 63.0245C72.5546 63.2868 72.2092 63.364 71.9577 63.1926L55.2739 51.6391C56.3334 50.234 57.2017 48.6776 57.8489 47.007L66.8044 51.1147C67.086 51.2425 67.1966 51.5887 67.0391 51.8542L66.1975 53.3065L75.1866 57.5789C75.4615 57.71 75.5688 58.0495 75.4146 58.315L72.7021 63.0279L72.7088 63.0245ZM50.3786 56.2108L62.1137 72.7896C62.2914 73.0384 62.6401 73.0854 62.8781 72.8871L67.0323 69.3878C67.2671 69.1895 67.2838 68.8331 67.0692 68.618L60.0819 61.5219L61.366 60.4462C61.6007 60.2479 61.6175 59.8882 61.3962 59.6731L54.3786 52.7418C53.2117 54.0729 51.8672 55.2426 50.3786 56.2141V56.2108ZM50.278 78.7831C49.993 78.8874 49.6745 78.726 49.594 78.4301L44.2227 58.826C45.9762 58.4226 47.636 57.784 49.1682 56.9403L53.3929 65.8549C53.527 66.1339 53.3895 66.47 53.0977 66.5742L51.522 67.1456L55.6695 76.2116C55.7969 76.4906 55.6594 76.8166 55.3744 76.9242L50.2746 78.7865L50.278 78.7831Z" fill="white"/>
<path d="M218.549 58.2159C211.797 58.2159 207.027 52.9246 207.027 45.98C207.027 39.0354 211.8 33.7441 218.549 33.7441C225.296 33.7441 229.936 39.0354 229.936 45.98C229.936 52.9246 225.234 58.2159 218.549 58.2159ZM217.457 65.5014C222.914 65.5014 227.55 63.372 230.479 58.9043C231.024 63.2336 234.16 64.8163 238.114 64.8163H241.25V57.9425H239.887C237.639 57.9425 237.092 56.8424 237.092 54.2981V27.147H229.866V32.7149C227.412 28.7971 222.776 26.4586 217.457 26.4586C207.981 26.4586 199.251 34.4325 199.251 45.98C199.251 57.5275 207.977 65.5014 217.457 65.5014ZM180.231 56.0831C180.231 62.2686 184.051 64.8129 188.616 64.8129H197.414V57.9391H191.004C188.345 57.9391 187.8 56.9065 187.8 54.2948V34.0175H197.414V27.1436H187.8V14.4995H180.231V56.0831ZM145.801 64.8129H153.369V48.6594H155.892L168.78 64.8129H178.326L161.895 44.3299L174.507 27.147H165.985L155.689 41.6505H153.369V14.4995H145.801V64.8129ZM121.255 26.4586C110.687 26.4586 101.96 34.4325 101.96 45.98C101.96 57.5275 110.687 65.5014 121.255 65.5014C131.822 65.5014 140.549 57.5275 140.549 45.98C140.549 34.4325 131.822 26.4586 121.255 26.4586ZM121.255 58.2125C114.503 58.2125 109.733 52.9213 109.733 45.9766C109.733 39.032 114.506 33.7408 121.255 33.7408C128.002 33.7408 132.776 39.032 132.776 45.9766C132.776 52.9213 128.002 58.2125 121.255 58.2125Z" fill="white"/>
</svg>
