<svg width="357" height="90" viewBox="0 0 357 90" fill="none" xmlns="http://www.w3.org/2000/svg">
<path d="M26.6513 9.27336C23.1594 5.13029 20.1524 0.922484 19.5381 0.0485517C19.4734 -0.0161839 19.3764 -0.0161839 19.3117 0.0485517C18.6974 0.922484 15.6905 5.13029 12.1985 9.27336C-17.774 47.4996 16.9191 73.2969 16.9191 73.2969L17.2101 73.4911C17.4687 77.4722 18.1154 83.2014 18.1154 83.2014H19.4087H20.702C20.702 83.2014 21.3487 77.5045 21.6074 73.4911L21.8984 73.2645C21.9307 73.2969 56.6239 47.4996 26.6513 9.27336ZM19.4087 72.7141C19.4087 72.7141 17.8568 71.3871 17.4364 70.7076V70.6425L19.3117 29.0177C19.3117 28.8882 19.5058 28.8882 19.5058 29.0177L21.381 70.6425V70.7076C20.9607 71.3871 19.4087 72.7141 19.4087 72.7141Z" fill="white"/>
<path d="M84.3349 64.2201L69.8779 28.9104L69.8456 28.8129H58.5975V31.1864H60.4127C60.9637 31.1864 61.4824 31.414 61.8715 31.8042C62.2603 32.1943 62.4549 32.7147 62.4549 33.2673L62.1308 68.8046C62.1308 69.9099 61.2234 70.8202 60.121 70.8529L58.2734 70.8853V73.2263H69.2298V70.8853L68.0951 70.8529C66.9931 70.8202 66.0853 69.9099 66.0853 68.8046V35.3156L81.8392 73.2263C82.0658 73.7789 82.5844 74.1367 83.1681 74.1367C83.7515 74.1367 84.2702 73.7789 84.4971 73.2263L99.8942 36.1609L100.121 68.8046C100.121 69.9426 99.2134 70.8529 98.079 70.8853H96.9119V73.2263H109.748V70.8853H107.998C106.896 70.8853 105.988 69.9426 105.956 68.837L105.859 33.2997C105.859 32.1618 106.766 31.2514 107.868 31.2189L109.748 31.1864V28.8129H98.7919L84.3349 64.2201Z" fill="white"/>
<path d="M185.137 70.2667C184.78 69.9086 184.585 69.4201 184.585 68.8338V51.3764C184.585 48.0545 183.61 45.4487 181.66 43.5924C179.742 41.7357 177.077 40.7914 173.763 40.7914C169.115 40.7914 165.443 42.6804 162.875 46.3934C162.843 46.4585 162.745 46.4912 162.648 46.4912C162.55 46.4912 162.485 46.4258 162.485 46.3283L161.283 41.6707H159.268L154.101 44.6345V46.2629H155.433C156.05 46.2629 156.57 46.4258 156.928 46.7518C157.286 47.0775 157.48 47.566 157.48 48.2497V68.8011C157.48 69.3874 157.286 69.8759 156.928 70.2343C156.57 70.5924 156.083 70.7879 155.498 70.7879H154.198V73.1655H166.093V70.7879H164.793C164.208 70.7879 163.72 70.5924 163.363 70.2343C163.005 69.8759 162.81 69.3874 162.81 68.8011V55.1872C162.81 53.461 163.2 51.7348 163.915 50.041C164.663 48.3802 165.768 46.9797 167.23 45.9049C168.693 44.83 170.448 44.3088 172.463 44.3088C174.737 44.3088 176.46 45.0253 177.532 46.4585C178.605 47.8917 179.157 49.748 179.157 51.9627V68.7687C179.157 69.3547 178.962 69.8432 178.605 70.2016C178.247 70.56 177.76 70.7552 177.175 70.7552H175.875V73.1328H187.77V70.7552H186.47C185.982 70.8206 185.527 70.6251 185.137 70.2667Z" fill="white"/>
<path d="M293.81 31.4715C290.522 29.7207 286.847 28.8129 282.882 28.8129H267.41V31.1797H268.925C269.505 31.1797 270.021 31.4066 270.537 31.9254C271.021 32.4116 271.278 32.963 271.278 33.5463V68.432C271.278 69.0154 271.021 69.5667 270.537 70.053C270.054 70.5392 269.505 70.7986 268.925 70.7986H267.41V73.1654H282.882C286.847 73.1654 290.522 72.2577 293.81 70.5069C297.098 68.7561 299.773 66.1623 301.707 62.8556C303.641 59.5486 304.64 55.5607 304.64 51.0216C304.64 46.4827 303.641 42.5272 301.707 39.1878C299.741 35.8161 297.098 33.2547 293.81 31.4715ZM298.419 50.9568C298.419 55.1068 297.678 58.6081 296.227 61.4288C294.777 64.2496 292.843 66.3568 290.457 67.7188C288.072 69.0805 285.429 69.7613 282.592 69.7613H279.466C278.885 69.7613 278.37 69.5343 277.854 69.0154C277.37 68.5291 277.113 67.9781 277.113 67.3944V34.4868C277.113 33.9031 277.338 33.3845 277.854 32.8655C278.337 32.3793 278.885 32.1199 279.466 32.1199H282.592C285.429 32.1199 288.072 32.8008 290.457 34.1624C292.843 35.5241 294.777 37.6316 296.227 40.4521C297.678 43.3052 298.419 46.8391 298.419 50.9568Z" fill="white"/>
<path d="M341.214 53.3237C339.783 51.67 337.021 50.276 333.774 49.5301C338.258 47.293 340.563 44.1482 340.563 40.0956C340.563 37.8909 339.98 35.9132 338.808 34.2272C337.639 32.5415 335.982 31.1797 333.871 30.2394C331.757 29.2992 329.287 28.8129 326.493 28.8129H308.979V31.1797H310.377C310.961 31.1797 311.481 31.4066 312.001 31.9254C312.489 32.4116 312.749 32.963 312.749 33.5463V68.432C312.749 69.0154 312.489 69.5667 312.001 70.053C311.514 70.5392 310.961 70.7986 310.377 70.7986H308.849V73.1654H327.859C330.75 73.1654 333.447 72.6792 335.885 71.7063C338.323 70.7338 340.271 69.3074 341.67 67.4268C343.098 65.5465 343.813 63.2444 343.813 60.5858C343.781 57.7327 342.936 55.3011 341.214 53.3237ZM319.41 69.0478C318.922 68.5615 318.662 68.0105 318.662 67.4268V51.7671H327.697C330.88 51.7671 333.317 52.5778 335.007 54.1987C336.697 55.82 337.542 57.9273 337.542 60.5211C337.542 62.0773 337.151 63.6011 336.438 64.9952C335.69 66.4219 334.583 67.5566 333.091 68.432C331.628 69.3074 329.808 69.7613 327.697 69.7613H321.034C320.45 69.7613 319.93 69.5344 319.41 69.0478ZM318.695 48.4277V34.5192C318.695 33.9355 318.922 33.4168 319.442 32.8979C319.93 32.4116 320.482 32.1523 321.067 32.1523H325.357C328.442 32.1523 330.718 32.9306 332.149 34.4217C333.576 35.9456 334.292 37.8909 334.292 40.2902C334.292 42.7542 333.609 44.7319 332.278 46.2231C330.944 47.6822 328.931 48.4277 326.266 48.4277H318.695Z" fill="white"/>
<path d="M139.856 42.8594C137.373 41.5023 134.6 40.7914 131.601 40.7914C128.602 40.7914 125.797 41.4699 123.346 42.8594C120.863 44.2162 118.896 46.1872 117.445 48.6751C115.994 51.1631 115.252 54.0712 115.252 57.3022C115.252 60.5331 115.994 63.4413 117.445 65.9292C118.896 68.4172 120.863 70.3881 123.346 71.7452C125.829 73.102 128.602 73.813 131.601 73.813C134.6 73.813 137.405 73.1344 139.856 71.7452C142.339 70.3881 144.306 68.4172 145.757 65.9292C147.208 63.4413 147.95 60.5331 147.95 57.3022C147.95 54.0712 147.208 51.1631 145.757 48.6751C144.306 46.1872 142.339 44.2162 139.856 42.8594ZM142.242 57.3022C142.242 61.2764 141.275 64.5073 139.34 66.8337C137.438 69.1601 134.826 70.3557 131.601 70.3557C128.376 70.3557 125.764 69.1601 123.862 66.8337C121.927 64.5073 120.96 61.2764 120.96 57.3022C120.96 53.3279 121.927 50.097 123.862 47.7706C125.764 45.4442 128.376 44.2486 131.601 44.2486C134.826 44.2486 137.438 45.4442 139.34 47.7706C141.275 50.097 142.242 53.3279 142.242 57.3022Z" fill="white"/>
<path d="M254.136 42.8594C251.653 41.5023 248.88 40.7914 245.881 40.7914C242.882 40.7914 240.077 41.4699 237.626 42.8594C235.143 44.2162 233.176 46.1872 231.725 48.6751C230.274 51.1631 229.532 54.0712 229.532 57.3022C229.532 60.5331 230.274 63.4413 231.725 65.9292C233.176 68.4172 235.143 70.3881 237.626 71.7452C240.109 73.102 242.882 73.813 245.881 73.813C248.88 73.813 251.686 73.1344 254.136 71.7452C256.619 70.3881 258.586 68.4172 260.037 65.9292C261.488 63.4413 262.23 60.5331 262.23 57.3022C262.23 54.0712 261.488 51.1631 260.037 48.6751C258.586 46.1872 256.587 44.2162 254.136 42.8594ZM256.523 57.3022C256.523 61.2764 255.555 64.5073 253.62 66.8337C251.718 69.1601 249.106 70.3557 245.881 70.3557C242.656 70.3557 240.044 69.1601 238.142 66.8337C236.207 64.5073 235.24 61.2764 235.24 57.3022C235.24 53.2956 236.207 50.097 238.142 47.7706C240.044 45.4442 242.656 44.2486 245.881 44.2486C249.106 44.2486 251.718 45.4442 253.62 47.7706C255.523 50.097 256.523 53.3279 256.523 57.3022Z" fill="white"/>
<path d="M208.049 40.7914C205.451 40.7914 203.08 41.343 200.937 42.4467C198.793 43.5503 197.105 45.0437 195.903 46.9586C194.701 48.8412 194.084 50.9513 194.084 53.191C194.084 55.2034 194.539 57.0535 195.481 58.7091C196.39 60.2997 197.624 61.6303 199.183 62.7339L194.539 69.0313C193.954 69.8102 193.889 70.8488 194.312 71.6928C194.766 72.5691 195.611 73.0887 196.585 73.0887H197.917C196.617 73.9651 195.578 75.0037 194.864 76.2371C194.019 77.6328 193.597 79.0935 193.597 80.5866C193.597 83.3782 194.831 85.6829 197.267 87.4033C199.67 89.1236 203.047 90 207.302 90C210.257 90 213.082 89.5131 215.648 88.5717C218.246 87.6305 220.357 86.2346 221.916 84.4171C223.507 82.5993 224.319 80.392 224.319 77.86C224.319 75.1986 223.345 73.3157 221.071 71.4982C219.123 69.9724 216.07 69.1611 212.271 69.1611H199.28C199.248 69.1611 199.215 69.1284 199.215 69.1284C199.215 69.1284 199.183 69.0637 199.215 69.0313L202.593 64.4869C203.502 64.9088 204.347 65.1684 205.094 65.3306C205.873 65.4931 206.75 65.5579 207.724 65.5579C210.452 65.5579 212.92 65.0062 215.063 63.9026C217.207 62.799 218.928 61.3059 220.162 59.3906C221.396 57.5081 222.013 55.3982 222.013 53.1586C222.013 50.7565 220.844 46.3743 217.661 44.1347C217.661 44.1023 217.694 44.1023 217.694 44.1023L224.676 44.8812V41.6677H213.505C211.751 41.1161 209.932 40.7914 208.049 40.7914ZM211.946 61.111C210.712 61.7601 209.38 62.1172 208.049 62.1172C205.873 62.1172 203.957 61.3382 202.333 59.8128C200.709 58.287 199.897 56.0473 199.897 53.191C199.897 50.3346 200.709 48.0947 202.333 46.5692C203.957 45.0437 205.873 44.2645 208.049 44.2645C209.413 44.2645 210.712 44.5892 211.946 45.2707C213.18 45.9201 214.187 46.9263 214.999 48.2572C215.778 49.5881 216.2 51.2434 216.2 53.191C216.2 55.171 215.81 56.8263 214.999 58.1248C214.219 59.4557 213.18 60.4619 211.946 61.111ZM203.145 73.056H211.946C214.382 73.056 215.94 73.543 216.98 74.5818C218.019 75.6204 218.539 77.016 218.539 78.6393C218.539 81.0087 217.597 82.9564 215.713 84.4171C213.829 85.8778 211.296 86.6243 208.179 86.6243C205.451 86.6243 203.177 86.0076 201.521 84.8389C199.865 83.6705 199.02 81.8851 199.02 79.6131C199.02 78.1847 199.41 76.8538 200.19 75.6855C200.969 74.5168 201.911 73.6728 203.145 73.056Z" fill="white"/>
<path d="M350.401 72.6238C349.76 72.2732 349.278 71.7633 348.892 71.1579C348.539 70.5208 348.345 69.8516 348.345 69.1187C348.345 68.3857 348.539 67.6848 348.892 67.0794C349.245 66.442 349.76 65.9641 350.401 65.6135C351.045 65.2632 351.751 65.0719 352.554 65.0719C353.357 65.0719 354.062 65.2632 354.707 65.6135C355.348 65.9641 355.83 66.474 356.215 67.0794C356.568 67.7165 356.762 68.3857 356.762 69.1187C356.762 69.8516 356.568 70.5525 356.215 71.1579C355.862 71.7953 355.348 72.2732 354.707 72.6238C354.062 72.9741 353.357 73.1654 352.554 73.1654C351.783 73.1654 351.045 73.0061 350.401 72.6238ZM354.354 72.1777C354.898 71.8909 355.286 71.4447 355.607 70.9348C355.895 70.3932 356.057 69.7878 356.057 69.1187C356.057 68.4495 355.895 67.8441 355.607 67.3025C355.315 66.7609 354.898 66.3465 354.354 66.0596C353.807 65.7728 353.227 65.6135 352.554 65.6135C351.88 65.6135 351.301 65.7728 350.754 66.0596C350.21 66.3465 349.821 66.7926 349.501 67.3025C349.213 67.8441 349.051 68.4495 349.051 69.1187C349.051 69.7878 349.213 70.3932 349.501 70.9348C349.792 71.4765 350.21 71.8909 350.754 72.1777C351.301 72.4645 351.88 72.6238 352.554 72.6238C353.227 72.6238 353.839 72.4645 354.354 72.1777ZM350.819 71.0624V70.7756L350.883 70.7438H351.078C351.139 70.7438 351.204 70.7118 351.236 70.6801C351.301 70.6163 351.301 70.5846 351.301 70.5208V67.5573C351.301 67.4935 351.269 67.43 351.236 67.398C351.171 67.3342 351.139 67.3342 351.078 67.3342H350.883L350.819 67.3025V67.0156L350.883 66.9839H352.554C353.036 66.9839 353.389 67.0794 353.677 67.3025C353.969 67.5255 354.095 67.8124 354.095 68.1947C354.095 68.4815 354.001 68.768 353.774 68.9594C353.551 69.1824 353.292 69.31 352.971 69.3417L353.357 69.4693L354.095 70.648C354.16 70.7438 354.224 70.7756 354.321 70.7756H354.512L354.545 70.8076V71.0941L354.512 71.1262H353.519L353.454 71.0941L352.424 69.3734H352.169V70.5208C352.169 70.5846 352.201 70.648 352.233 70.6801C352.298 70.7438 352.33 70.7438 352.392 70.7438H352.586L352.651 70.7756V71.0624L352.586 71.0941H350.883L350.819 71.0624ZM352.457 68.9594C352.716 68.9594 352.939 68.8956 353.069 68.7363C353.195 68.6088 353.292 68.3857 353.292 68.1309C353.292 67.8758 353.227 67.6848 353.101 67.5255C352.971 67.3662 352.777 67.3025 352.554 67.3025H352.424C352.36 67.3025 352.298 67.3342 352.266 67.3663C352.201 67.4297 352.201 67.4618 352.201 67.5255V68.9594H352.457Z" fill="white"/>
</svg>
