<svg width="790" height="169" viewBox="0 0 790 169" fill="none" xmlns="http://www.w3.org/2000/svg">
<path d="M23.0999 31.0999L23.6999 31.3999C31.1999 13.9999 45.7999 4.3999 69.3999 4.3999C73.3999 4.3999 77.4999 4.9999 81.7999 6.1999L83.3999 22.2999C77.1999 20.4999 71.2999 19.1999 65.0999 19.1999C36.7999 19.1999 23.1999 45.5999 23.1999 70.9999V161H4.3999V7.7999H22.9999V31.0999H23.0999Z" fill="white"/>
<path d="M27.5 165.6H0V3.4H27.5V16.7C36.9 5.6 50.9 0 69.4 0C73.8 0 78.2 0.7 83 2L85.9 2.8L88.4 28.4L82.1 26.6C75.4 24.6 70.1 23.7 65 23.7C39.3 23.7 27.5 48.3 27.5 71.1V165.6ZM8.9 156.8H18.7V71.2C18.7 44.1 33.2 14.9 65 14.9C69.2 14.9 73.5 15.4 78.3 16.5L77.6 9.8C74.7 9.2 72 8.9 69.3 8.9C48.3 8.9 34.7 16.9 27.7 33.2L25.7 37.8L18.7 33.6V12.2H8.9V156.8Z" fill="white"/>
<path d="M200.9 66.8H200.3C181.4 90.4 107.8 83 107.8 124.9C107.8 137 117.8 152.5 147.2 152.5C159.3 152.5 171.2 150 182 146L178.6 160.9C168.4 163.5 157.5 164.6 139.2 164.6C103.8 164.6 89.1997 142.6 89.1997 123.7C89.1997 86.7 133.6 78.4 165.5 70.3C180.4 66.6 200.9 60.1 200.9 41.1C200.9 20 176.3 16.5 160.5 16.5C141.6 16.5 122.7 20.3 104.7 29.3L107.5 12.2C124.9 7.5 142.6 4.5 160.9 4.5C196.2 4.5 219.5 15.4 219.5 43.3V161.3H200.9V66.8Z" fill="white"/>
<path d="M139.2 169C101.8 169 84.7998 145.5 84.7998 123.6C84.7998 85.6 127.1 75.2 158 67.5L164.5 65.9C180.4 62 196.6 55.9 196.6 41C196.6 24.3 177 20.8 160.6 20.8C141.2 20.8 123 24.9 106.7 33.1L98.9998 37L103.7 8.6L106.4 7.9C126.3 2.6 144.1 0 161 0C213.1 0 224 23.5 224 43.2V165.6H196.6V76.1C187.5 82.3 174.6 85.9 161.1 89.6C136 96.5 112.4 103.1 112.4 125C112.4 135.7 121.6 148.2 147.4 148.2C158.3 148.2 169.7 146 180.6 142L188.3 139.1L182.4 164.6L179.8 165.2C168.5 167.9 157.2 169 139.2 169ZM160.6 12.1C189.5 12.1 205.4 22.4 205.4 41.1C205.4 64.9 178.3 71.7 166.7 74.5L160.2 76.1C129 83.8 93.6998 92.6 93.6998 123.6C93.6998 141.8 107.8 160.2 139.3 160.2C155.1 160.2 165.4 159.3 175 157.2L176.1 152.7C166.5 155.5 156.9 156.9 147.4 156.9C117.1 156.9 103.6 140.8 103.6 124.9C103.6 96.3 132.9 88.2 158.8 81C175 76.5 190.4 72.3 197 64L198.3 62.3H205.4V156.7H215.2V43.2C215.2 20 197.5 8.8 161 8.8C145.7 8.8 129.5 11.1 111.5 15.7L110.5 21.8C125.9 15.3 142.7 12.1 160.6 12.1Z" fill="white"/>
<path d="M273.9 35.0999L274.5 35.7999C281.6 17.1999 301.2 4.3999 324.1 4.3999C346.5 4.3999 366.3 14.2999 371.9 37.2999H372.5C382.1 15.2999 401 4.3999 425.6 4.3999C452.6 4.3999 474.3 17.6999 474.3 46.2999V161.2H455.7V52.4999C455.7 35.9999 446 19.2999 420 19.2999C382.7 19.2999 374 55.5999 374 74.2999V161.2H355.5V52.4999C355.5 35.9999 345.8 19.2999 319.8 19.2999C282.5 19.2999 273.9 55.5999 273.9 74.2999V161.2H255.2V7.7999H273.9V35.0999Z" fill="white"/>
<path d="M478.8 165.6H451.4V52.5C451.4 45.7 449.1 23.7 420.1 23.7C379 23.7 378.5 72.2 378.5 74.3V165.6H351.2V52.5C351.2 45.7 348.9 23.7 319.9 23.7C305.2 23.7 294 29.9 286.7 42C279 55 278.3 69.9 278.3 74.2V165.6H250.8V3.4H278.3V20.7C288.8 7.9 305.7 0 324.1 0C347.3 0 364.9 9.9 373 27C384 9.5 402.4 0 425.7 0C458.5 0 478.8 17.8 478.8 46.3V165.6ZM460.2 156.8H470V46.4C470 22.9 453.4 8.9 425.7 8.9C402.3 8.9 385.3 19.4 376.6 39.1L375.5 41.7H368.5L367.7 38.3C361.2 11.7 335.1 8.8 324.2 8.8C303.5 8.8 285.3 20.3 278.8 37.3L277.9 39.7C285.2 26 298.2 14.9 319.9 14.9C349.5 14.9 360.1 35.2 360.1 52.5V156.8H369.8V74.3C369.8 52.2 380.4 14.9 420.2 14.9C449.8 14.9 460.3 35.2 460.3 52.5L460.2 156.8ZM259.7 156.8H269.5V74.3C269.5 65.4 271.2 54.1 275.9 43.7L269.5 36.9V12.2H259.7V156.8Z" fill="white"/>
<path d="M616.6 160.3C604.9 163.1 592.1 164.6 579 164.6C532.8 164.6 503.3 134.5 503.3 84.4999C503.3 19.2999 547.7 4.3999 579 4.3999C590.8 4.3999 605.1 6.1999 619.1 10.5999L621.6 26.9999C607.4 21.7999 593.1 17.9999 579.1 17.9999C540.4 17.9999 522.1 42.4999 522.1 84.4999C522.1 118.6 537 151 579.1 151C595.9 151 607.7 147.3 619.7 143.5L616.6 160.3Z" fill="white"/>
<path d="M579 169C529.6 169 498.9 136.6 498.9 84.5C498.9 6.1 560.2 0 579 0C592.4 0 607.1 2.3 620.4 6.4L623 7.2L626.9 33.7L619.9 31.2C603.7 25.3 590.6 22.5 578.9 22.5C544 22.5 526.3 43.4 526.3 84.6C526.3 103.3 531.4 146.7 578.9 146.7C595 146.7 606.2 143.2 618.1 139.5L625.1 137.3L623.9 144.4L620.3 164L617.5 164.7C605.2 167.5 592.2 169 579 169ZM579 8.8C557.6 8.8 507.7 16.2 507.7 84.5C507.7 131.2 535 160.2 579 160.2C590.5 160.2 601.8 159 612.8 156.6L614 149.8C603.9 152.8 593.1 155.3 579 155.3C540.5 155.3 517.6 128.8 517.6 84.4C517.6 38.7 539.4 13.5 579 13.5C590.1 13.5 602 15.7 616.1 20.3L615.1 13.9C603.4 10.7 590.7 8.8 579 8.8Z" fill="white"/>
<path d="M785.5 84.4999C785.5 134.5 756 164.6 709.8 164.6C663.6 164.6 634.1 134.5 634.1 84.4999C634.1 19.2999 678.5 4.3999 709.8 4.3999C741 4.3999 785.5 19.2999 785.5 84.4999ZM652.7 84.4999C652.7 118.6 667.6 151 709.8 151C752 151 766.9 118.7 766.9 84.4999C766.9 42.5999 748.6 17.9999 709.8 17.9999C670.9 18.0999 652.7 42.5999 652.7 84.4999Z" fill="white"/>
<path d="M709.7 169C660.3 169 629.5 136.6 629.5 84.5C629.5 6.1 690.9 0 709.7 0C728.5 0 789.9 6.1 789.9 84.5C789.9 136.6 759.2 169 709.7 169ZM709.7 8.8C688.3 8.8 638.4 16.2 638.4 84.5C638.4 131.9 665.1 160.2 709.7 160.2C754.4 160.2 781 131.9 781 84.5C781.1 16.2 731.2 8.8 709.7 8.8ZM709.7 155.4C671.2 155.4 648.2 128.9 648.2 84.5C648.2 38.8 670.1 13.6 709.7 13.6C749.4 13.6 771.2 38.8 771.2 84.5C771.2 128.9 748.2 155.4 709.7 155.4ZM709.7 22.5C674.8 22.5 657 43.4 657 84.6C657 103.3 662.1 146.7 709.7 146.7C757.2 146.7 762.4 103.3 762.4 84.6C762.4 43.4 744.7 22.5 709.7 22.5Z" fill="white"/>
</svg>
