<svg width="408" height="60" viewBox="0 0 408 60" fill="none" xmlns="http://www.w3.org/2000/svg">
<path d="M400.347 51.5436L397.125 42.6846H381.418L378.195 51.5436H370.543L385.042 10.4698H393.5L408 51.5436H400.347ZM389.473 19.3289L383.834 35.4362H395.112L389.473 19.3289ZM356.849 16.9128V51.1409H349.599V16.9128H338.322V10.0671H368.126V16.9128H356.849ZM302.879 51.5436V10.0671H327.447V16.9128H310.128V27.3826H327.044V34.2282H310.128V44.2953H327.85V51.1409H302.879M279.921 51.9463L282.74 57.9866H275.088L272.671 51.9463H268.241C266.63 51.9463 265.019 51.5436 263.81 50.7383C262.199 49.9329 259.783 47.1141 258.977 45.906C257.769 44.2953 257.769 43.0872 257.769 41.8792V20.1342C257.769 18.9262 258.172 17.3154 258.977 16.1074C259.783 14.8993 262.602 12.0805 263.81 11.2752C265.019 10.4698 266.63 10.0671 268.241 10.0671H278.713C280.324 10.0671 281.935 10.4698 283.143 11.2752C284.754 12.0805 287.171 14.8993 287.976 16.1074C288.782 17.3154 289.185 18.5235 289.185 20.1342V41.4765C289.185 42.6846 288.782 44.2953 287.976 45.5034C287.171 46.7114 284.351 49.5302 283.143 50.3356C281.532 51.1409 281.129 51.5436 279.921 51.9463ZM265.019 41.4765C265.824 43.0873 267.435 44.698 268.241 45.1007H268.644H269.852L268.644 42.6846L275.088 40.6711L277.102 45.1007H277.907H278.31C279.115 44.698 280.324 43.0872 281.129 41.8792V41.4765V20.1342V19.7315C280.324 18.5235 279.115 17.3154 278.31 16.9128H277.907H267.838H267.435C267.033 17.3154 265.824 18.9262 265.019 20.1342V20.5369V41.4765ZM237.631 51.5436L228.367 35.0336H221.923V51.5436H214.673V10.0671H233.603C235.214 10.0671 237.228 10.4698 238.436 11.6779C239.242 12.4832 241.256 14.4966 242.061 15.302C242.867 16.5101 243.269 18.1208 243.269 19.3289V25.3691C243.269 26.9799 242.867 28.1879 242.061 29.396C241.256 30.2013 239.242 32.2148 238.436 33.0201C238.034 33.4228 236.825 33.8255 236.02 34.2282L245.686 51.1409H237.631M236.422 19.7315V19.3289C236.02 18.5235 234.811 17.3154 234.409 17.3154H234.006H221.923V28.1879H234.006C234.811 28.1879 236.02 26.9799 236.422 25.7718V25.3691V19.7315ZM197.757 51.5436L194.535 42.6846H178.827L175.605 51.5436H167.953L182.452 10.4698H190.91L205.41 51.5436H197.757ZM186.883 19.3289L181.244 35.4362H192.521L186.883 19.3289ZM149.425 51.5436V23.3557L141.37 41.4765H136.537L128.482 23.3557V51.5436H121.232V10.0671H129.287L138.954 30.2013L148.217 10.0671H156.272V51.1409H149.425M0 0H34.2349L54.7759 29.7987L39.4709 52.349H50.7483L66.0533 29.7987L45.9151 0H80.15L100.691 29.7987L80.15 59.5973H68.8727L89.4136 29.7987L74.1086 7.24832H62.8312L78.1362 29.7987L57.5953 59.5973H22.9575L43.4985 29.7987L28.1935 7.65101H16.5133L31.8184 30.2013L11.2774 60H0L20.541 30.2013L0 0Z" fill="white"/>
</svg>
