<svg xmlns="http://www.w3.org/2000/svg" width="100" height="100" viewBox="0 0 100 100" fill="none"><metadata><rdf:RDF xmlns:rdf="http://www.w3.org/1999/02/22-rdf-syntax-ns#" xmlns:dc="http://purl.org/dc/elements/1.1/"><rdf:Description><dc:creator>RealFaviconGenerator</dc:creator><dc:source>https://realfavicongenerator.net</dc:source></rdf:Description></rdf:RDF></metadata><rect width="100" height="100" fill="#1800AD"></rect><path d="M76.0176 64.32C77.5005 63.9677 79.2941 63.3063 79.4625 61.7911C79.5483 61.0192 79.1494 60.2855 78.7639 59.6111C77.6036 57.5817 76.4427 55.5524 75.2824 53.523C75.0287 53.0795 74.4614 52.9294 74.0209 53.1885C67.5929 56.9708 61.0836 60.6149 54.4984 64.1168C51.1541 65.896 47.79 67.638 44.407 69.3439C42.0149 70.5493 39.4425 71.3812 37.1094 72.7085C35.9748 73.3541 34.7352 73.8724 36.0774 74.6706C37.317 75.4083 39.9518 74.7072 41.239 74.4927C47.2603 73.4899 53.1647 71.5943 58.9769 69.772C64.6291 67.9997 70.251 65.6914 76.0176 64.32Z" fill="white"></path><path d="M67.3595 31.7634C66.9487 30.6264 65.1259 29.2391 64.3515 28.5004C62.7671 26.9892 58.6553 23.1276 56.6615 26.0855C54.6485 29.0716 37.5032 58.7366 33.5732 66.2874C33.1199 67.1584 34.1698 68.0373 34.9472 67.4373C40.5874 63.0837 45.5965 57.8022 50.5045 52.6623C55.5587 47.3683 67.6865 33.4847 67.4249 32.0052C67.411 31.9259 67.3887 31.8452 67.3595 31.7634Z" fill="white"></path><mask id="mask0_283_1037" style="mask-type:luminance" maskUnits="userSpaceOnUse" x="21" y="26" width="13" height="39">
<path d="M21 26.3948H33.4266V64.1922H21V26.3948Z" fill="white"></path>
</mask><g mask="url(#mask0_283_1037)">
<path d="M32.8101 27.1888C32.3261 26.7855 31.519 26.7722 30.4919 26.7306C27.9556 26.628 25.4194 26.521 22.8831 26.4159C22.3941 26.3961 21.8536 26.3927 21.4825 26.7117C21.0386 27.0932 21.0257 27.7636 21.0499 28.3482C21.5137 39.604 21.7198 52.5062 24.8154 63.4989C25.0567 64.3546 26.2522 64.3992 26.5599 63.5648C28.9579 57.0664 30.1114 49.9759 31.3208 43.1817C31.9465 39.6684 32.5252 36.1418 32.9553 32.5987C33.1029 31.3834 33.2496 30.1616 33.3095 28.9378C33.3551 28.0158 33.1738 27.4921 32.8101 27.1888Z" fill="white"></path>
</g></svg>