<svg width="82" height="76" viewBox="0 0 82 76" fill="none" xmlns="http://www.w3.org/2000/svg">
<path d="M43.7754 0.0602155C43.9845 0.0584266 43.9845 0.0584266 44.1978 0.0566016C44.6583 0.0530298 45.1187 0.0509057 45.5792 0.049094C45.7369 0.0483544 45.8946 0.0476147 46.0571 0.0468526C46.8919 0.0430706 47.7267 0.0404734 48.5615 0.0387701C49.4215 0.0367634 50.2815 0.0305205 51.1415 0.0233124C51.8048 0.0185564 52.4681 0.0170468 53.1314 0.0163959C53.4483 0.0155146 53.7652 0.0134119 54.0821 0.010037C54.5269 0.00559488 54.9714 0.00578805 55.4162 0.00704508C55.5456 0.0047202 55.675 0.00239533 55.8083 0C56.7787 0.00993268 57.5477 0.272039 58.3542 0.818293C59.3144 2.00003 59.299 3.03328 59.307 4.49343C59.3127 4.74294 59.3127 4.74294 59.3184 4.99749C59.3246 6.09367 59.1848 6.90073 58.7172 7.89634C57.9566 8.65691 57.2505 8.96822 56.1785 9.02072C55.9169 9.01867 55.6553 9.01399 55.3937 9.00796C54.7031 8.99673 54.7031 8.99673 53.9985 8.98527C53.9985 10.1831 53.9985 11.3809 53.9985 12.615C54.2792 12.6225 54.56 12.63 54.8492 12.6377C60.0163 13.081 64.983 15.7327 69.062 18.7856C69.4214 18.4862 69.7807 18.1867 70.151 17.8782C70.0574 17.7023 69.9638 17.5263 69.8674 17.3451C69.5251 16.5136 69.4695 15.8247 69.788 14.9744C70.6036 13.8256 71.8709 12.3442 73.2362 11.8891C74.3576 11.7972 74.8753 11.9292 75.7771 12.615C76.1952 12.9847 76.5891 13.3761 76.9823 13.772C77.0927 13.8821 77.2031 13.9921 77.3168 14.1055C77.5484 14.3369 77.7796 14.5688 78.0104 14.8011C78.3635 15.1561 78.7184 15.5091 79.0736 15.862C79.2992 16.0878 79.5246 16.3137 79.75 16.5397C79.9088 16.6974 79.9088 16.6974 80.0708 16.8583C80.9196 17.717 81.2553 18.2438 81.2877 19.4939C81.1049 20.5492 80.2475 21.2726 79.5203 21.9957C79.4178 22.1011 79.3153 22.2065 79.2098 22.3151C78.5573 22.9683 78.0011 23.4911 77.0298 23.5129C76.3704 23.4132 75.8091 23.3202 75.2326 22.9599C74.9931 23.1994 74.7535 23.439 74.5067 23.6858C74.7504 24.3732 75.0584 24.8809 75.5048 25.4553C80.4601 32.1553 82.3438 40.7168 81.199 48.9354C79.9148 57.1021 75.3752 64.8132 68.6831 69.7083C61.6122 74.7498 53.0053 76.9879 44.3796 75.5915C37.7969 74.3522 31.4672 71.4285 26.8944 66.4136C26.5725 65.9414 26.507 65.7771 26.5938 65.224C26.686 64.7448 26.7571 64.5431 27.0702 64.1577C27.7123 63.8874 28.0774 63.8605 28.7717 63.9763C29.1435 64.227 29.4487 64.5152 29.7734 64.8249C35.2653 69.9708 42.7833 72.8933 50.3142 72.721C57.6173 72.4535 64.3601 69.584 69.6065 64.5207C69.759 64.3797 69.9116 64.2386 70.0687 64.0932C75.0236 59.383 78.012 52.2209 78.191 45.4169C78.1945 44.9677 78.1952 44.5185 78.1931 44.0692C78.1921 43.8312 78.1911 43.5932 78.19 43.348C78.1371 39.0905 77.0896 35.134 75.2326 31.3083C75.1789 31.1955 75.1252 31.0826 75.0698 30.9664C71.9399 24.4648 65.9779 19.4473 59.2131 17.0688C57.4394 16.4751 55.6696 15.9724 53.817 15.7003C53.6067 15.6674 53.3964 15.6344 53.1797 15.6004C49.3901 15.1442 45.4175 15.4531 41.7559 16.5078C40.9802 16.6758 40.3988 16.7045 39.6836 16.3469C39.1955 15.7582 39.1902 15.3946 39.1775 14.6511C39.3651 14.0242 39.6473 13.8619 40.2054 13.5225C40.8235 13.3094 41.4504 13.1643 42.0884 13.0234C42.2554 12.9834 42.4224 12.9434 42.5945 12.9022C43.5497 12.6825 44.2762 12.615 45.2871 12.615C45.2871 11.4172 45.2871 10.2194 45.2871 8.98527C44.3886 9.00662 44.3886 9.00662 43.4902 9.03432C42.4551 9.04659 41.5995 8.86962 40.7967 8.16219C39.8966 6.94865 39.9788 6.07338 39.9672 4.58418C39.9593 4.24975 39.9593 4.24975 39.9513 3.90856C39.9369 1.86924 39.9369 1.86924 40.7499 0.999781C41.7233 0.0993376 42.4888 0.0650134 43.7754 0.0602155ZM43.1092 3.17764C43.1092 4.07601 43.1092 4.97438 43.1092 5.89997C47.4214 5.89997 51.7335 5.89997 56.1764 5.89997C56.1764 5.0016 56.1764 4.10323 56.1764 3.17764C51.8642 3.17764 47.5521 3.17764 43.1092 3.17764ZM48.1909 8.98527C48.1909 10.0633 48.1909 11.1414 48.1909 12.2521C49.0893 12.2521 49.9876 12.2521 50.9132 12.2521C50.9132 11.174 50.9132 10.096 50.9132 8.98527C50.0148 8.98527 49.1165 8.98527 48.1909 8.98527ZM73.7807 15.3374C73.5411 15.6368 73.3016 15.9363 73.0548 16.2448C74.3125 17.5025 75.5702 18.7602 76.866 20.0561C77.1655 19.7566 77.4649 19.4572 77.7735 19.1486C77.7136 19.0288 77.6537 18.9091 77.592 18.7856C77.4722 18.7856 77.3524 18.7856 77.229 18.7856C77.229 18.6659 77.229 18.5461 77.229 18.4227C76.9658 18.1565 76.9658 18.1565 76.6165 17.8782C75.806 17.1924 75.0671 16.449 74.3259 15.6897C74.0249 15.3163 74.0249 15.3163 73.7807 15.3374ZM72.3288 20.0561C72.0892 20.2956 71.8497 20.5352 71.6029 20.782C71.7226 21.0216 71.8424 21.2611 71.9658 21.508C72.4417 21.3176 72.6543 21.2086 72.9186 20.7593C72.9636 20.647 73.0085 20.5347 73.0548 20.419C72.8152 20.2993 72.5756 20.1795 72.3288 20.0561Z" fill="#E0DDD6"/>
<path d="M66.95 23.6632C67.5505 24.1977 68.1282 24.7532 68.6989 25.3192C68.9537 25.5705 68.9537 25.5705 69.2136 25.8268C73.9767 30.7673 76.4499 37.6292 76.3853 44.45C76.1769 51.8354 73.1685 58.4178 67.973 63.6133C67.3325 64.1942 66.668 64.7277 65.9766 65.2467C65.8021 65.3786 65.6276 65.5106 65.4478 65.6465C59.6418 69.8503 52.4453 71.5216 45.3493 70.5518C44.7158 70.4441 44.0946 70.3056 43.4721 70.1469C43.3302 70.1118 43.1884 70.0767 43.0422 70.0405C39.2375 69.0724 35.5052 67.3746 32.5828 64.7022C32.3598 63.9677 32.3195 63.6111 32.6395 62.91C32.9458 62.5244 32.9458 62.5244 33.3088 62.3429C34.4656 62.2359 35.0392 62.4142 35.9403 63.1596C39.4396 65.8461 43.6937 67.0356 48.0093 67.606C48.003 67.4332 47.9967 67.2603 47.9902 67.0821C47.9852 66.8545 47.9803 66.6269 47.9753 66.3923C47.969 66.167 47.9626 65.9418 47.9561 65.7096C48.0125 65.0259 48.1405 64.6972 48.5538 64.1578C49.1217 63.8738 49.7535 63.8498 50.3686 63.9763C50.7756 64.2492 50.7756 64.2492 51.0946 64.7022C51.1473 65.2275 51.1639 65.6785 51.14 66.1995C51.1367 66.3347 51.1334 66.47 51.13 66.6093C51.1215 66.9416 51.1085 67.2739 51.0946 67.606C55.9208 66.8193 60.7394 65.5797 64.4411 62.1862C64.7062 61.9799 64.7062 61.9799 65.0692 61.9799C64.869 61.749 64.6686 61.5185 64.468 61.288C64.3564 61.1595 64.2448 61.0311 64.1298 60.8988C63.8157 60.5316 63.8157 60.5316 63.4904 60.2586C63.0915 59.7939 63.1581 59.331 63.1792 58.7429C63.2543 58.3501 63.2543 58.3501 63.64 57.8851C64.2816 57.5642 64.5436 57.4717 65.2507 57.6242C65.7805 58.0029 66.2417 58.4357 66.7026 58.8946C66.8067 58.9982 66.9108 59.1019 67.0181 59.2087C67.0936 59.2847 67.1692 59.3607 67.247 59.4391C70.7801 55.781 72.6167 50.6392 73.0547 45.6459C72.8797 45.6502 72.7047 45.6544 72.5244 45.6587C72.2951 45.662 72.0658 45.6653 71.8296 45.6686C71.6022 45.6728 71.3748 45.6771 71.1405 45.6814C70.5596 45.6485 70.2617 45.6042 69.7879 45.283C69.3705 44.6987 69.3244 44.1712 69.4249 43.4681C69.795 42.9832 69.795 42.9832 70.3323 42.5606C70.8475 42.4939 71.2431 42.4724 71.7502 42.5039C71.9388 42.5101 71.9388 42.5101 72.1313 42.5163C72.4392 42.527 72.747 42.5432 73.0547 42.5606C72.6252 39.1843 71.9151 36.1505 70.3323 33.1232C70.2456 32.9572 70.2456 32.9572 70.1571 32.7877C69.3849 31.332 68.5091 30.0148 67.4285 28.7675C67.3452 28.8398 67.262 28.9121 67.1761 28.9866C66.8383 29.2783 66.4985 29.5677 66.1581 29.8565C66.0308 29.965 65.9036 30.0736 65.7724 30.1854C65.3349 30.4625 65.0445 30.5577 64.5247 30.5824C63.8242 30.3489 63.5197 30.1857 63.1522 29.5388C63.0506 28.7837 63.2053 28.2993 63.6173 27.6786C64.0164 27.2265 64.4399 26.8118 64.8877 26.4082C61.5444 22.7306 55.904 21.0224 51.0946 20.6005C51.1051 20.7865 51.1157 20.9725 51.1265 21.1642C51.135 21.4111 51.1433 21.658 51.1513 21.905C51.1589 22.0272 51.1665 22.1495 51.1744 22.2754C51.1918 22.9925 51.1203 23.2902 50.6721 23.8602C50.1872 24.2303 50.1872 24.2303 49.6313 24.3097C49.1135 24.2326 48.7964 24.1703 48.3723 23.8673C47.9267 23.21 47.9722 22.6016 47.9866 21.8256C47.9899 21.5963 47.9932 21.3671 47.9965 21.1308C48.0007 20.9558 48.005 20.7808 48.0093 20.6005C47.781 20.6305 47.5526 20.6604 47.3174 20.6913C44.6743 20.9715 44.6743 20.9715 43.9031 20.4758C43.617 19.9945 43.4855 19.7111 43.4721 19.1486C43.8313 18.1846 43.8313 18.1846 44.3143 17.8591C44.9029 17.6359 45.4935 17.5617 46.115 17.4926C46.25 17.4774 46.385 17.4623 46.5241 17.4467C53.8772 16.696 61.3269 18.7879 66.95 23.6632Z" fill="#E0DDD6"/>
<path d="M61.8022 31.3083C62.2559 31.6827 62.2559 31.6827 62.5281 32.2158C62.579 33.036 62.5184 33.4466 62.0098 34.1012C61.6179 34.5072 61.2176 34.9 60.8039 35.2838C60.5254 35.5425 60.2515 35.8055 59.9785 36.0699C59.2022 36.8203 58.4181 37.5623 57.6316 38.3019C57.1494 38.7559 56.6723 39.2147 56.1977 39.6767C56.0165 39.8511 55.8333 40.0235 55.6482 40.1938C54.6021 41.0779 54.6021 41.0779 54.1516 42.2933C54.2444 42.7115 54.3789 43.0733 54.5426 43.4681C54.6803 45.0103 54.183 46.3029 53.2261 47.4984C52.1826 48.5699 51.0855 48.9349 49.6198 48.9808C48.2199 48.9651 47.2238 48.6076 46.1821 47.6664C44.991 46.3882 44.6435 45.2308 44.6912 43.4957C44.8134 42.1264 45.3543 41.1218 46.3757 40.2013C47.5326 39.3129 48.7392 39.0431 50.1869 39.1123C50.3017 39.1591 50.4164 39.2059 50.5346 39.2542C50.9977 39.4304 51.3231 39.5014 51.8203 39.4753C52.5562 39.0241 53.116 38.4033 53.7011 37.7767C53.8756 37.5975 54.0506 37.4189 54.226 37.2406C54.6858 36.7712 55.1395 36.2962 55.5919 35.8196C56.1422 35.2419 56.6988 34.6703 57.2552 34.0985C57.6882 33.6535 58.1199 33.2075 58.5479 32.7578C58.7798 32.5162 58.7798 32.5162 59.0163 32.2698C59.2192 32.0566 59.2192 32.0566 59.4263 31.8391C60.2179 31.1105 60.75 31.0265 61.8022 31.3083ZM48.0431 43.0597C47.7285 43.6557 47.746 44.0744 47.8276 44.7385C48.1535 45.2382 48.3816 45.5599 48.9165 45.8274C49.7256 45.9208 50.0964 45.8827 50.7994 45.4531C51.3713 44.8132 51.4873 44.5039 51.4573 43.6495C51.1591 43.0642 50.9111 42.6842 50.3684 42.3111C49.3657 41.9977 48.7503 42.3769 48.0431 43.0597Z" fill="#E0DDD6"/>
<path d="M13.4468 26.9029C13.7685 26.9002 13.7685 26.9002 14.0968 26.8974C14.3333 26.8973 14.5699 26.8971 14.8136 26.897C15.0643 26.8956 15.315 26.8941 15.5657 26.8924C16.2478 26.8885 16.9299 26.8869 17.612 26.8859C18.0381 26.8853 18.4641 26.8841 18.8901 26.8829C20.3762 26.8784 21.8623 26.876 23.3484 26.8754C24.734 26.8747 26.1195 26.8693 27.5051 26.8617C28.6942 26.8554 29.8833 26.8526 31.0725 26.8525C31.7829 26.8523 32.4932 26.8508 33.2036 26.8456C33.872 26.8408 34.5403 26.8404 35.2088 26.8434C35.5708 26.8438 35.9328 26.8398 36.2947 26.8357C38.0641 26.8502 38.0641 26.8502 38.6278 27.3727C39.0325 28.0147 39.057 28.3851 38.935 29.1305C38.5962 29.5597 38.3324 29.7948 37.8461 30.0379C37.5147 30.0564 37.1827 30.0632 36.8508 30.0646C36.5337 30.0666 36.5337 30.0666 36.2101 30.0686C35.8603 30.0693 35.8603 30.0693 35.5035 30.0701C35.2564 30.0712 35.0093 30.0724 34.7622 30.0737C34.0898 30.0768 33.4175 30.0787 32.7451 30.0802C32.3252 30.0812 31.9052 30.0823 31.4852 30.0834C30.1715 30.0869 28.8578 30.0895 27.5441 30.091C26.0271 30.0927 24.5102 30.0975 22.9932 30.1049C21.8211 30.1103 20.6489 30.113 19.4767 30.1136C18.7764 30.114 18.0762 30.1157 17.376 30.1202C16.7171 30.1245 16.0583 30.1252 15.3994 30.1234C15.0426 30.1232 14.6858 30.1267 14.329 30.1303C14.1161 30.129 13.9031 30.1278 13.6836 30.1265C13.4989 30.1269 13.3142 30.1273 13.1239 30.1278C12.4791 30.013 12.1754 29.7665 11.7118 29.312C11.4854 28.6471 11.4644 28.3611 11.7685 27.724C12.32 26.9887 12.5371 26.907 13.4468 26.9029Z" fill="#E0DDD6"/>
<path d="M1.9245 36.4791C2.15046 36.4771 2.37641 36.4751 2.60921 36.4729C2.85913 36.4744 3.10904 36.4758 3.35895 36.4774C3.62251 36.4764 3.88607 36.4751 4.14962 36.4735C4.86509 36.4702 5.58047 36.4715 6.29593 36.4738C7.04453 36.4757 7.79313 36.4739 8.54173 36.4728C9.79889 36.4715 11.056 36.4732 12.3132 36.4767C13.7668 36.4806 15.2204 36.4794 16.674 36.4754C17.9218 36.4721 19.1697 36.4716 20.4175 36.4735C21.1629 36.4746 21.9083 36.4748 22.6536 36.4724C23.3544 36.4703 24.0551 36.4717 24.7558 36.4759C25.013 36.4769 25.2703 36.4766 25.5275 36.475C25.8785 36.473 26.2295 36.476 26.5805 36.4791C26.8752 36.4796 26.8752 36.4796 27.1758 36.48C27.8057 36.5935 28.0159 36.8022 28.4086 37.2973C28.6586 37.9306 28.6102 38.1548 28.3519 38.7946C28.0456 39.2937 28.0456 39.2937 27.6826 39.4751C27.3302 39.4937 26.9771 39.5005 26.6241 39.5019C26.3987 39.5032 26.1732 39.5045 25.9409 39.5058C25.6897 39.5063 25.4385 39.5068 25.1872 39.5073C24.9237 39.5084 24.6602 39.5096 24.3967 39.5109C23.6798 39.514 22.9628 39.516 22.2459 39.5175C21.7982 39.5184 21.3505 39.5195 20.9028 39.5206C19.5027 39.5241 18.1027 39.5267 16.7026 39.5282C15.0852 39.53 13.4678 39.5347 11.8504 39.5421C10.601 39.5475 9.3516 39.5502 8.1022 39.5508C7.35559 39.5513 6.60903 39.5529 5.86244 39.5574C5.1602 39.5617 4.45805 39.5624 3.75581 39.5606C3.49798 39.5605 3.24016 39.5616 2.98234 39.5641C2.63056 39.5673 2.27874 39.5656 1.92694 39.5637C1.63154 39.5643 1.63154 39.5643 1.33017 39.565C0.700426 39.4536 0.487459 39.2447 0.0964156 38.7492C0 38.3862 0 38.3862 0.0056715 38.0232C0.00286411 37.8436 0.00286411 37.8436 0 37.6603C0.266182 36.6582 0.986724 36.4805 1.9245 36.4791Z" fill="#E0DDD6"/>
<path d="M18.9554 45.9821C19.2383 45.9802 19.2383 45.9802 19.5268 45.9782C19.7345 45.9777 19.9422 45.9772 20.1562 45.9767C20.3743 45.9755 20.5924 45.9743 20.8171 45.9731C21.4163 45.9701 22.0155 45.968 22.6148 45.9665C22.9891 45.9656 23.3635 45.9645 23.7379 45.9634C24.9091 45.9599 26.0804 45.9573 27.2517 45.9558C28.6038 45.954 29.9559 45.9493 31.3079 45.9419C32.353 45.9364 33.398 45.9338 34.443 45.9332C35.0672 45.9327 35.6913 45.9311 36.3155 45.9265C37.012 45.9215 37.7084 45.9223 38.405 45.9235C38.6116 45.9212 38.8182 45.9189 39.031 45.9165C40.4223 45.9257 40.4223 45.9257 41.1456 46.3382C41.6081 46.8942 41.657 47.2881 41.657 48.0052C41.4128 48.5402 41.2785 48.8297 40.7496 49.0941C40.4477 49.1125 40.1451 49.1195 39.8427 49.1209C39.5549 49.1228 39.5549 49.1228 39.2613 49.1248C39.0499 49.1253 38.8385 49.1258 38.6207 49.1263C38.3988 49.1275 38.1769 49.1287 37.9482 49.1299C37.3385 49.1329 36.7288 49.135 36.119 49.1365C35.7382 49.1374 35.3574 49.1385 34.9766 49.1396C33.7855 49.1431 32.5944 49.1457 31.4032 49.1472C30.0276 49.149 28.652 49.1537 27.2764 49.1611C26.2135 49.1665 25.1506 49.1692 24.0877 49.1698C23.4527 49.1703 22.8177 49.1719 22.1827 49.1764C21.4744 49.1815 20.7662 49.1807 20.0579 49.1794C19.7419 49.1829 19.7419 49.1829 19.4195 49.1865C19.2267 49.1852 19.0338 49.184 18.835 49.1827C18.5838 49.1833 18.5838 49.1833 18.3275 49.184C17.7383 49.0652 17.5255 48.8335 17.1561 48.3682C16.9746 47.7443 16.9746 47.7443 16.9746 47.0978C17.5428 46.1966 17.923 45.987 18.9554 45.9821Z" fill="#E0DDD6"/>
<path d="M18.2351 55.5104C18.4161 55.5088 18.5971 55.5072 18.7835 55.5056C19.3812 55.5016 19.9786 55.5042 20.5763 55.5073C20.992 55.5067 21.4076 55.5058 21.8232 55.5047C22.6941 55.5033 23.5649 55.5053 24.4357 55.5095C25.552 55.5147 26.668 55.5117 27.7843 55.5063C28.6425 55.503 29.5007 55.504 30.3589 55.5064C30.7704 55.507 31.182 55.5063 31.5936 55.5041C32.1689 55.5018 32.7439 55.5053 33.3191 55.5104C33.5743 55.5076 33.5743 55.5076 33.8346 55.5048C34.6555 55.5182 35.0133 55.544 35.6853 56.0541C36.1063 56.6398 36.1364 56.9174 36.0312 57.6242C35.8727 58.0995 35.7695 58.289 35.3397 58.5486C34.9131 58.7252 34.6233 58.7587 34.1639 58.7592C33.9327 58.7608 33.9327 58.7608 33.6967 58.7623C33.5291 58.7616 33.3614 58.7608 33.1887 58.7601C33.011 58.7607 32.8332 58.7614 32.6501 58.762C32.0624 58.7636 31.4748 58.7626 30.8871 58.7613C30.4789 58.7616 30.0707 58.7619 29.6625 58.7624C28.807 58.7629 27.9514 58.7621 27.0958 58.7604C25.9985 58.7584 24.9012 58.7596 23.8039 58.7617C22.961 58.7631 22.118 58.7626 21.2751 58.7617C20.8705 58.7615 20.4658 58.7618 20.0612 58.7626C19.496 58.7635 18.9308 58.7621 18.3655 58.7601C18.1978 58.7608 18.0302 58.7616 17.8575 58.7623C17.7033 58.7613 17.5491 58.7603 17.3902 58.7592C17.2567 58.7591 17.1231 58.7589 16.9855 58.7588C16.55 58.7055 16.2603 58.5763 15.886 58.3501C15.4686 57.7658 15.4226 57.2384 15.523 56.5353C16.2893 55.4695 17.0219 55.4973 18.2351 55.5104Z" fill="#E0DDD6"/>
<path d="M24.3278 17.281C24.5283 17.2787 24.7288 17.2764 24.9354 17.274C25.1511 17.2736 25.3668 17.2732 25.5891 17.2728C25.9227 17.271 25.9227 17.271 26.263 17.2691C26.7333 17.2673 27.2037 17.2664 27.674 17.2665C28.3938 17.2657 29.1134 17.2591 29.8331 17.2522C30.29 17.2512 30.7469 17.2504 31.2039 17.2501C31.4192 17.2475 31.6345 17.2449 31.8564 17.2422C33.3471 17.2505 33.3471 17.2505 34.0797 17.6768C34.4439 18.1155 34.5161 18.3117 34.4997 18.8764C34.4999 19.013 34.5002 19.1497 34.5004 19.2904C34.3579 19.8487 34.1155 20.0567 33.6717 20.419C33.1909 20.5125 33.1909 20.5125 32.6374 20.5159C32.4296 20.5187 32.2218 20.5216 32.0078 20.5246C31.7841 20.5237 31.5605 20.5228 31.33 20.5218C31.0996 20.523 30.8691 20.5241 30.6317 20.5253C30.1442 20.5265 29.6569 20.5263 29.1694 20.5237C28.5461 20.5205 27.923 20.5248 27.2997 20.5312C26.7035 20.5361 26.1073 20.5343 25.5111 20.5332C25.1761 20.5368 25.1761 20.5368 24.8344 20.5405C23.1125 20.5217 23.1125 20.5217 22.5487 19.9929C22.1703 19.4069 22.1358 19.1083 22.2379 18.4227C22.3933 17.9565 22.499 17.7608 22.9155 17.4987C23.4107 17.3001 23.7945 17.2852 24.3278 17.281Z" fill="#E0DDD6"/>
<path d="M17.5762 17.2886C17.7488 17.2848 17.9213 17.2811 18.0991 17.2772C19.7051 17.2682 19.7051 17.2682 20.4233 17.8784C20.7082 18.448 20.6687 18.8836 20.6048 19.5118C20.2773 20.0003 20.2773 20.0003 19.6974 20.4192C18.9993 20.5536 18.3192 20.546 17.6103 20.5327C17.3292 20.5379 17.3292 20.5379 17.0424 20.5433C16.1568 20.5376 15.6756 20.5301 14.9454 19.9988C14.5123 19.359 14.4917 18.9992 14.6157 18.2414C15.4609 17.1708 16.3073 17.2954 17.5762 17.2886Z" fill="#E0DDD6"/>
<path d="M11.1446 55.5708C11.4186 55.5629 11.4186 55.5629 11.6982 55.5548C13.0444 55.5432 13.0444 55.5432 13.6428 55.9664C13.9338 56.4228 14.0446 56.7189 14.071 57.2609C13.9393 57.7639 13.7907 58.0767 13.4429 58.4625C12.7147 58.858 11.9937 58.7986 11.1786 58.7922C10.9352 58.7976 10.9352 58.7976 10.6869 58.8032C9.91881 58.8026 9.46794 58.7811 8.79584 58.3838C8.30772 57.8316 8.26343 57.4464 8.26343 56.7164C8.88341 55.3584 9.80742 55.5835 11.1446 55.5708Z" fill="#E0DDD6"/>
<path d="M33.1273 36.458C33.4249 36.4527 33.4249 36.4527 33.7285 36.4474C35.1719 36.4562 35.1719 36.4562 35.7986 36.9982C36.0845 37.5894 36.1393 37.9188 36.0311 38.5678C35.7986 39.0485 35.7986 39.0485 35.3051 39.4753C34.5781 39.6145 33.8653 39.6017 33.1273 39.5887C32.8297 39.5939 32.8297 39.5939 32.5261 39.5993C31.0826 39.5905 31.0826 39.5905 30.456 39.0485C30.17 38.4573 30.1153 38.1279 30.2235 37.4789C30.8256 36.2342 31.9131 36.4365 33.1273 36.458Z" fill="#E0DDD6"/>
</svg>
