<svg width="85" height="53" viewBox="0 0 85 53" fill="none" xmlns="http://www.w3.org/2000/svg">
<path d="M13.988 0.923574C14.1232 0.976982 14.2584 1.03039 14.3976 1.08542C14.6805 1.19758 14.9631 1.31043 15.2454 1.42395C15.6754 1.5966 16.1065 1.76645 16.5377 1.93603C16.8141 2.04605 17.0905 2.15622 17.3668 2.26657C17.4943 2.31674 17.6218 2.36691 17.7532 2.4186C18.8991 2.88269 19.8767 3.37378 20.4425 4.53223C20.4935 5.0376 20.4828 5.5256 20.4425 6.0314C20.7889 6.14737 21.1354 6.26292 21.4824 6.37682C21.7806 6.47849 22.0767 6.58667 22.37 6.70168C23.7123 7.20724 24.9257 7.29402 26.3502 7.30152C26.8059 7.30959 27.2614 7.32025 27.717 7.3308C27.8307 7.33317 27.9444 7.33555 28.0616 7.338C29.1587 7.36219 30.2515 7.41985 31.3459 7.49933C31.5216 7.51131 31.6974 7.52329 31.8785 7.53564C32.858 7.61461 33.7515 7.78113 34.6953 8.05195C35.5974 8.31585 35.5974 8.31585 36.5281 8.36343C37.1666 7.99093 37.5764 7.58121 38.0562 7.02823C38.829 6.13934 40.0267 5.59646 41.1713 5.3651C42.8401 5.26307 44.4419 5.45923 46.0841 5.73989C46.3076 5.77448 46.531 5.80897 46.7545 5.84335C46.9664 5.87878 47.1782 5.91421 47.3965 5.95071C47.5867 5.98212 47.7768 6.01352 47.9728 6.04587C48.5317 6.21758 48.7684 6.41038 49.1312 6.86426C49.2614 7.32583 49.2357 7.73038 49.1312 8.19685C48.8307 8.6237 48.8307 8.6237 48.3021 8.86315C47.3033 8.91878 46.2988 8.66713 45.3168 8.50438C42.8606 8.00088 42.8606 8.00088 40.5126 8.60873C39.9256 9.0529 39.4275 9.58075 38.9197 10.1124C38.4917 10.5562 38.0426 10.955 37.5755 11.3559C37.1635 11.7195 36.7639 12.0944 36.3642 12.4716C35.2926 13.482 34.201 14.4457 33.0456 15.3595C32.9344 15.4482 32.8232 15.537 32.7085 15.6284C31.3212 16.7341 29.9445 17.8178 28.4335 18.7495C28.0525 19.0379 27.9083 19.2481 27.739 19.6904C28.56 20.714 29.6939 21.1019 30.9728 21.2625C33.9841 20.8844 36.3828 19.2409 38.6215 17.2903C39.4814 16.5496 40.1037 16.4646 41.2083 16.4806C42.39 16.5958 43.0218 17.3705 43.8013 18.1789C45.8725 20.1948 49.1387 21.8608 52.0639 21.8546C52.2856 21.8474 52.5073 21.8391 52.729 21.8299C52.8416 21.8252 52.9542 21.8205 53.0702 21.8156C53.2413 21.8084 53.2413 21.8084 53.4159 21.801C55.7125 21.7046 57.2903 21.7821 59.0675 23.3921C59.177 23.4961 59.2865 23.6 59.3994 23.7071C60.0052 24.2588 60.6763 24.7205 61.3405 25.1978C61.6037 25.392 61.8665 25.5868 62.1289 25.7821C62.2565 25.877 62.3842 25.972 62.5157 26.0698C63.0036 26.4344 63.4897 26.8013 63.9754 27.1689C64.404 27.4928 64.834 27.8148 65.2639 28.137C65.529 28.3375 65.7909 28.5422 66.0525 28.7472C66.1974 28.8574 66.3423 28.9675 66.4916 29.081C66.612 29.1751 66.7323 29.2691 66.8563 29.366C67.2063 29.5637 67.2063 29.5637 67.5819 29.3989C68.3856 29.0204 69.1154 28.5216 69.8607 28.0396C70.151 27.852 70.4424 27.6661 70.7339 27.4803C70.9167 27.3627 71.0995 27.245 71.2878 27.1238C71.4553 27.016 71.6229 26.9082 71.7955 26.7971C72.1966 26.5549 72.1966 26.5549 72.3476 26.1868C72.2274 25.7652 72.2274 25.7652 72.0275 25.2765C71.9518 25.0815 71.876 24.8865 71.7979 24.6856C71.7117 24.4677 71.6254 24.2497 71.5391 24.0317C71.4497 23.8033 71.3605 23.5748 71.2713 23.3463C71.0224 22.7097 70.7719 22.0738 70.5211 21.438C70.2946 20.8632 70.0691 20.2879 69.8437 19.7127C68.8744 17.2405 67.9039 14.7687 66.9159 12.3039C66.8685 12.1854 66.821 12.0668 66.7721 11.9447C66.5531 11.3978 66.3335 10.8512 66.1127 10.305C66.0375 10.1176 65.9622 9.93013 65.8847 9.73701C65.8193 9.57498 65.7538 9.41296 65.6864 9.24603C65.5485 8.86315 65.5485 8.86315 65.5485 8.53C65.3599 8.60644 65.1714 8.68288 64.9771 8.76164C64.1764 9.08323 63.3712 9.39237 62.5635 9.69601C62.366 9.77052 62.1685 9.84503 61.965 9.9218C59.6365 10.6968 57.2469 10.4639 54.8628 10.0812C54.7007 10.0565 54.5387 10.0318 54.3718 10.0064C53.4441 9.83911 52.8583 9.6709 52.282 8.86315C52.2579 8.17204 52.3459 7.83367 52.7588 7.2807C53.6851 6.83408 54.6226 7.11411 55.6058 7.28525C58.6083 7.79853 60.6566 7.40362 63.4916 6.33921C63.8437 6.21442 64.1898 6.11488 64.5535 6.0314C64.5458 5.93477 64.5381 5.83814 64.5302 5.73859C64.4869 4.79739 64.5601 4.2584 65.2168 3.53279C66.0566 2.91833 66.9549 2.49224 67.9206 2.12017C68.0473 2.07038 68.174 2.02058 68.3046 1.96928C68.5705 1.8652 68.8367 1.76179 69.1031 1.65904C69.5063 1.50322 69.9083 1.34451 70.3103 1.18547C73.8442 -0.198527 73.8442 -0.198527 75.1855 0.315841C76.084 0.943708 76.5048 1.82491 76.8813 2.819C76.9533 3.0021 76.9533 3.0021 77.0268 3.18889C77.1789 3.57701 77.3285 3.96607 77.4779 4.35525C77.5774 4.61049 77.6771 4.86567 77.7769 5.12077C77.925 5.49947 78.0727 5.87832 78.2186 6.25789C78.4516 6.86348 78.6896 7.46536 78.9439 8.06224C79.0137 8.22841 79.0137 8.22841 79.0848 8.39793C79.2108 8.69656 79.3391 8.99415 79.4676 9.29166C79.6809 9.98157 79.6929 10.4756 79.6441 11.1952C79.3954 11.6116 79.3954 11.6116 78.9808 11.8615C78.4984 11.9463 78.1547 11.9173 77.6541 11.8615C77.1952 11.5095 77.0203 11.1109 76.8109 10.579C76.7479 10.4206 76.6849 10.2621 76.6199 10.0989C76.5535 9.92816 76.4872 9.75741 76.4188 9.58149C76.3496 9.40592 76.2804 9.23034 76.209 9.04944C76.0631 8.67836 75.9177 8.30702 75.773 7.93544C75.5508 7.3656 75.3263 6.79671 75.1016 6.2279C74.9601 5.86748 74.8188 5.50701 74.6776 5.14647C74.5766 4.89036 74.5766 4.89036 74.4735 4.62906C74.3813 4.39142 74.3813 4.39142 74.2872 4.14898C74.2327 4.00956 74.1783 3.87014 74.1221 3.72649C74.0059 3.36622 74.0059 3.36622 74.0059 2.8665C73.2949 3.14174 72.584 3.41728 71.8733 3.69306C71.6319 3.78667 71.3905 3.88021 71.149 3.97367C70.8003 4.10868 70.4516 4.24398 70.103 4.37932C69.9965 4.42047 69.8901 4.46161 69.7804 4.504C69.2605 4.70615 68.7472 4.91703 68.2384 5.14562C67.7043 5.3651 67.7043 5.3651 67.2068 5.3651C67.2528 5.47779 67.2989 5.59048 67.3463 5.70659C68.4412 8.38976 69.5153 11.0799 70.5671 13.7805C70.8794 14.5821 71.1925 15.3834 71.5055 16.1847C71.7432 16.7933 71.9809 17.402 72.2185 18.0106C72.3721 18.404 72.5256 18.7973 72.6792 19.1907C72.7521 19.3774 72.825 19.5642 72.9001 19.7566C73.3035 20.7895 73.7074 21.8223 74.1123 22.8547C74.2341 23.1656 74.3557 23.4766 74.477 23.7876C74.6433 24.2139 74.8103 24.6398 74.9775 25.0657C75.0259 25.1901 75.0743 25.3146 75.1241 25.4429C75.3255 25.9538 75.5252 26.3938 75.83 26.8531C77.9095 26.0285 79.989 25.204 82.1316 24.3545C81.8328 23.3541 81.5535 22.4353 81.1677 21.4798C81.1254 21.3744 81.0831 21.269 81.0395 21.1604C80.9067 20.8298 80.773 20.4995 80.6391 20.1693C80.3062 19.3439 79.9745 18.518 79.6441 17.6915C79.5583 17.4775 79.5583 17.4775 79.4708 17.2592C79.1934 16.547 79.0605 16.1019 79.3124 15.3595C79.6691 14.8553 79.853 14.7142 80.4629 14.6099C81.1238 14.7183 81.3254 14.8784 81.7999 15.3595C82.1066 15.9209 82.3371 16.5079 82.5701 17.1033C82.6389 17.2751 82.7076 17.4469 82.7785 17.6239C82.9231 17.9874 83.0665 18.3515 83.2086 18.716C83.4252 19.2691 83.6479 19.8194 83.8712 20.3697C84.0114 20.7244 84.1512 21.0793 84.2906 21.4342C84.3901 21.678 84.3901 21.678 84.4916 21.9266C84.9314 23.0754 85.0906 24.1238 84.9507 25.3539C84.3551 26.6941 82.9344 27.1266 81.6522 27.6254C81.5152 27.6796 81.3781 27.7337 81.2369 27.7894C80.803 27.9605 80.3687 28.1304 79.9343 28.3002C79.6402 28.416 79.3461 28.532 79.052 28.648C76.012 29.845 76.012 29.845 74.835 29.6848C74.5014 29.4657 74.1694 29.2441 73.84 29.0185C73.0177 29.2292 72.3122 29.7824 71.6117 30.247C71.4281 30.3675 71.4281 30.3675 71.2408 30.4904C70.5569 30.9398 69.8761 31.3939 69.1968 31.8503C69.2231 31.9937 69.2494 32.1372 69.2764 32.2849C69.5414 34.0216 69.4453 35.5171 68.4862 37.0134C67.6818 38.0599 66.5154 38.6907 65.2382 38.9681C64.5688 39.0532 63.8999 39.0379 63.2269 39.013C63.1986 39.1216 63.1704 39.2303 63.1413 39.3422C62.6943 40.9618 61.9115 42.1779 60.4246 43.0231C59.4108 43.4789 58.5128 43.529 57.4228 43.5104C57.3864 43.6513 57.3501 43.7922 57.3127 43.9373C56.8625 45.5549 56.3939 46.6437 54.9664 47.5707C53.5733 48.3372 52.3503 48.4398 50.7895 48.1745C50.6801 48.1195 50.5706 48.0646 50.4579 48.0079C50.4476 48.2914 50.4476 48.2914 50.4371 48.5805C50.2771 49.8421 49.4145 50.873 48.4375 51.6361C47.1714 52.4894 45.6357 52.567 44.1563 52.3388C42.8026 51.8919 41.6405 51.0241 40.508 50.1734C40.4586 50.2752 40.4093 50.3769 40.3584 50.4818C39.7866 51.6059 38.8147 52.3652 37.65 52.8151C36.2131 53.1939 34.8927 52.9804 33.5975 52.2686C32.5086 51.5271 31.9076 50.5971 31.5532 49.3405C31.5532 49.1206 31.5532 48.9008 31.5532 48.6742C31.3685 48.688 31.1838 48.7017 30.9935 48.7159C29.7278 48.7114 28.566 48.1537 27.651 47.2909C26.8891 46.4075 26.6596 45.4872 26.5782 44.3433C26.4778 44.353 26.3773 44.3626 26.2738 44.3726C25.0864 44.4368 24.2368 44.2012 23.2616 43.5104C22.5213 42.8227 21.9189 42.153 21.6033 41.1784C21.5826 40.6266 21.5826 40.6266 21.6033 40.179C21.4909 40.1766 21.3784 40.1742 21.2626 40.1718C19.8154 40.0973 18.5798 39.7333 17.5612 38.6486C16.6557 37.4548 16.2858 36.1676 16.4625 34.682C16.5398 34.3851 16.6242 34.0899 16.7158 33.7971C16.7613 33.65 16.8069 33.503 16.8538 33.3514C16.8888 33.2408 16.9239 33.1302 16.96 33.0163C16.7614 32.8901 16.5627 32.7638 16.3641 32.6376C16.1711 32.5149 16.1711 32.5149 15.9742 32.3898C15.69 32.2095 15.4054 32.0296 15.1206 31.8502C14.422 31.4098 13.7279 30.9656 13.0442 30.5021C12.9264 30.4238 12.8087 30.3455 12.6873 30.2648C12.4654 30.1171 12.2453 29.9667 12.0272 29.8134C11.6909 29.5815 11.6909 29.5815 11.156 29.3517C10.6638 29.4675 10.6638 29.4675 10.161 29.6848C9.05805 29.8172 8.16909 29.5731 7.15464 29.1617C7.01635 29.1078 6.87806 29.0539 6.73558 28.9984C6.29757 28.827 5.86106 28.6521 5.42443 28.4772C5.13097 28.3622 4.83742 28.2475 4.54378 28.133C4.26009 28.0215 3.97646 27.9098 3.69293 27.7979C3.56299 27.7467 3.43305 27.6954 3.29918 27.6427C0.65691 26.5826 0.65691 26.5826 0.0452937 25.3539C-0.139807 23.7687 0.262605 22.5654 0.884812 21.1271C0.975833 20.909 1.06643 20.6906 1.15664 20.4721C1.34929 20.0059 1.54333 19.5402 1.73818 19.0749C2.18409 18.0045 2.60479 16.9241 3.02665 15.844C3.1769 15.4596 3.32776 15.0755 3.47879 14.6915C4.1027 13.1044 4.72233 11.5157 5.33996 9.92612C5.58688 9.2909 5.83421 8.65585 6.08154 8.02079C6.28527 7.49755 6.48868 6.9742 6.69139 6.45056C6.92003 5.86029 7.14964 5.27041 7.37942 4.68059C7.48086 4.41756 7.48086 4.41756 7.58435 4.14921C8.86928 0.861278 8.86928 0.861278 10.275 0.138857C11.5348 -0.099906 12.8283 0.456174 13.988 0.923574ZM10.9901 2.8665C10.9145 3.06111 10.8388 3.25571 10.7609 3.45622C9.42538 6.89059 8.08841 10.3243 6.73803 13.7528C6.56477 14.1929 6.39173 14.633 6.21873 15.0731C5.69396 16.4073 5.16728 17.7407 4.63402 19.0715C4.3968 19.664 4.1607 20.2568 3.92472 20.8498C3.81294 21.1297 3.70059 21.4094 3.58765 21.6888C3.43284 22.0719 3.27993 22.4557 3.12742 22.8397C3.08111 22.9528 3.0348 23.0659 2.98709 23.1825C2.72201 23.8375 2.72201 23.8375 2.86442 24.5211C3.32405 24.7452 3.77192 24.9383 4.24742 25.1223C4.38627 25.1774 4.52512 25.2326 4.66818 25.2894C4.96211 25.4056 5.25641 25.521 5.55103 25.6354C6.0033 25.8114 6.45415 25.9907 6.90493 26.1705C7.19019 26.2829 7.47554 26.395 7.76096 26.5069C7.89657 26.5609 8.03218 26.6148 8.17189 26.6704C8.49963 26.7968 8.83249 26.9096 9.16599 27.0197C9.64431 26.7794 9.6677 26.4878 9.85458 25.9883C9.92695 25.7974 9.99932 25.6064 10.0739 25.4096C10.1131 25.3047 10.1522 25.1999 10.1926 25.0919C10.4121 24.5045 10.636 23.9188 10.8593 23.3329C10.9084 23.2038 10.9575 23.0747 11.0081 22.9417C11.5903 21.4136 12.1909 19.8929 12.7916 18.3721C12.9913 17.8663 13.1908 17.3605 13.3903 16.8546C14.0307 15.231 14.6723 13.6078 15.3153 11.9852C15.6099 11.2417 15.904 10.4981 16.198 9.75441C16.3394 9.39733 16.4809 9.04034 16.6227 8.68344C16.8192 8.18873 17.0151 7.69375 17.2107 7.19871C17.2696 7.05093 17.3286 6.90315 17.3893 6.75089C17.4423 6.61633 17.4953 6.48178 17.55 6.34315C17.6197 6.16738 17.6197 6.16738 17.6908 5.98805C17.807 5.69673 17.807 5.69673 17.7892 5.3651C16.9013 5.00817 16.013 4.65236 15.1242 4.29758C14.8218 4.1767 14.5196 4.05551 14.2175 3.93402C13.7835 3.75956 13.3491 3.58621 12.9147 3.41307C12.7794 3.35841 12.6441 3.30376 12.5048 3.24745C12.3156 3.17241 12.3156 3.17241 12.1226 3.09586C12.0117 3.05148 11.9009 3.00709 11.7867 2.96136C11.4608 2.84142 11.4608 2.84142 10.9901 2.8665ZM19.4475 8.53C18.3195 11.2836 17.2157 14.0461 16.1321 16.8176C16.0259 17.0892 15.9197 17.3608 15.8135 17.6323C15.7599 17.7693 15.7063 17.9063 15.6511 18.0475C15.2865 18.9777 14.9174 19.9061 14.5459 20.8337C14.2811 21.4952 14.0174 22.1572 13.7537 22.8193C13.6253 23.1407 13.4964 23.4619 13.3669 23.7829C13.1865 24.2303 13.0079 24.6785 12.8298 25.1268C12.7752 25.2608 12.7206 25.3948 12.6643 25.5329C12.3554 26.2613 12.3554 26.2613 12.4826 27.0197C12.7342 27.2274 12.7342 27.2274 13.0527 27.4049C13.1724 27.4766 13.2922 27.5484 13.4157 27.6223C13.5455 27.6983 13.6754 27.7742 13.8093 27.8525C14.0811 28.0148 14.3527 28.1775 14.6242 28.3405C14.8333 28.4661 14.8333 28.4661 15.0467 28.5941C15.8371 29.0784 16.608 29.5936 17.3772 30.111C17.4871 30.1838 17.597 30.2566 17.7102 30.3316C17.8058 30.3958 17.9014 30.4601 18 30.5262C18.3127 30.6986 18.6018 30.7787 18.95 30.8509C19.0526 30.735 19.0526 30.735 19.1573 30.6168C19.4731 30.2626 19.7919 29.9113 20.1108 29.5599C20.2184 29.4384 20.3259 29.3168 20.4367 29.1916C21.4986 28.0299 22.5384 27.4359 24.1219 27.3112C25.5457 27.405 26.5509 27.8108 27.5875 28.8097C28.2681 29.6147 28.5482 30.4923 28.734 31.5171C28.9264 31.5416 28.9264 31.5416 29.1227 31.5666C30.6845 31.7918 31.8375 32.0944 32.8383 33.3729C33.3636 34.1577 33.5688 34.927 33.709 35.8481C33.853 35.8663 33.9971 35.8846 34.1456 35.9034C35.9229 36.149 36.921 36.5156 38.0413 37.9719C38.3522 38.5132 38.3522 38.5132 38.4222 38.8926C38.5073 39.3473 38.578 39.6355 38.8497 40.0124C39.4255 40.2099 39.9855 40.2976 40.5864 40.3904C41.6055 40.6024 42.1765 41.1799 42.8815 41.9072C43.6563 43.1179 43.8257 44.2564 43.6588 45.6759C43.4256 46.5247 43.1597 47.2452 42.498 47.8414C42.8101 48.782 43.81 49.2363 44.6538 49.6737C45.493 49.8718 46.0901 49.7728 46.8718 49.4238C47.5181 48.8055 47.9155 48.2214 48.0067 47.3137C47.925 46.4862 47.5713 46.0568 46.9508 45.518C46.4343 45.0962 45.9006 44.6969 45.3654 44.2995C44.6834 43.7687 44.6834 43.7687 44.5391 43.3217C44.5698 42.8455 44.6051 42.4364 44.83 42.0113C45.356 41.7386 45.725 41.7789 46.3121 41.8447C46.807 42.1188 47.2263 42.4711 47.6595 42.8337C47.908 43.0325 48.1567 43.231 48.4057 43.4291C48.528 43.5275 48.6503 43.626 48.7762 43.7274C49.2786 44.1276 49.7905 44.5111 50.3128 44.8847C50.474 45.0023 50.6351 45.12 50.8012 45.2412C51.3666 45.5532 51.8063 45.6377 52.4478 45.6759C53.4233 45.3887 53.8614 44.9771 54.4378 44.1767C54.6925 43.665 54.6412 43.2435 54.6036 42.6776C54.2454 41.6548 53.5599 41.1865 52.7173 40.5746C52.4672 40.3885 52.2172 40.2024 51.9672 40.0163C51.8495 39.9299 51.7317 39.8436 51.6104 39.7546C51.3354 39.5488 51.0686 39.3321 50.8038 39.1132C50.4867 38.8126 50.4867 38.8126 50.1262 38.8464C49.879 38.1014 49.879 37.4259 50.1262 36.6809C51.0166 36.5847 51.7249 36.554 52.4757 37.0902C52.701 37.2727 52.9231 37.4592 53.1423 37.6491C53.3863 37.8473 53.6306 38.0453 53.8749 38.2432C53.9962 38.3437 54.1175 38.4442 54.2424 38.5478C54.7966 39.0059 55.3598 39.4502 55.9303 39.8875C56.0255 39.9649 56.1206 40.0424 56.2187 40.1222C56.9585 40.6882 57.6521 40.8691 58.5836 40.8453C59.4403 40.5639 59.9079 40.092 60.4077 39.3461C60.619 38.6167 60.6486 38.0194 60.3034 37.3244C59.7598 36.5823 58.9812 36.0609 58.2519 35.5149C58.1391 35.4302 58.0262 35.3455 57.91 35.2582C57.7905 35.1686 57.6709 35.0789 57.5478 34.9866C57.4277 34.8964 57.3076 34.8063 57.1839 34.7134C56.9447 34.5346 56.7049 34.3568 56.4643 34.1799C56.3543 34.0985 56.2444 34.017 56.1311 33.9331C56.0324 33.8607 55.9337 33.7882 55.8321 33.7136C55.5986 33.516 55.5986 33.516 55.4328 33.1829C55.3588 32.1609 55.3588 32.1609 55.5986 31.6941C56.1416 31.4044 56.6667 31.4053 57.2569 31.5171C57.7804 31.8008 58.2148 32.172 58.6665 32.5582C58.9285 32.7721 59.1906 32.9857 59.4529 33.1991C59.5841 33.3076 59.7153 33.4161 59.8505 33.5278C60.4484 34.0187 61.0579 34.4931 61.6722 34.9631C61.8279 35.0861 61.8279 35.0861 61.9867 35.2115C62.7336 35.7836 63.6089 36.3867 64.5878 36.3246C65.5311 36.1521 66.051 35.6505 66.5953 34.8694C66.8234 34.1611 66.7757 33.5496 66.5435 32.8497C65.7769 31.6947 64.5309 30.8968 63.4238 30.0909C63.145 29.8864 62.8662 29.6818 62.5875 29.4773C62.4461 29.3738 62.3047 29.2703 62.1591 29.1637C61.6149 28.7642 61.0733 28.3612 60.5323 27.9574C60.2692 27.7623 60.005 27.5686 59.7397 27.3764C59.1057 26.9165 58.4958 26.4506 57.9105 25.9291C55.9992 24.2931 54.3734 24.38 51.9382 24.5089C48.3365 24.5994 44.6649 22.4749 42.0005 20.1901C41.8003 19.9886 41.6025 19.7846 41.4097 19.5759C41.2096 19.3852 41.2096 19.3852 41.0055 19.1907C40.3272 19.2171 39.9262 19.6837 39.4405 20.1173C37.0511 22.1833 33.8617 24.0422 30.6035 23.9023C29.1814 23.7231 27.9388 23.3191 26.7441 22.5222C26.6485 22.4608 26.553 22.3994 26.4545 22.3361C25.6936 21.7833 25.3532 21.0689 25.0858 20.1901C24.976 19.2924 25.1345 18.4762 25.5832 17.6915C26.1953 16.9984 26.8831 16.5108 27.6458 16.005C29.408 14.8104 31.0524 13.4926 32.6725 12.1113C32.821 11.9853 32.821 11.9853 32.9725 11.8566C33.3983 11.4891 33.7272 11.1677 34.0406 10.6955C32.9545 10.2963 31.8836 10.1814 30.7344 10.1124C30.562 10.1019 30.562 10.1019 30.3861 10.0912C29.5148 10.0426 28.6438 10.0178 27.7714 9.99923C27.5374 9.99373 27.3033 9.9882 27.0692 9.98264C26.6055 9.97166 26.1419 9.96367 25.6782 9.95726C23.8282 9.9146 22.2118 9.55739 20.4839 8.9152C20.2864 8.84241 20.0889 8.76962 19.8854 8.69462C19.7409 8.6403 19.5964 8.58597 19.4475 8.53ZM22.4558 30.7975C22.2942 30.9732 22.1344 31.1507 21.9764 31.3298C21.8916 31.4245 21.8068 31.5192 21.7194 31.6168C21.1287 32.2845 20.5527 32.9645 19.9968 33.6618C19.8628 33.8297 19.7288 33.9976 19.5907 34.1706C19.239 34.7527 19.1499 35.1717 19.1158 35.8481C19.3223 36.5091 19.5845 36.8785 20.1523 37.2535C20.7907 37.5769 21.2438 37.5529 21.935 37.3472C22.5498 36.9072 23.0034 36.4213 23.4689 35.8272C24.0975 35.0371 24.7555 34.2869 25.4427 33.5479C25.9878 32.8985 26.1667 32.3886 26.1442 31.5224C26.0268 30.8967 25.7117 30.6159 25.2516 30.1846C24.1232 29.5908 23.3505 29.9552 22.4558 30.7975ZM25.2516 37.6804C25.1492 37.8053 25.0468 37.9303 24.9413 38.0591C24.4404 38.6889 24.0726 39.1719 24.0908 40.0124C24.367 40.7832 24.708 41.2664 25.4174 41.6781C26.2183 41.7803 26.8041 41.789 27.4715 41.2741C27.9696 40.7859 28.3954 40.2408 28.8254 39.6923C29.1059 39.3381 29.3875 38.9958 29.6843 38.6564C29.7966 38.5266 29.7966 38.5266 29.9112 38.3942C30.1223 38.1511 30.3347 37.9092 30.5472 37.6674C30.9336 37.1185 31.0947 36.6728 31.2215 36.0146C31.0249 35.2864 30.8258 34.9373 30.2576 34.4426C28.0644 33.3627 26.4242 36.1968 25.2516 37.6804ZM32.0092 39.8562C31.3866 40.6458 30.7355 41.3935 30.0516 42.1297C29.4292 42.8654 29.1417 43.3962 29.1849 44.3557C29.2567 44.8493 29.4064 45.1313 29.729 45.5093C30.4117 45.9878 30.9156 46.0566 31.7145 45.9778C32.2249 45.7723 32.5092 45.4121 32.8798 45.0096C33.0764 44.7999 33.0764 44.7999 33.2769 44.586C35.2855 42.6541 35.2855 42.6541 36.1861 40.1894C36.077 39.4736 35.7641 39.1347 35.2014 38.6798C33.8566 38.0044 32.8146 38.815 32.0092 39.8562ZM37.6889 43.3439C37.3665 43.6764 37.0823 43.9928 36.7976 44.3537C36.6825 44.4951 36.6825 44.4951 36.5651 44.6392C36.4076 44.8329 36.251 45.0273 36.095 45.2222C35.8729 45.4991 35.648 45.7734 35.4217 46.0468C34.3518 47.2727 34.3518 47.2727 34.2065 48.8408C34.5264 49.5093 34.7856 49.7892 35.4191 50.1734C36.184 50.3817 36.4745 50.3479 37.1914 50.0068C38.1454 49.2315 38.8994 48.2348 39.6594 47.2746C39.956 46.9091 40.2646 46.576 40.5909 46.2381C41.0491 45.7048 41.1668 45.2209 41.1999 44.5229C41.1451 43.8585 40.8366 43.5073 40.3837 43.0524C39.3474 42.4741 38.6051 42.6822 37.6889 43.3439Z" fill="#E0DDD6"/>
</svg>
