<svg width="85" height="50" viewBox="0 0 85 50" fill="none" xmlns="http://www.w3.org/2000/svg">
<path d="M20.9699 0.0237278C21.2114 0.0233114 21.4529 0.0228951 21.7017 0.0224661C22.3692 0.0213458 23.0366 0.0213658 23.7041 0.0215829C24.4251 0.0216205 25.146 0.0206052 25.867 0.0197346C27.2785 0.0182102 28.6899 0.0177031 30.1013 0.0176005C31.2489 0.0175131 32.3965 0.017135 33.5441 0.0165528C36.7998 0.014935 40.0556 0.0140866 43.3113 0.0142245C43.4867 0.0142318 43.6621 0.0142392 43.8428 0.0142467C44.0184 0.0142542 44.194 0.0142618 44.375 0.0142695C47.2209 0.0143442 50.0668 0.0125855 52.9128 0.00999444C55.8371 0.00735319 58.7613 0.00608556 61.6856 0.00624425C63.3265 0.00630521 64.9674 0.00580278 66.6083 0.00382243C68.0054 0.00214714 69.4025 0.00175104 70.7995 0.00299717C71.5118 0.00359621 72.2241 0.00361137 72.9363 0.00201337C73.7098 0.0002961 74.4831 0.00144835 75.2565 0.00286445C75.4799 0.00191918 75.7033 0.000973912 75.9334 0C78.6534 0.0109859 80.8493 0.48471 82.8749 2.39576C84.9389 4.64955 84.9857 7.27666 84.9779 10.1624C84.9789 10.5137 84.9802 10.865 84.9817 11.2163C84.985 12.1656 84.9848 13.1148 84.9837 14.0641C84.9831 14.8587 84.9843 15.6533 84.9854 16.4479C84.9879 18.3236 84.9877 20.1993 84.9856 22.075C84.9835 24.0054 84.9861 25.9356 84.991 27.866C84.9951 29.5277 84.9963 31.1895 84.9952 32.8513C84.9946 33.8418 84.995 34.8323 84.9982 35.8229C85.001 36.7548 85.0003 37.6867 84.9968 38.6186C84.9962 38.959 84.9967 39.2994 84.9987 39.6398C85.014 42.5681 84.6589 45.0088 82.5777 47.2373C80.5027 49.1655 77.9676 49.3571 75.2603 49.3471C75.0183 49.3477 74.7764 49.3483 74.5271 49.3489C73.8608 49.3504 73.1946 49.3497 72.5284 49.3485C71.8078 49.3477 71.0872 49.349 70.3666 49.35C68.9571 49.3516 67.5476 49.3513 66.1381 49.3502C64.9921 49.3494 63.8461 49.3492 62.7001 49.3496C62.5367 49.3497 62.3733 49.3498 62.205 49.3498C61.873 49.3499 61.5411 49.35 61.2092 49.3502C58.0997 49.3512 54.9903 49.35 51.8809 49.348C49.2154 49.3464 46.5499 49.3467 43.8844 49.3484C40.7858 49.3503 37.6871 49.3511 34.5885 49.35C34.2578 49.3499 33.9271 49.3498 33.5964 49.3496C33.4337 49.3496 33.271 49.3495 33.1034 49.3495C31.9594 49.3492 30.8153 49.3497 29.6713 49.3506C28.2763 49.3516 26.8812 49.3513 25.4862 49.3494C24.775 49.3484 24.0639 49.348 23.3527 49.3492C22.5805 49.3505 21.8084 49.349 21.0362 49.3471C20.8132 49.348 20.5903 49.3488 20.3605 49.3496C17.7372 49.3376 15.4245 48.9092 13.4374 47.0722C11.7309 45.2447 11.3502 43.3568 11.3285 40.9538C11.3255 40.7066 11.3205 40.4594 11.3135 40.2123C11.3034 39.8536 11.2999 39.4948 11.2967 39.136C11.293 38.9222 11.2894 38.7085 11.2856 38.4882C11.4246 37.7344 11.7303 37.4684 12.3118 36.9874C12.7498 36.7684 12.9861 36.7833 13.4719 36.8151C13.6812 36.824 13.6812 36.824 13.8947 36.8331C14.573 37.0717 14.9434 37.4586 15.2522 38.0901C15.3863 38.8178 15.3974 39.5338 15.4015 40.2724C15.4061 40.4691 15.4107 40.6657 15.4155 40.8683C15.4263 41.3512 15.433 41.8339 15.436 42.3169C16.3302 41.6657 17.17 40.9973 17.9744 40.238C18.8363 39.4331 19.7274 38.6792 20.6463 37.9393C21.128 37.5429 21.5909 37.132 22.0519 36.7118C22.8422 35.9915 23.6617 35.3166 24.4927 34.6443C24.9779 34.2427 25.4458 33.828 25.9112 33.4038C26.7015 32.6836 27.521 32.0086 28.352 31.3363C28.8372 30.9347 29.3051 30.52 29.7706 30.0958C30.3986 29.5234 31.0396 28.9762 31.7002 28.4418C32.6812 27.6479 33.6148 26.809 34.5488 25.9608C35.7739 24.8582 35.7739 24.8582 36.2027 24.8582C36.2027 24.7369 36.2027 24.6156 36.2027 24.4906C36.0987 24.4454 35.9947 24.4001 35.8876 24.3535C35.3955 24.0835 35.0394 23.7596 34.6292 23.3765C33.9748 22.7759 33.3102 22.1999 32.6191 21.6421C31.7989 20.9786 31.0152 20.285 30.2357 19.5746C29.7543 19.1466 29.2605 18.7392 28.7598 18.3341C27.9396 17.6706 27.1559 16.977 26.3764 16.2666C25.895 15.8386 25.4012 15.4312 24.9005 15.0261C24.0803 14.3626 23.2966 13.669 22.5171 12.9586C22.0357 12.5307 21.5419 12.1232 21.0412 11.7181C20.3805 11.1837 19.7395 10.6365 19.1115 10.0641C17.9356 8.99342 16.7105 7.98294 15.436 7.03182C15.4348 7.21522 15.4348 7.21522 15.4337 7.40233C15.4276 7.96049 15.4146 8.51829 15.4015 9.07633C15.4004 9.26869 15.3994 9.46106 15.3983 9.65925C15.3526 11.2646 15.3526 11.2646 14.8344 11.9335C14.2103 12.4663 13.8811 12.5493 13.0878 12.5903C12.4426 12.5189 12.056 12.2294 11.5767 11.81C11.1555 10.9677 11.3422 9.80546 11.3354 8.88107C11.3301 8.64547 11.3248 8.40988 11.3193 8.16714C11.3031 5.71944 11.927 4.01039 13.5917 2.23639C15.725 0.168707 18.1523 0.0201573 20.9699 0.0237278ZM18.5602 4.09139C19.1262 4.79892 19.547 5.24809 20.2371 5.79132C20.9223 6.34015 21.5877 6.8991 22.2357 7.49126C22.8637 8.06365 23.5047 8.6108 24.1654 9.14525C24.9855 9.80874 25.7692 10.5023 26.5487 11.2127C27.0302 11.6407 27.5239 12.0481 28.0247 12.4532C28.8448 13.1167 29.6285 13.8103 30.408 14.5207C30.8895 14.9487 31.3832 15.3561 31.884 15.7612C32.7041 16.4247 33.4878 17.1183 34.2673 17.8287C34.7488 18.2566 35.2425 18.6641 35.7433 19.0692C36.4039 19.6036 37.0449 20.1508 37.673 20.7232C38.2831 21.2787 38.9038 21.8121 39.5452 22.3312C40.3632 22.9937 41.1632 23.6735 41.9573 24.3643C42.0733 24.4651 42.1893 24.566 42.3088 24.6699C42.5448 24.8752 42.7808 25.0805 43.0167 25.2858C43.8971 26.0518 44.7788 26.816 45.6708 27.5684C45.9103 27.771 46.1479 27.9759 46.3851 28.1812C46.9765 28.6668 47.312 28.8838 48.0793 29.0161C49.3811 28.775 50.1953 27.8256 51.1425 26.9579C51.6339 26.5176 52.1375 26.0997 52.6508 25.6852C53.3114 25.1507 53.9524 24.6035 54.5804 24.0312C55.3707 23.311 56.1902 22.636 57.0212 21.9637C57.5064 21.5621 57.9743 21.1474 58.4397 20.7232C59.23 20.003 60.0495 19.328 60.8805 18.6557C61.3657 18.2541 61.8336 17.8394 62.2991 17.4152C62.9092 16.8597 63.5299 16.3263 64.1713 15.8072C65.3547 14.8487 66.4992 13.8475 67.6476 12.8477C68.1943 12.373 68.744 11.9018 69.2941 11.431C69.3994 11.3408 69.5048 11.2505 69.6134 11.1576C69.8257 10.9759 70.038 10.7942 70.2504 10.6125C70.6783 10.2463 71.106 9.87969 71.5336 9.51307C71.7476 9.32955 71.9618 9.14608 72.1759 8.96264C72.7194 8.49705 73.2623 8.0309 73.8045 7.56376C74.0239 7.37492 74.2433 7.18612 74.4628 6.99736C74.6213 6.86097 74.6213 6.86097 74.783 6.72183C75.6368 5.98998 76.5063 5.27976 77.3845 4.57739C77.5006 4.47766 77.6167 4.37792 77.7363 4.27517C77.7363 4.21452 77.7363 4.15387 77.7363 4.09139C58.2082 4.09139 38.6801 4.09139 18.5602 4.09139ZM79.5396 7.81287C79.3034 8.01676 79.0673 8.22063 78.8311 8.4245C78.7099 8.52933 78.5888 8.63416 78.464 8.74216C77.9166 9.21518 77.367 9.68556 76.8174 10.156C76.603 10.3398 76.3886 10.5236 76.1742 10.7074C68.134 17.599 68.134 17.599 60.0937 24.4906C60.3313 25.0233 60.5651 25.3665 61.0097 25.7426C61.1197 25.8366 61.2296 25.9307 61.3429 26.0276C61.4613 26.1269 61.5798 26.2261 61.7018 26.3284C61.8248 26.4332 61.9479 26.538 62.0747 26.646C62.3303 26.8636 62.5863 27.0808 62.8428 27.2974C63.2973 27.682 63.749 28.0698 64.2005 28.458C64.518 28.7308 64.836 29.0031 65.1541 29.2753C65.7955 29.824 66.4364 30.3734 67.0773 30.9228C67.2917 31.1066 67.5061 31.2903 67.7205 31.4741C74.1527 36.9874 74.1527 36.9874 74.4744 37.2632C74.6883 37.4466 74.9023 37.6299 75.1163 37.8132C75.6598 38.2788 76.2028 38.745 76.7449 39.2121C78.7035 41.2251 78.7035 41.2251 80.8605 42.5007C80.8605 30.7353 80.8605 18.97 80.8605 6.84804C80.4137 6.84804 79.8801 7.51696 79.5396 7.81287ZM56.7857 27.2473C56.6765 27.3475 56.5673 27.4477 56.4548 27.5509C55.4661 28.4505 54.4567 29.3125 53.4153 30.1503C52.9518 30.5342 52.515 30.9359 52.0765 31.3478C50.8841 32.4128 49.5721 32.9628 47.9645 32.9443C45.7681 32.7947 44.4983 31.7039 42.9336 30.2566C42.2708 29.657 41.5766 29.0999 40.879 28.5416C40.4296 28.1661 40.4296 28.1661 40.0606 27.739C39.718 27.3858 39.718 27.3858 39.2537 27.4195C38.6307 27.674 38.2132 28.0686 37.7419 28.5337C37.547 28.7193 37.3518 28.9046 37.1561 29.0893C37.0093 29.2282 37.0093 29.2282 36.8596 29.3698C36.4342 29.7617 35.9872 30.124 35.5366 30.4863C34.8829 31.0126 34.25 31.5519 33.6299 32.1173C32.8396 32.8375 32.0201 33.5125 31.1891 34.1848C30.7039 34.5864 30.236 35.0011 29.7706 35.4253C28.9803 36.1455 28.1608 36.8205 27.3298 37.4928C26.8446 37.8944 26.3767 38.3091 25.9112 38.7333C25.121 39.4535 24.3015 40.1285 23.4705 40.8008C22.8295 41.3313 22.2174 41.8901 21.6033 42.4512C20.937 43.0422 20.2417 43.5948 19.5429 44.1468C19.0532 44.5465 19.0532 44.5465 18.5602 45.2574C38.0883 45.2574 57.6164 45.2574 77.7363 45.2574C76.3773 43.8983 74.9513 42.6523 73.4578 41.444C72.8149 40.912 72.2013 40.3513 71.5848 39.7893C71.1075 39.3651 70.6179 38.962 70.1211 38.561C69.244 37.8517 68.4131 37.1028 67.5834 36.3392C66.9243 35.7475 66.2379 35.1939 65.5489 34.6378C65.0654 34.2388 64.6 33.826 64.1368 33.4038C63.5088 32.8314 62.8678 32.2842 62.2072 31.7498C61.5465 31.2153 60.9055 30.6682 60.2775 30.0958C59.1691 29.0867 58.0345 28.0798 56.7857 27.2473Z" fill="#E0DDD6"/>
<path d="M3.07999 27.3122C3.25763 27.3106 3.43526 27.309 3.61828 27.3074C4.20372 27.3033 4.78889 27.306 5.37433 27.3091C5.78214 27.3085 6.18996 27.3076 6.59777 27.3064C7.45178 27.3051 8.3057 27.3071 9.1597 27.3114C10.2536 27.3166 11.3472 27.3136 12.4411 27.3081C13.283 27.3047 14.1249 27.3058 14.9668 27.3082C15.3701 27.3088 15.7733 27.308 16.1766 27.3059C16.7406 27.3036 17.3043 27.3071 17.8683 27.3122C18.1175 27.3095 18.1175 27.3095 18.3718 27.3066C19.1638 27.3199 19.6868 27.3679 20.316 27.8743C20.8581 28.4479 20.9412 28.7109 20.981 29.4663C20.9194 30.1566 20.5782 30.5471 20.1205 31.0351C19.4033 31.4354 18.6984 31.3702 17.8902 31.3676C17.7105 31.3692 17.5309 31.3707 17.3458 31.3723C16.7515 31.3766 16.1574 31.3768 15.5632 31.3766C15.1503 31.3779 14.7374 31.3793 14.3245 31.3808C13.4589 31.3833 12.5933 31.3836 11.7277 31.3825C10.6181 31.3814 9.50875 31.3871 8.39924 31.3945C7.54646 31.3992 6.69372 31.3998 5.84094 31.3991C5.43186 31.3994 5.02278 31.4012 4.61371 31.4045C4.04172 31.4085 3.47004 31.4068 2.89805 31.4035C2.72895 31.406 2.55984 31.4084 2.38561 31.4109C1.55426 31.4 1.213 31.3787 0.541276 30.8469C0.080117 30.2357 -0.0389783 29.9639 0.0103407 29.2115C0.0192244 29.0022 0.0192244 29.0022 0.0282877 28.7887C0.532205 27.3566 1.77423 27.2976 3.07999 27.3122Z" fill="#E0DDD6"/>
<path d="M8.00368 18.0231C8.12744 18.0216 8.25119 18.0201 8.3787 18.0185C8.78905 18.0139 9.19939 18.0109 9.60975 18.0083C9.82007 18.0068 9.82007 18.0068 10.0346 18.0053C10.7771 18.0004 11.5195 17.9968 12.262 17.9942C13.0279 17.9911 13.7936 17.9829 14.5595 17.9735C15.1491 17.9673 15.7388 17.9652 16.3285 17.9642C16.6107 17.9629 16.8929 17.9601 17.1751 17.9557C17.5711 17.9499 17.9667 17.9499 18.3627 17.9513C18.7001 17.9491 18.7001 17.9491 19.0444 17.9468C19.8714 18.0962 20.173 18.3899 20.7656 18.9774C20.9827 19.4695 20.997 19.9138 20.9494 20.4476C20.6579 21.1378 20.301 21.5339 19.6629 21.9178C19.0993 21.9878 19.0993 21.9878 18.43 21.9892C18.2465 21.9906 18.2465 21.9906 18.0594 21.9921C17.6561 21.9945 17.2529 21.9929 16.8496 21.991C16.5685 21.9914 16.2875 21.992 16.0064 21.9926C15.4177 21.9935 14.8289 21.9923 14.2402 21.9897C13.4867 21.9866 12.7333 21.9884 11.9797 21.9917C11.3994 21.9937 10.8191 21.993 10.2387 21.9916C9.96093 21.9912 9.68316 21.9917 9.4054 21.993C9.01654 21.9944 8.62786 21.9922 8.23901 21.9892C8.018 21.9887 7.79699 21.9883 7.56928 21.9878C6.92637 21.9112 6.58157 21.7467 6.06344 21.3665C5.63319 20.8133 5.62014 20.2129 5.63558 19.523C5.7309 18.9511 6.02402 18.6373 6.43099 18.2423C6.95806 17.9788 7.41456 18.0293 8.00368 18.0231Z" fill="#E0DDD6"/>
</svg>
