<svg width="60" height="80" viewBox="0 0 60 80" fill="none" xmlns="http://www.w3.org/2000/svg">
<path d="M1.62172 18.7064C1.83816 18.7031 1.83816 18.7031 2.05897 18.6997C2.29355 18.7021 2.29355 18.7021 2.53287 18.7045C2.69906 18.7031 2.86525 18.7018 3.03647 18.7003C3.58551 18.6969 4.13436 18.6992 4.6834 18.7018C5.06505 18.7013 5.44669 18.7005 5.82834 18.6996C6.62808 18.6984 7.42776 18.7001 8.2275 18.7037C9.25283 18.7082 10.278 18.7056 11.3033 18.7009C12.0914 18.6981 12.8794 18.699 13.6674 18.701C14.0455 18.7016 14.4236 18.7009 14.8016 18.6991C15.33 18.6971 15.8581 18.7001 16.3864 18.7045C16.5428 18.7029 16.6992 18.7013 16.8603 18.6997C17.0046 18.7019 17.1489 18.7041 17.2975 18.7064C17.4223 18.7067 17.5471 18.707 17.6757 18.7073C18.2392 18.8601 18.4676 19.1241 18.8172 19.5852C18.8936 20.031 18.922 20.3837 18.9148 20.8286C18.9158 20.9529 18.9169 21.0773 18.918 21.2054C18.9207 21.6219 18.9179 22.038 18.915 22.4545C18.9159 22.7532 18.917 23.052 18.9185 23.3507C18.9209 23.9943 18.9209 24.6378 18.919 25.2813C18.9159 26.3008 18.9183 27.3202 18.9214 28.3397C18.9256 29.9545 18.9261 31.5693 18.9251 33.1841C18.9234 36.0695 18.9273 38.9549 18.9335 41.8402C18.9355 42.8515 18.9358 43.8628 18.9344 44.8741C18.9339 45.5067 18.9345 46.1394 18.9355 46.772C18.9357 47.0629 18.9353 47.3539 18.9344 47.6448C18.9225 51.4527 19.3209 55.0661 22.0923 57.951C23.3195 59.0497 24.5959 59.8632 26.1472 60.4464C26.2867 60.4992 26.4263 60.5521 26.57 60.6066C29.3203 61.4616 32.3669 61.0074 34.8902 59.739C37.3669 58.4049 39.1485 56.0441 40.0385 53.4002C40.5729 51.4026 40.5175 49.3572 40.5151 47.3063C40.5153 47.0046 40.5156 46.7029 40.5159 46.4013C40.5166 45.7547 40.5169 45.1081 40.517 44.4616C40.5171 43.4392 40.5191 42.4169 40.5216 41.3945C40.522 41.2217 40.5224 41.0488 40.5228 40.8707C40.5236 40.5174 40.5244 40.1641 40.5252 39.8108C40.5307 37.4327 40.5349 35.0546 40.5345 32.6764C40.5342 31.0691 40.5367 29.4618 40.5424 27.8545C40.5453 27.0047 40.5467 26.1549 40.5448 25.3051C40.543 24.5071 40.5448 23.7091 40.5494 22.9111C40.5505 22.6182 40.5502 22.3252 40.5484 22.0323C40.5463 21.6327 40.5489 21.2334 40.5527 20.8338C40.551 20.7177 40.5492 20.6016 40.5474 20.482C40.5585 19.884 40.6363 19.6051 41.0012 19.1234C41.4496 18.7917 41.6254 18.7077 42.171 18.7064C42.3153 18.7042 42.4596 18.702 42.6082 18.6997C42.8428 18.7021 42.8428 18.7021 43.0821 18.7045C43.2483 18.7031 43.4145 18.7018 43.5857 18.7003C44.1348 18.6969 44.6836 18.6992 45.2327 18.7018C45.6143 18.7013 45.996 18.7005 46.3776 18.6996C47.1773 18.6984 47.977 18.7001 48.7768 18.7037C49.8021 18.7082 50.8273 18.7056 51.8526 18.7009C52.6406 18.6981 53.4287 18.699 54.2167 18.701C54.5948 18.7016 54.9728 18.7009 55.3509 18.6991C55.8792 18.6971 56.4073 18.7001 56.9357 18.7045C57.092 18.7029 57.2484 18.7013 57.4096 18.6997C57.5538 18.7019 57.6981 18.7041 57.8468 18.7064C57.9716 18.7067 58.0964 18.707 58.2249 18.7073C58.7928 18.8613 59.0168 19.1171 59.3664 19.5852C59.4428 20.0658 59.4714 20.4597 59.4644 20.9396C59.4655 21.076 59.4666 21.2123 59.4677 21.3528C59.4705 21.8097 59.4677 22.2665 59.4648 22.7235C59.4656 23.0512 59.4668 23.3789 59.4682 23.7066C59.4711 24.5978 59.4691 25.4889 59.466 26.38C59.4635 27.3152 59.4648 28.2504 59.4656 29.1856C59.4663 30.7592 59.4639 32.3327 59.4595 33.9063C59.4545 35.7175 59.4545 37.5286 59.4572 39.3398C59.4597 41.0878 59.4586 42.8357 59.456 44.5836C59.4549 45.3242 59.455 46.0647 59.4562 46.8052C59.4574 47.6821 59.4555 48.5589 59.4512 49.4358C59.4502 49.7547 59.4501 50.0736 59.4513 50.3925C59.4641 54.4731 58.6671 58.4226 57.027 62.1619C56.9823 62.2662 56.9375 62.3704 56.8913 62.4779C53.7776 69.6731 47.7113 75.163 40.4954 78.0697C38.6718 78.7744 36.8024 79.2747 34.8809 79.6293C34.7392 79.657 34.5974 79.6848 34.4514 79.7134C32.9126 79.9866 31.3896 80.0031 29.8317 79.9997C29.6939 79.9996 29.5562 79.9996 29.4142 79.9996C27.2308 79.9944 25.1532 79.8515 23.028 79.3174C22.9025 79.2873 22.777 79.2573 22.6477 79.2264C20.9992 78.8271 19.4354 78.2834 17.8814 77.6018C17.7771 77.557 17.6729 77.5122 17.5654 77.4661C10.3702 74.3524 4.88032 68.2861 1.97362 61.0702C1.26849 59.2454 0.773263 57.3772 0.414028 55.4557C0.374606 55.2595 0.374606 55.2595 0.334388 55.0594C0.0378057 53.4106 0.0547068 51.7739 0.0543258 50.1037C0.0531353 49.7713 0.0518206 49.4388 0.0503921 49.1064C0.0469897 48.2091 0.0456002 47.3117 0.0448046 46.4144C0.0442346 45.8535 0.0432607 45.2926 0.0421531 44.7316C0.0383422 42.774 0.0362989 40.8164 0.0357447 38.8588C0.0351761 37.0344 0.0304996 35.2101 0.0239848 33.3857C0.018581 31.8175 0.0161645 30.2492 0.0160555 28.681C0.0159317 27.7451 0.0145619 26.8092 0.0101295 25.8733C0.00606016 24.9946 0.0056948 24.1159 0.00820431 23.2372C0.00848825 22.9146 0.00743522 22.5921 0.00495745 22.2695C0.00178412 21.8296 0.00340152 21.39 0.00623834 20.9501C0.00417969 20.8221 0.00212103 20.6941 0 20.5622C0.00958672 19.9128 0.0512492 19.6534 0.451761 19.1162C0.899508 18.7927 1.08074 18.7076 1.62172 18.7064ZM3.22129 21.9246C3.22129 25.6301 3.22129 29.3357 3.22129 33.1536C7.33859 33.1536 11.4559 33.1536 15.698 33.1536C15.698 29.448 15.698 25.7424 15.698 21.9246C11.5807 21.9246 7.46336 21.9246 3.22129 21.9246ZM43.7705 21.9246C43.7705 25.6301 43.7705 29.3357 43.7705 33.1536C47.8879 33.1536 52.0052 33.1536 56.2472 33.1536C56.2472 29.448 56.2472 25.7424 56.2472 21.9246C52.1299 21.9246 48.0126 21.9246 43.7705 21.9246ZM3.22129 36.2728C3.21674 38.699 3.21674 38.699 3.21367 41.1251C3.21274 42.1169 3.21165 43.1086 3.20952 44.1003C3.20781 44.9012 3.20689 45.7021 3.20649 46.503C3.2062 46.8063 3.20565 47.1095 3.2048 47.4128C3.18467 51.1457 3.18467 51.1457 3.65017 54.8416C3.69124 55.0568 3.69124 55.0568 3.73314 55.2763C4.18005 57.5338 4.87524 59.6216 5.87258 61.694C5.92237 61.7993 5.97215 61.9046 6.02344 62.013C7.70603 65.5285 10.2458 68.701 13.3586 71.0515C13.5218 71.1829 13.6849 71.3145 13.8478 71.4463C17.3951 74.2504 21.5792 75.7633 25.9913 76.5101C26.1345 76.5374 26.2778 76.5647 26.4254 76.5928C26.9937 76.6758 27.5528 76.6969 28.1259 76.7032C28.24 76.7047 28.354 76.7063 28.4715 76.7078C31.0336 76.7349 33.4762 76.6881 35.9726 76.0422C36.0907 76.013 36.2088 75.9838 36.3304 75.9537C38.0035 75.533 39.5668 74.9179 41.1192 74.1707C41.2245 74.1209 41.3298 74.0712 41.4382 74.0199C44.9537 72.3373 48.1262 69.7975 50.4768 66.6847C50.6081 66.5215 50.7398 66.3584 50.8715 66.1955C53.6756 62.6482 55.1886 58.4641 55.9353 54.0521C55.9605 53.9165 55.9856 53.7809 56.0115 53.6412C56.1015 53.0492 56.1461 52.4605 56.1781 51.8632C56.1846 51.7414 56.1912 51.6196 56.198 51.4941C56.2722 49.9846 56.2667 48.4754 56.2625 46.9645C56.2622 46.6538 56.262 46.3431 56.2618 46.0324C56.2612 45.2248 56.2597 44.4172 56.2579 43.6096C56.2561 42.6352 56.2554 41.6608 56.2544 40.6864C56.2529 39.2152 56.25 37.744 56.2472 36.2728C52.1299 36.2728 48.0126 36.2728 43.7705 36.2728C43.7665 37.4016 43.7625 38.5304 43.7584 39.6935C43.7544 40.4135 43.7503 41.1335 43.7456 41.8535C43.7381 42.9934 43.7312 44.1333 43.7283 45.2733C43.7259 46.1936 43.7205 47.1138 43.7131 48.034C43.7108 48.3831 43.7096 48.7322 43.7094 49.0812C43.7075 51.6171 43.5752 54.0657 42.4059 56.3719C42.3528 56.4808 42.2996 56.5896 42.2449 56.7017C41.7613 57.6623 41.171 58.5183 40.4954 59.3546C40.3169 59.5959 40.3169 59.5959 40.1348 59.842C37.7517 62.3914 34.3026 64.0907 30.8144 64.2393C27.0267 64.3353 23.8933 63.5507 20.8446 61.2262C20.7294 61.1399 20.6142 61.0537 20.4955 60.9648C19.1328 59.8642 18.0048 58.2791 17.2576 56.7033C17.1792 56.5401 17.1008 56.3769 17.02 56.2087C15.8746 53.6945 15.7817 51.333 15.7741 48.6093C15.7715 48.2523 15.7687 47.8953 15.7656 47.5382C15.7583 46.6055 15.7536 45.6728 15.7495 44.74C15.744 43.6172 15.7351 42.4943 15.7268 41.3715C15.7146 39.6719 15.7067 37.9724 15.698 36.2728C11.5807 36.2728 7.46336 36.2728 3.22129 36.2728Z" fill="#161662"/>
<path d="M52.0168 0.00625024C52.4693 0.121039 52.7431 0.346906 53.0019 0.733651C53.3192 1.46957 53.2268 2.16976 52.9514 2.89427C52.7115 3.40054 52.4566 3.89503 52.1922 4.38893C52.0584 4.64722 52.0584 4.64722 51.9218 4.91072C51.7025 5.33278 51.4807 5.75329 51.2565 6.17271C51.38 6.17335 51.5034 6.17399 51.6307 6.17465C52.1916 6.17979 52.7523 6.19081 53.3132 6.20195C53.5075 6.20286 53.7018 6.20376 53.902 6.20469C55.3102 6.23867 55.3102 6.23867 55.9919 6.62901C56.3564 7.3136 56.3352 7.90533 56.2472 8.66805C56.0845 9.1946 55.851 9.66906 55.5978 10.1576C55.4972 10.3592 55.4972 10.3592 55.3947 10.5649C55.2533 10.8467 55.1103 11.1278 54.9659 11.4082C54.7462 11.8357 54.5323 12.2657 54.319 12.6965C54.1802 12.9713 54.0412 13.246 53.9017 13.5204C53.8383 13.648 53.7749 13.7755 53.7096 13.9069C53.3036 14.6866 52.9152 15.1798 52.1922 15.6862C51.7003 15.8308 51.285 15.8121 50.7886 15.6862C50.1484 15.1766 50.0337 14.9479 49.9315 14.1363C49.9542 13.1087 50.4697 12.2747 50.9446 11.3876C51.0338 11.2154 51.1231 11.0432 51.2151 10.8658C51.4343 10.4437 51.6561 10.0232 51.8803 9.6038C51.7569 9.60316 51.6334 9.60252 51.5062 9.60186C50.9452 9.59672 50.3845 9.5857 49.8236 9.57456C49.6293 9.57365 49.435 9.57275 49.2348 9.57182C47.8266 9.53784 47.8266 9.53784 47.1449 9.1475C46.7804 8.46291 46.8017 7.87118 46.8897 7.10846C47.0523 6.58191 47.2858 6.10745 47.5391 5.61893C47.6396 5.41732 47.6396 5.41732 47.7421 5.21163C47.8836 4.92977 48.0265 4.64868 48.1709 4.36833C48.3906 3.94083 48.6045 3.51076 48.8178 3.08004C48.9566 2.80521 49.0957 2.53055 49.2351 2.25608C49.2985 2.12854 49.3619 2.001 49.4272 1.86959C50.0098 0.750747 50.6613 -0.0807576 52.0168 0.00625024Z" fill="#161662"/>
<path d="M8.34834 0.00625024C8.80083 0.121039 9.07469 0.346906 9.33347 0.733651C9.65074 1.46957 9.55837 2.16976 9.28291 2.89427C9.04305 3.40054 8.78816 3.89503 8.52379 4.38893C8.3899 4.64722 8.3899 4.64722 8.2533 4.91072C8.03405 5.33278 7.81228 5.75329 7.58804 6.17271C7.71151 6.17335 7.83499 6.17399 7.96221 6.17465C8.52317 6.17979 9.08387 6.19081 9.64474 6.20195C9.83905 6.20286 10.0334 6.20376 10.2335 6.20469C11.6417 6.23867 11.6417 6.23867 12.3235 6.62901C12.6879 7.3136 12.6667 7.90533 12.5787 8.66805C12.416 9.1946 12.1825 9.66906 11.9293 10.1576C11.8288 10.3592 11.8288 10.3592 11.7262 10.5649C11.5848 10.8467 11.4419 11.1278 11.2975 11.4082C11.0778 11.8357 10.8639 12.2657 10.6506 12.6965C10.5118 12.9713 10.3727 13.246 10.2332 13.5204C10.1698 13.648 10.1064 13.7755 10.0411 13.9069C9.63519 14.6866 9.24673 15.1798 8.52379 15.6862C8.03183 15.8308 7.61654 15.8121 7.12016 15.6862C6.47993 15.1766 6.36525 14.9479 6.263 14.1363C6.28574 13.1087 6.80128 12.2747 7.27612 11.3876C7.36538 11.2154 7.45464 11.0432 7.54661 10.8658C7.76586 10.4437 7.98763 10.0232 8.21187 9.6038C8.0884 9.60316 7.96492 9.60252 7.8377 9.60186C7.27674 9.59672 6.71604 9.5857 6.15517 9.57456C5.96086 9.57365 5.76656 9.57275 5.56636 9.57182C4.15816 9.53784 4.15816 9.53784 3.47645 9.1475C3.11198 8.46291 3.1332 7.87118 3.22119 7.10846C3.38387 6.58191 3.61739 6.10745 3.87062 5.61893C3.97114 5.41732 3.97114 5.41732 4.07369 5.21163C4.21511 4.92977 4.35805 4.64868 4.50245 4.36833C4.72215 3.94083 4.93604 3.51076 5.14935 3.08004C5.28812 2.80521 5.42722 2.53055 5.56667 2.25608C5.63006 2.12854 5.69346 2.001 5.75878 1.86959C6.34133 0.750747 6.99285 -0.0807576 8.34834 0.00625024Z" fill="#161662"/>
<path d="M9.61548 54.988C10.3653 55.5177 10.5801 56.3859 10.8924 57.2104C12.3602 60.9195 14.5339 63.9316 17.6437 66.4509C18.0429 66.844 18.178 67.2084 18.2614 67.7571C18.1878 68.283 18.0401 68.6006 17.6766 68.992C17.176 69.3501 16.6105 69.4328 16.0098 69.3362C15.033 68.7733 14.2442 67.9813 13.4301 67.2113C13.2316 67.0241 13.0308 66.8394 12.8297 66.655C10.4434 64.3931 8.67146 61.3459 7.58802 58.2631C7.50599 58.0384 7.50599 58.0384 7.42231 57.8092C7.15954 57.0315 7.01747 56.42 7.2761 55.6118C8.00701 54.8996 8.6194 54.6779 9.61548 54.988Z" fill="#161662"/>
<path d="M8.67981 48.7494C9.16718 49.0418 9.16718 49.0418 9.45961 49.5292C9.61381 50.313 9.58077 50.8868 9.16718 51.5761C8.47787 51.9897 7.90411 52.0227 7.12023 51.8685C6.63285 51.5761 6.63285 51.5761 6.34043 51.0887C6.18623 50.3049 6.21927 49.7311 6.63285 49.0418C7.32217 48.6282 7.89593 48.5952 8.67981 48.7494Z" fill="#161662"/>
</svg>
