<svg width="27" height="33" viewBox="0 0 27 33" fill="none" xmlns="http://www.w3.org/2000/svg">
<path d="M1.5 25.5V7.5M25.5 7.5V25.5" stroke="#F0EDE6" stroke-width="3" stroke-linecap="round"/>
<path d="M25.5 16.5C25.5 19.815 20.127 22.5 13.5 22.5C6.873 22.5 1.5 19.815 1.5 16.5M25.5 25.5C25.5 28.815 20.127 31.5 13.5 31.5C6.873 31.5 1.5 28.815 1.5 25.5M13.5 13.5C20.127 13.5 25.5 10.815 25.5 7.5C25.5 4.185 20.127 1.5 13.5 1.5C6.873 1.5 1.5 4.185 1.5 7.5C1.5 10.815 6.873 13.5 13.5 13.5Z" stroke="#F0EDE6" stroke-width="3"/>
</svg>
