<svg width="33" height="33" viewBox="0 0 33 33" fill="none" xmlns="http://www.w3.org/2000/svg">
<path d="M9 27.75C9 28.7446 8.60491 29.6984 7.90165 30.4017C7.19839 31.1049 6.24456 31.5 5.25 31.5C4.25544 31.5 3.30161 31.1049 2.59835 30.4017C1.89509 29.6984 1.5 28.7446 1.5 27.75C1.5 26.7554 1.89509 25.8016 2.59835 25.0983C3.30161 24.3951 4.25544 24 5.25 24C6.24456 24 7.19839 24.3951 7.90165 25.0983C8.60491 25.8016 9 26.7554 9 27.75ZM31.5 27.75C31.5 28.7446 31.1049 29.6984 30.4017 30.4017C29.6984 31.1049 28.7446 31.5 27.75 31.5C26.7554 31.5 25.8016 31.1049 25.0983 30.4017C24.3951 29.6984 24 28.7446 24 27.75C24 26.7554 24.3951 25.8016 25.0983 25.0983C25.8016 24.3951 26.7554 24 27.75 24C28.7446 24 29.6984 24.3951 30.4017 25.0983C31.1049 25.8016 31.5 26.7554 31.5 27.75Z" stroke="#F0EDE6" stroke-width="3"/>
<path d="M27.75 24C27.498 20.3205 26.0925 19.5 21.3405 19.5H11.6595C6.9075 19.5 5.502 20.3205 5.25 24" stroke="#F0EDE6" stroke-width="3" stroke-linecap="round" stroke-linejoin="round"/>
<path d="M16.5 8.25L18 6M23.25 8.25C23.25 10.0402 22.5388 11.7571 21.273 13.023C20.0071 14.2888 18.2902 15 16.5 15C14.7098 15 12.9929 14.2888 11.727 13.023C10.4612 11.7571 9.75 10.0402 9.75 8.25C9.75 6.45979 10.4612 4.7429 11.727 3.47703C12.9929 2.21116 14.7098 1.5 16.5 1.5C18.2902 1.5 20.0071 2.21116 21.273 3.47703C22.5388 4.7429 23.25 6.45979 23.25 8.25Z" stroke="#F0EDE6" stroke-width="3" stroke-linecap="round"/>
</svg>
