<svg width="40" height="22" viewBox="0 0 40 22" fill="none" xmlns="http://www.w3.org/2000/svg">
<path d="M3.63636 14.6667L4.54545 14.795L12.8545 6.41667C12.6878 5.80103 12.6876 5.15163 12.8539 4.53587C13.0201 3.92011 13.3468 3.36045 13.8 2.915C15.2182 1.46667 17.5091 1.46667 18.9273 2.915C19.8909 3.86833 20.2 5.225 19.8727 6.41667L24.5455 11.1283L25.4545 11C25.7818 11 26.0909 11 26.3636 11.1283L32.8545 4.58333C32.7273 4.30833 32.7273 3.99667 32.7273 3.66667C32.7273 2.69421 33.1104 1.76158 33.7923 1.07394C34.4743 0.386308 35.3992 0 36.3636 0C37.3281 0 38.253 0.386308 38.9349 1.07394C39.6169 1.76158 40 2.69421 40 3.66667C40 4.63913 39.6169 5.57176 38.9349 6.25939C38.253 6.94702 37.3281 7.33333 36.3636 7.33333C36.0364 7.33333 35.7273 7.33333 35.4545 7.205L28.9636 13.75C29.0909 14.025 29.0909 14.3367 29.0909 14.6667C29.0909 15.6391 28.7078 16.5718 28.0258 17.2594C27.3439 17.947 26.419 18.3333 25.4545 18.3333C24.4901 18.3333 23.5652 17.947 22.8832 17.2594C22.2013 16.5718 21.8182 15.6391 21.8182 14.6667L21.9455 13.75L17.2727 9.03833C16.6909 9.16667 16.0364 9.16667 15.4545 9.03833L7.14545 17.4167L7.27273 18.3333C7.27273 19.3058 6.88961 20.2384 6.20766 20.9261C5.52571 21.6137 4.60079 22 3.63636 22C2.67194 22 1.74702 21.6137 1.06507 20.9261C0.383116 20.2384 0 19.3058 0 18.3333C0 17.3609 0.383116 16.4282 1.06507 15.7406C1.74702 15.053 2.67194 14.6667 3.63636 14.6667Z" fill="#F0EDE6"/>
</svg>
