<svg width="28" height="34" viewBox="0 0 28 34" fill="none" xmlns="http://www.w3.org/2000/svg">
<path d="M6.25806 10.9189C7.38737 10.9189 8.47043 10.4491 9.26897 9.61277C10.0675 8.77646 10.5161 7.64218 10.5161 6.45946C10.5161 5.27674 10.0675 4.14246 9.26897 3.30615C8.47043 2.46983 7.38737 2 6.25806 2C5.12876 2 4.0457 2.46983 3.24716 3.30615C2.44862 4.14246 2 5.27674 2 6.45946C2 7.64218 2.44862 8.77646 3.24716 9.61277C4.0457 10.4491 5.12876 10.9189 6.25806 10.9189ZM6.25806 10.9189V23.0811M6.25806 10.9189C6.25806 15.6216 9.89677 19.4324 14.3871 19.4324H17.4839M6.25806 23.0811C5.12876 23.0811 4.0457 23.5509 3.24716 24.3872C2.44862 25.2235 2 26.3578 2 27.5405C2 28.7233 2.44862 29.8575 3.24716 30.6939C4.0457 31.5302 5.12876 32 6.25806 32C7.38737 32 8.47043 31.5302 9.26897 30.6939C10.0675 29.8575 10.5161 28.7233 10.5161 27.5405C10.5161 26.3578 10.0675 25.2235 9.26897 24.3872C8.47043 23.5509 7.38737 23.0811 6.25806 23.0811ZM17.4839 19.4324C17.4839 20.6152 17.9325 21.7494 18.731 22.5857C19.5296 23.4221 20.6126 23.8919 21.7419 23.8919C22.8712 23.8919 23.9543 23.4221 24.7528 22.5857C25.5514 21.7494 26 20.6152 26 19.4324C26 18.2497 25.5514 17.1154 24.7528 16.2791C23.9543 15.4428 22.8712 14.973 21.7419 14.973C20.6126 14.973 19.5296 15.4428 18.731 16.2791C17.9325 17.1154 17.4839 18.2497 17.4839 19.4324Z" stroke="#F0EDE6" stroke-width="4" stroke-linecap="round" stroke-linejoin="round"/>
</svg>
