<svg width="36" height="27" viewBox="0 0 36 27" fill="none" xmlns="http://www.w3.org/2000/svg">
<path d="M31.0752 0.225342C32.2945 0.225342 33.4643 0.704714 34.3271 1.55933C35.19 2.41393 35.6747 3.57345 35.6748 4.78296V22.1169C35.6747 23.3265 35.19 24.486 34.3271 25.3406C33.4643 26.1952 32.2945 26.6746 31.0752 26.6746H4.8252C3.60589 26.6746 2.43607 26.1952 1.57324 25.3406C0.710435 24.486 0.225673 23.3265 0.225586 22.1169V4.78296C0.225673 3.57345 0.710435 2.41393 1.57324 1.55933C2.43607 0.704714 3.60589 0.225342 4.8252 0.225342H31.0752ZM2.88379 4.49976C2.8699 4.5934 2.86224 4.68802 2.8623 4.78296V22.1169C2.86239 22.6311 3.0688 23.1248 3.43652 23.489C3.8044 23.8534 4.30402 24.0583 4.8252 24.0583H31.0752C31.5964 24.0583 32.096 23.8534 32.4639 23.489C32.8316 23.1248 33.038 22.6311 33.0381 22.1169V4.78198C33.0384 4.68767 33.03 4.59381 33.0166 4.50073L19.4863 15.6003C19.0536 15.9554 18.5095 16.1491 17.9482 16.1492C17.3868 16.1492 16.842 15.9555 16.4092 15.6003L2.88379 4.49976ZM16.7061 12.4158C17.0564 12.7023 17.4971 12.86 17.9521 12.8611C18.4071 12.8621 18.8485 12.7066 19.2002 12.4216L31.0264 2.84155H4.99609L16.7061 12.4158Z" fill="#F0EDE6" stroke="#F0EDE6" stroke-width="0.45"/>
</svg>
