<svg width="24" height="31" viewBox="0 0 24 31" fill="none" xmlns="http://www.w3.org/2000/svg">
<mask id="path-1-outside-1_222_1246" maskUnits="userSpaceOnUse" x="-0.5" y="-0.5" width="25" height="32" fill="black">
<rect fill="white" x="-0.5" y="-0.5" width="25" height="32"/>
<path d="M6.60348 0.658906L5.25277 1.06402C4.05009 1.42512 2.97605 2.12075 2.15706 3.06904C1.33807 4.01733 0.808209 5.17882 0.629853 6.41679C0.0703554 10.2954 1.32122 14.8304 4.33723 20.0313C7.34571 25.219 10.6575 28.5612 14.3027 30.0241C15.4739 30.4941 16.7561 30.6193 17.9967 30.3849C19.2373 30.1505 20.3843 29.5663 21.3011 28.7019L22.3222 27.7378C22.9852 27.1131 23.3978 26.27 23.4834 25.3651C23.569 24.4603 23.3217 23.5553 22.7875 22.8183L20.233 19.2923C19.8876 18.8163 19.4013 18.4598 18.8422 18.2728C18.2831 18.0858 17.6792 18.0776 17.1153 18.2495L13.2515 19.4255L13.1517 19.4442C12.7259 19.5061 11.7426 18.589 10.5181 16.4771C9.23707 14.2678 8.97334 12.9755 9.32562 12.6417L11.2905 10.8168C12.0082 10.1495 12.4986 9.27548 12.6928 8.31704C12.887 7.35861 12.7754 6.3637 12.3737 5.47152L11.1266 2.71261C10.7516 1.8824 10.0861 1.21627 9.25427 0.838418C8.42243 0.460563 7.47908 0.396761 6.60348 0.658906ZM9.41227 3.48158L10.6556 6.24049C10.8969 6.77561 10.9641 7.37244 10.8479 7.94749C10.7318 8.52254 10.4379 9.04705 10.0076 9.44765L8.03708 11.2744C6.77491 12.4635 7.19312 14.4928 8.88857 17.4149C10.4823 20.1644 11.9366 21.5223 13.5002 21.286L13.7338 21.2372L17.6672 20.0425C17.8552 19.985 18.0566 19.9876 18.2431 20.0498C18.4296 20.112 18.5919 20.2308 18.7071 20.3895L21.2616 23.9155C21.5291 24.284 21.653 24.7366 21.6104 25.1892C21.5678 25.6419 21.3615 26.0637 21.0299 26.3762L20.0069 27.3402C19.352 27.9573 18.5329 28.3743 17.647 28.5415C16.761 28.7087 15.8455 28.6192 15.0091 28.2836C11.8104 27.0008 8.78684 23.9493 5.97051 19.0935C3.14665 14.2265 2.00317 10.0872 2.49485 6.68311C2.62212 5.79867 3.00056 4.96884 3.58562 4.29133C4.17068 3.61383 4.93798 3.11684 5.7972 2.85891L7.14791 2.45379C7.58582 2.32278 8.05664 2.35482 8.47258 2.54393C8.88852 2.73303 9.22117 3.0663 9.4085 3.48158"/>
</mask>
<path d="M6.60348 0.658906L5.25277 1.06402C4.05009 1.42512 2.97605 2.12075 2.15706 3.06904C1.33807 4.01733 0.808209 5.17882 0.629853 6.41679C0.0703554 10.2954 1.32122 14.8304 4.33723 20.0313C7.34571 25.219 10.6575 28.5612 14.3027 30.0241C15.4739 30.4941 16.7561 30.6193 17.9967 30.3849C19.2373 30.1505 20.3843 29.5663 21.3011 28.7019L22.3222 27.7378C22.9852 27.1131 23.3978 26.27 23.4834 25.3651C23.569 24.4603 23.3217 23.5553 22.7875 22.8183L20.233 19.2923C19.8876 18.8163 19.4013 18.4598 18.8422 18.2728C18.2831 18.0858 17.6792 18.0776 17.1153 18.2495L13.2515 19.4255L13.1517 19.4442C12.7259 19.5061 11.7426 18.589 10.5181 16.4771C9.23707 14.2678 8.97334 12.9755 9.32562 12.6417L11.2905 10.8168C12.0082 10.1495 12.4986 9.27548 12.6928 8.31704C12.887 7.35861 12.7754 6.3637 12.3737 5.47152L11.1266 2.71261C10.7516 1.8824 10.0861 1.21627 9.25427 0.838418C8.42243 0.460563 7.47908 0.396761 6.60348 0.658906ZM9.41227 3.48158L10.6556 6.24049C10.8969 6.77561 10.9641 7.37244 10.8479 7.94749C10.7318 8.52254 10.4379 9.04705 10.0076 9.44765L8.03708 11.2744C6.77491 12.4635 7.19312 14.4928 8.88857 17.4149C10.4823 20.1644 11.9366 21.5223 13.5002 21.286L13.7338 21.2372L17.6672 20.0425C17.8552 19.985 18.0566 19.9876 18.2431 20.0498C18.4296 20.112 18.5919 20.2308 18.7071 20.3895L21.2616 23.9155C21.5291 24.284 21.653 24.7366 21.6104 25.1892C21.5678 25.6419 21.3615 26.0637 21.0299 26.3762L20.0069 27.3402C19.352 27.9573 18.5329 28.3743 17.647 28.5415C16.761 28.7087 15.8455 28.6192 15.0091 28.2836C11.8104 27.0008 8.78684 23.9493 5.97051 19.0935C3.14665 14.2265 2.00317 10.0872 2.49485 6.68311C2.62212 5.79867 3.00056 4.96884 3.58562 4.29133C4.17068 3.61383 4.93798 3.11684 5.7972 2.85891L7.14791 2.45379C7.58582 2.32278 8.05664 2.35482 8.47258 2.54393C8.88852 2.73303 9.22117 3.0663 9.4085 3.48158" fill="#F0EDE6"/>
<path d="M6.60348 0.658906L6.46007 0.179913L6.45984 0.179984L6.60348 0.658906ZM5.25277 1.06402L5.10913 0.585099L5.10899 0.58514L5.25277 1.06402ZM0.629853 6.41679L1.12473 6.48818L1.12474 6.48809L0.629853 6.41679ZM4.33723 20.0313L3.9047 20.2821L3.9047 20.2821L4.33723 20.0313ZM14.3027 30.0241L14.1165 30.4881L14.1165 30.4881L14.3027 30.0241ZM21.3011 28.7019L21.6441 29.0657L21.6444 29.0654L21.3011 28.7019ZM22.3222 27.7378L21.9793 27.3739L21.9789 27.3743L22.3222 27.7378ZM22.7875 22.8183L22.3826 23.1117L22.3826 23.1118L22.7875 22.8183ZM20.233 19.2923L20.6379 18.999L20.6377 18.9987L20.233 19.2923ZM17.1153 18.2495L17.2608 18.7279L17.261 18.7278L17.1153 18.2495ZM13.2515 19.4255L13.3438 19.9169L13.3708 19.9118L13.3971 19.9038L13.2515 19.4255ZM13.1517 19.4442L13.2236 19.939L13.2338 19.9375L13.244 19.9356L13.1517 19.4442ZM10.5181 16.4771L10.0855 16.7279L10.0855 16.7279L10.5181 16.4771ZM9.32562 12.6417L8.98533 12.2753L8.98168 12.2788L9.32562 12.6417ZM11.2905 10.8168L11.6307 11.1831L11.6309 11.183L11.2905 10.8168ZM12.3737 5.47152L12.8296 5.26622L12.8293 5.26557L12.3737 5.47152ZM11.1266 2.71261L10.6709 2.91844L10.6709 2.91856L11.1266 2.71261ZM10.6556 6.24049L10.1998 6.44592L10.1998 6.44601L10.6556 6.24049ZM10.0076 9.44765L10.3475 9.81432L10.3482 9.81363L10.0076 9.44765ZM8.03708 11.2744L7.69714 10.9077L7.69422 10.9105L8.03708 11.2744ZM8.88857 17.4149L9.32115 17.1642L9.32104 17.164L8.88857 17.4149ZM13.5002 21.286L13.5749 21.7804L13.5887 21.7783L13.6024 21.7755L13.5002 21.286ZM13.7338 21.2372L13.836 21.7267L13.8578 21.7221L13.8791 21.7157L13.7338 21.2372ZM17.6672 20.0425L17.8125 20.5209L17.8134 20.5207L17.6672 20.0425ZM18.7071 20.3895L19.112 20.0962L19.1117 20.0957L18.7071 20.3895ZM21.2616 23.9155L20.8567 24.2088L20.8569 24.2092L21.2616 23.9155ZM21.0299 26.3762L21.3728 26.7401L21.3728 26.7401L21.0299 26.3762ZM20.0069 27.3402L20.3498 27.7041L20.3499 27.7041L20.0069 27.3402ZM15.0091 28.2836L15.1953 27.8196L15.1953 27.8195L15.0091 28.2836ZM5.97051 19.0935L6.40303 18.8427L6.40299 18.8426L5.97051 19.0935ZM2.49485 6.68311L2.98971 6.75459L2.98975 6.75433L2.49485 6.68311ZM5.7972 2.85891L5.65356 2.37998L5.65344 2.38002L5.7972 2.85891ZM7.14791 2.45379L7.0046 1.97477L7.00427 1.97487L7.14791 2.45379ZM6.60348 0.658906L6.45984 0.179984L5.10913 0.585099L5.25277 1.06402L5.39642 1.54294L6.74712 1.13783L6.60348 0.658906ZM5.25277 1.06402L5.10899 0.58514C3.81545 0.973516 2.65994 1.7218 1.77865 2.74222L2.15706 3.06904L2.53547 3.39585C3.29216 2.51969 4.28474 1.87671 5.39655 1.5429L5.25277 1.06402ZM2.15706 3.06904L1.77865 2.74222C0.897338 3.76267 0.326967 5.01279 0.134963 6.34549L0.629853 6.41679L1.12474 6.48809C1.28945 5.34484 1.77879 4.27198 2.53547 3.39585L2.15706 3.06904ZM0.629853 6.41679L0.134976 6.3454C-0.447365 10.3824 0.861875 15.035 3.9047 20.2821L4.33723 20.0313L4.76976 19.7804C1.78056 14.6258 0.588076 10.2084 1.12473 6.48818L0.629853 6.41679ZM4.33723 20.0313L3.9047 20.2821C6.94017 25.5164 10.3244 28.9663 14.1165 30.4881L14.3027 30.0241L14.4889 29.5601C10.9905 28.1561 7.75125 24.9216 4.76976 19.7804L4.33723 20.0313ZM14.3027 30.0241L14.1165 30.4881C15.3763 30.9936 16.7552 31.1283 18.0895 30.8762L17.9967 30.3849L17.9039 29.8936C16.7569 30.1103 15.5716 29.9945 14.4889 29.5601L14.3027 30.0241ZM17.9967 30.3849L18.0895 30.8762C19.4238 30.6241 20.6576 29.9958 21.6441 29.0657L21.3011 28.7019L20.9581 28.3381C20.1109 29.1369 19.0508 29.6769 17.9039 29.8936L17.9967 30.3849ZM21.3011 28.7019L21.6444 29.0654L22.6654 28.1014L22.3222 27.7378L21.9789 27.3743L20.9579 28.3383L21.3011 28.7019ZM22.3222 27.7378L22.6651 28.1017C23.4162 27.3939 23.8841 26.4383 23.9812 25.4122L23.4834 25.3651L22.9856 25.3181C22.9115 26.1017 22.5541 26.8323 21.9793 27.3739L22.3222 27.7378ZM23.4834 25.3651L23.9812 25.4122C24.0782 24.3861 23.7978 23.3601 23.1923 22.5249L22.7875 22.8183L22.3826 23.1118C22.8456 23.7505 23.0597 24.5344 22.9856 25.3181L23.4834 25.3651ZM22.7875 22.8183L23.1924 22.525L20.6379 18.999L20.233 19.2923L19.8281 19.5857L22.3826 23.1117L22.7875 22.8183ZM20.233 19.2923L20.6377 18.9987C20.231 18.4381 19.6585 18.0186 19.0008 17.7986L18.8422 18.2728L18.6836 18.747C19.1441 18.901 19.5443 19.1945 19.8283 19.5859L20.233 19.2923ZM18.8422 18.2728L19.0008 17.7986C18.3431 17.5786 17.6329 17.5691 16.9695 17.7712L17.1153 18.2495L17.261 18.7278C17.7256 18.5862 18.2231 18.5929 18.6836 18.747L18.8422 18.2728ZM17.1153 18.2495L16.9697 17.7712L13.1059 18.9471L13.2515 19.4255L13.3971 19.9038L17.2608 18.7279L17.1153 18.2495ZM13.2515 19.4255L13.1592 18.9341L13.0594 18.9528L13.1517 19.4442L13.244 19.9356L13.3438 19.9169L13.2515 19.4255ZM13.1517 19.4442L13.0797 18.9494C13.1573 18.9382 13.1463 18.9753 13.0035 18.8834C12.8797 18.8036 12.7104 18.6607 12.5003 18.4351C12.0822 17.9861 11.5516 17.2629 10.9506 16.2263L10.5181 16.4771L10.0855 16.7279C10.709 17.8033 11.2823 18.5945 11.7685 19.1166C12.0106 19.3765 12.2434 19.5833 12.462 19.7241C12.6616 19.8527 12.9332 19.9812 13.2236 19.939L13.1517 19.4442ZM10.5181 16.4771L10.9506 16.2263C10.3209 15.1403 9.95663 14.305 9.79035 13.7195C9.70677 13.4252 9.67987 13.2167 9.68304 13.083C9.68648 12.9376 9.72198 12.9549 9.66955 13.0046L9.32562 12.6417L8.98168 12.2788C8.75311 12.4954 8.68947 12.7994 8.68332 13.0593C8.67689 13.3307 8.72994 13.646 8.82839 13.9927C9.02615 14.6891 9.43424 15.6046 10.0855 16.7279L10.5181 16.4771ZM9.32562 12.6417L9.66588 13.008L11.6307 11.1831L11.2905 10.8168L10.9502 10.4504L8.98535 12.2753L9.32562 12.6417ZM11.2905 10.8168L11.6309 11.183C12.425 10.4447 12.9678 9.47744 13.1828 8.41635L12.6928 8.31704L12.2027 8.21774C12.0293 9.07352 11.5915 9.85427 10.95 10.4506L11.2905 10.8168ZM12.6928 8.31704L13.1828 8.41635C13.3978 7.35525 13.2743 6.2538 12.8296 5.26622L12.3737 5.47152L11.9177 5.67683C12.2766 6.47361 12.3762 7.36197 12.2027 8.21774L12.6928 8.31704ZM12.3737 5.47152L12.8293 5.26557L11.5822 2.50666L11.1266 2.71261L10.6709 2.91856L11.918 5.67747L12.3737 5.47152ZM11.1266 2.71261L11.5822 2.50679C11.1571 1.56563 10.403 0.81106 9.46106 0.383182L9.25427 0.838418L9.04748 1.29365C9.7692 1.62149 10.346 2.19916 10.6709 2.91844L11.1266 2.71261ZM9.25427 0.838418L9.46106 0.383182C8.5191 -0.0446928 7.45134 -0.116862 6.46007 0.179913L6.60348 0.658906L6.74689 1.1379C7.50682 0.910384 8.32576 0.965818 9.04748 1.29365L9.25427 0.838418ZM9.41227 3.48158L8.95642 3.68701L10.1998 6.44592L10.6556 6.24049L11.1114 6.03506L9.86812 3.27615L9.41227 3.48158ZM10.6556 6.24049L10.1998 6.44601C10.3981 6.88577 10.4533 7.37608 10.3578 7.84846L10.8479 7.94749L11.338 8.04652C11.475 7.3688 11.3957 6.66545 11.1114 6.03496L10.6556 6.24049ZM10.8479 7.94749L10.3578 7.84846C10.2624 8.32086 10.021 8.75208 9.66689 9.08167L10.0076 9.44765L10.3482 9.81363C10.8549 9.34201 11.2011 8.72422 11.338 8.04652L10.8479 7.94749ZM10.0076 9.44765L9.66763 9.08098L7.69715 10.9077L8.03708 11.2744L8.377 11.6411L10.3475 9.81432L10.0076 9.44765ZM8.03708 11.2744L7.69422 10.9105C6.91217 11.6472 6.68296 12.6347 6.85965 13.7716C7.03274 14.8853 7.59838 16.1876 8.45609 17.6658L8.88857 17.4149L9.32104 17.164C8.4833 15.7201 7.99212 14.5467 7.84778 13.618C7.70705 12.7124 7.89981 12.0907 8.37994 11.6383L8.03708 11.2744ZM8.88857 17.4149L8.45598 17.6656C9.26307 19.0581 10.0583 20.1412 10.8792 20.8489C11.7096 21.5647 12.6055 21.9269 13.5749 21.7804L13.5002 21.286L13.4255 20.7916C12.8313 20.8814 12.2182 20.6829 11.5321 20.0914C10.8365 19.4918 10.1078 18.5213 9.32115 17.1642L8.88857 17.4149ZM13.5002 21.286L13.6024 21.7755L13.836 21.7267L13.7338 21.2372L13.6316 20.7478L13.398 20.7966L13.5002 21.286ZM13.7338 21.2372L13.8791 21.7157L17.8125 20.5209L17.6672 20.0425L17.5219 19.5641L13.5885 20.7588L13.7338 21.2372ZM17.6672 20.0425L17.8134 20.5207C17.902 20.4936 17.997 20.4948 18.0849 20.5241L18.2431 20.0498L18.4014 19.5755C18.1162 19.4804 17.8084 19.4765 17.521 19.5644L17.6672 20.0425ZM18.2431 20.0498L18.0849 20.5241C18.1727 20.5534 18.2487 20.6092 18.3025 20.6833L18.7071 20.3895L19.1117 20.0957C18.935 19.8524 18.6865 19.6706 18.4014 19.5755L18.2431 20.0498ZM18.7071 20.3895L18.3022 20.6828L20.8567 24.2088L21.2616 23.9155L21.6665 23.6222L19.112 20.0962L18.7071 20.3895ZM21.2616 23.9155L20.8569 24.2092C21.0531 24.4794 21.1438 24.811 21.1126 25.1423L21.6104 25.1892L22.1082 25.2361C22.1622 24.6622 22.005 24.0885 21.6662 23.6218L21.2616 23.9155ZM21.6104 25.1892L21.1126 25.1423C21.0814 25.4737 20.9303 25.7829 20.6869 26.0123L21.0299 26.3762L21.3728 26.7401C21.7926 26.3444 22.0541 25.81 22.1082 25.2361L21.6104 25.1892ZM21.0299 26.3762L20.6869 26.0123L19.664 26.9763L20.0069 27.3402L20.3499 27.7041L21.3728 26.7401L21.0299 26.3762ZM20.0069 27.3402L19.664 26.9763C19.0788 27.5278 18.3465 27.9006 17.5542 28.0502L17.647 28.5415L17.7397 29.0328C18.7193 28.8479 19.6253 28.3868 20.3498 27.7041L20.0069 27.3402ZM17.647 28.5415L17.5542 28.0502C16.7619 28.1997 15.9432 28.1197 15.1953 27.8196L15.0091 28.2836L14.8229 28.7477C15.7478 29.1188 16.7601 29.2177 17.7397 29.0328L17.647 28.5415ZM15.0091 28.2836L15.1953 27.8195C12.1461 26.5967 9.19466 23.6558 6.40303 18.8427L5.97051 19.0935L5.538 19.3444C8.37902 24.2427 11.4747 27.4048 14.823 28.7477L15.0091 28.2836ZM5.97051 19.0935L6.40299 18.8426C3.60361 14.0178 2.52134 9.9973 2.98971 6.75459L2.49485 6.68311L1.99998 6.61164C1.48499 10.1771 2.68969 14.4352 5.53804 19.3444L5.97051 19.0935ZM2.49485 6.68311L2.98975 6.75433C3.10339 5.96464 3.44132 5.22346 3.96405 4.61812L3.58562 4.29133L3.20719 3.96454C2.55981 4.71423 2.14085 5.6327 1.99994 6.6119L2.49485 6.68311ZM3.58562 4.29133L3.96405 4.61812C4.4868 4.01277 5.17263 3.56845 5.94096 3.33779L5.7972 2.85891L5.65344 2.38002C4.70333 2.66524 3.85455 3.21488 3.20719 3.96454L3.58562 4.29133ZM5.7972 2.85891L5.94084 3.33783L7.29155 2.93271L7.14791 2.45379L7.00427 1.97487L5.65356 2.37998L5.7972 2.85891ZM7.14791 2.45379L7.29122 2.93281C7.61338 2.83643 7.95978 2.86003 8.26564 2.99909L8.47258 2.54393L8.67952 2.08876C8.15351 1.84961 7.55826 1.80913 7.0046 1.97477L7.14791 2.45379ZM8.47258 2.54393L8.26564 2.99909C8.57145 3.13813 8.81546 3.38289 8.95273 3.68718L9.4085 3.48158L9.86428 3.27598C9.62687 2.74971 9.20559 2.32794 8.67952 2.08876L8.47258 2.54393Z" fill="#F0EDE6" mask="url(#path-1-outside-1_222_1246)"/>
</svg>
