<svg width="31" height="31" viewBox="0 0 31 31" fill="none" xmlns="http://www.w3.org/2000/svg">
<path d="M14.1009 28.1018H12.7008C7.421 28.1018 4.78042 28.1018 3.14091 26.4609C1.5014 24.82 1.5 22.1808 1.5 16.901V12.7008C1.5 7.421 1.5 4.78042 3.14091 3.14091C4.78182 1.5014 7.421 1.5 12.7008 1.5H15.501C20.7807 1.5 23.4213 1.5 25.0608 3.14091C26.7003 4.78182 26.7017 7.421 26.7017 12.7008V13.4008M8.50048 8.50048H19.7012M8.50048 14.8009H19.7012M8.50048 21.1013H14.1009M23.0713 18.8668C23.1373 18.7005 23.2517 18.5578 23.3997 18.4573C23.5478 18.3568 23.7226 18.3031 23.9015 18.3031C24.0805 18.3031 24.2553 18.3568 24.4033 18.4573C24.5513 18.5578 24.6658 18.7005 24.7318 18.8668L24.7836 18.997C25.1426 19.9073 25.685 20.7341 26.377 21.4261C27.0689 22.1181 27.8957 22.6604 28.8061 23.0195L28.9363 23.0713C29.1026 23.1373 29.2452 23.2517 29.3457 23.3997C29.4463 23.5478 29.5 23.7226 29.5 23.9015C29.5 24.0805 29.4463 24.2553 29.3457 24.4033C29.2452 24.5513 29.1026 24.6658 28.9363 24.7318L28.8061 24.7836C27.8957 25.1426 27.0689 25.685 26.377 26.377C25.685 27.0689 25.1426 27.8957 24.7836 28.8061L24.7318 28.9363C24.6658 29.1026 24.5513 29.2452 24.4033 29.3457C24.2553 29.4463 24.0805 29.5 23.9015 29.5C23.7226 29.5 23.5478 29.4463 23.3997 29.3457C23.2517 29.2452 23.1373 29.1026 23.0713 28.9363L23.0195 28.8061C22.6604 27.8957 22.1181 27.0689 21.4261 26.377C20.7341 25.685 19.9073 25.1426 18.997 24.7836L18.8668 24.7318C18.7005 24.6658 18.5578 24.5513 18.4573 24.4033C18.3568 24.2553 18.3031 24.0805 18.3031 23.9015C18.3031 23.7226 18.3568 23.5478 18.4573 23.3997C18.5578 23.2517 18.7005 23.1373 18.8668 23.0713L18.997 23.0195C19.9073 22.6604 20.7341 22.1181 21.4261 21.4261C22.1181 20.7341 22.6604 19.9073 23.0195 18.997L23.0713 18.8668Z" stroke="#F0EDE6" stroke-width="3" stroke-linecap="round" stroke-linejoin="round"/>
</svg>
