<svg width="36" height="35" viewBox="0 0 36 35" fill="none" xmlns="http://www.w3.org/2000/svg">
<path d="M17.9341 1.20581L22.52 12.2253L34.2251 13.2595L34.8042 13.3103L34.3687 13.6951L25.4771 21.5535L28.1538 33.2439L28.2876 33.825L27.7798 33.5125L17.7036 27.3103L7.62842 33.5144L7.12061 33.8269L7.25342 33.2458L9.92725 21.5554L1.03662 13.698L0.601074 13.3123L1.18018 13.2615L12.8872 12.2273L17.4731 1.20581L17.7036 0.651123L17.9341 1.20581ZM14.7681 14.6365L14.7104 14.7751L14.561 14.7888L7.16553 15.4597L12.7944 20.4783L12.9038 20.5769L12.8716 20.7205L11.1997 28.1042L17.5728 24.1833L17.7046 24.1023L17.8364 24.1843L24.2056 28.155L22.5356 20.7195L22.5034 20.5759L22.6147 20.4773L28.2378 15.5154L20.8472 14.8445L20.6968 14.8308L20.6392 14.6912L17.7026 7.66675L14.7681 14.6365Z" fill="#F0EDE6" stroke="#F0EDE6" stroke-width="0.5"/>
</svg>
