<svg width="26" height="33" viewBox="0 0 26 33" fill="none" xmlns="http://www.w3.org/2000/svg">
<path d="M8.4 31.5H1.5V1.5H22.2V14.1923M4.95 8.42308H18.75M4.95 13.0385H14.15M17.6 19.9615V24.5769L21.05 28.0385M24.5 24.5769C24.5 26.413 23.773 28.1739 22.479 29.4723C21.185 30.7706 19.43 31.5 17.6 31.5C15.77 31.5 14.015 30.7706 12.721 29.4723C11.427 28.1739 10.7 26.413 10.7 24.5769C10.7 22.7408 11.427 20.9799 12.721 19.6816C14.015 18.3832 15.77 17.6538 17.6 17.6538C19.43 17.6538 21.185 18.3832 22.479 19.6816C23.773 20.9799 24.5 22.7408 24.5 24.5769Z" stroke="#F0EDE6" stroke-width="3" stroke-linejoin="round"/>
</svg>
