<svg width="70" height="70" viewBox="0 0 70 70" fill="none" xmlns="http://www.w3.org/2000/svg">
<rect width="70" height="70" fill="url(#paint0_linear_61_397)"/>
<path d="M51.2266 20.502C51.5165 20.4909 51.806 20.5383 52.0771 20.6426C52.3481 20.7469 52.5956 20.9054 52.8057 21.1074L52.959 21.2549V21.2754C53.0988 21.4397 53.2147 21.6238 53.3027 21.8223C53.4214 22.0897 53.4874 22.3789 53.498 22.6719C53.5087 22.9646 53.4639 23.2568 53.3652 23.5322C53.2912 23.7389 53.1877 23.9334 53.0586 24.1094L52.9209 24.2793L30.9434 48.7754C30.7349 49.0077 30.4798 49.1931 30.1953 49.3184C29.9108 49.4435 29.6032 49.5057 29.293 49.5C28.9826 49.4942 28.6773 49.4207 28.3975 49.2852C28.1176 49.1495 27.8691 48.9546 27.6689 48.7148L16.9619 35.8838L16.9521 35.8721L16.9434 35.8594C16.6079 35.4027 16.4547 34.8334 16.5117 34.2676C16.5688 33.7018 16.8324 33.176 17.2539 32.7988C17.6759 32.4212 18.2244 32.2212 18.7881 32.2451C19.3516 32.2691 19.8816 32.5147 20.2715 32.9258L20.2832 32.9375L20.293 32.9502L29.3896 43.8662L49.6973 21.2246L49.8506 21.0703C50.0113 20.9232 50.1927 20.8004 50.3896 20.707C50.6522 20.5826 50.9368 20.513 51.2266 20.502Z" fill="#F0EDE6" stroke="#F0EDE6"/>
<defs>
<linearGradient id="paint0_linear_61_397" x1="35" y1="0" x2="35" y2="70" gradientUnits="userSpaceOnUse">
<stop stop-color="#1E1E1E"/>
<stop offset="1" stop-color="#1A3FA8"/>
</linearGradient>
</defs>
</svg>
