<svg width="70" height="70" viewBox="0 0 70 70" fill="none" xmlns="http://www.w3.org/2000/svg">
<rect width="70" height="70" fill="url(#paint0_linear_61_422)"/>
<path d="M27.2581 28.9189C28.3874 28.9189 29.4704 28.4491 30.269 27.6128C31.0675 26.7765 31.5161 25.6422 31.5161 24.4595C31.5161 23.2767 31.0675 22.1425 30.269 21.3061C29.4704 20.4698 28.3874 20 27.2581 20C26.1288 20 25.0457 20.4698 24.2472 21.3061C23.4486 22.1425 23 23.2767 23 24.4595C23 25.6422 23.4486 26.7765 24.2472 27.6128C25.0457 28.4491 26.1288 28.9189 27.2581 28.9189ZM27.2581 28.9189V41.0811M27.2581 28.9189C27.2581 33.6216 30.8968 37.4324 35.3871 37.4324H38.4839M27.2581 41.0811C26.1288 41.0811 25.0457 41.5509 24.2472 42.3872C23.4486 43.2235 23 44.3578 23 45.5405C23 46.7233 23.4486 47.8575 24.2472 48.6939C25.0457 49.5302 26.1288 50 27.2581 50C28.3874 50 29.4704 49.5302 30.269 48.6939C31.0675 47.8575 31.5161 46.7233 31.5161 45.5405C31.5161 44.3578 31.0675 43.2235 30.269 42.3872C29.4704 41.5509 28.3874 41.0811 27.2581 41.0811ZM38.4839 37.4324C38.4839 38.6152 38.9325 39.7494 39.731 40.5857C40.5296 41.4221 41.6126 41.8919 42.7419 41.8919C43.8712 41.8919 44.9543 41.4221 45.7528 40.5857C46.5514 39.7494 47 38.6152 47 37.4324C47 36.2497 46.5514 35.1154 45.7528 34.2791C44.9543 33.4428 43.8712 32.973 42.7419 32.973C41.6126 32.973 40.5296 33.4428 39.731 34.2791C38.9325 35.1154 38.4839 36.2497 38.4839 37.4324Z" stroke="#F0EDE6" stroke-width="4" stroke-linecap="round" stroke-linejoin="round"/>
<defs>
<linearGradient id="paint0_linear_61_422" x1="35" y1="0" x2="35" y2="70" gradientUnits="userSpaceOnUse">
<stop stop-color="#1E1E1E"/>
<stop offset="1" stop-color="#1A3FA8"/>
</linearGradient>
</defs>
</svg>
